<svg width="960" height="1090" viewBox="0 0 960 1090" fill="none" xmlns="http://www.w3.org/2000/svg">
<g clip-path="url(#clip0_18_161)">
<g filter="url(#filter0_d_18_161)">
<rect width="690" height="820" transform="translate(59.2448 74.9749) rotate(-2.5864)" fill="white"/>
<path d="M129.424 278.399C127.165 278.501 125.129 278.102 123.316 277.201C121.523 276.279 120.087 274.977 119.007 273.296C117.926 271.594 117.336 269.624 117.234 267.386C117.131 265.106 117.542 263.08 118.465 261.308C119.388 259.515 120.701 258.089 122.404 257.03C124.128 255.948 126.119 255.357 128.378 255.255C129.678 255.196 130.902 255.344 132.05 255.697C133.219 256.05 134.278 256.558 135.226 257.22C136.173 257.86 136.955 258.626 137.572 259.516L134.654 261.57C134.221 260.97 133.674 260.44 133.012 259.978C132.351 259.517 131.631 259.176 130.852 258.955C130.093 258.711 129.32 258.608 128.531 258.643C126.997 258.713 125.649 259.126 124.487 259.883C123.347 260.639 122.464 261.651 121.838 262.918C121.21 264.163 120.933 265.596 121.007 267.215C121.078 268.793 121.472 270.184 122.188 271.39C122.926 272.596 123.908 273.523 125.133 274.172C126.379 274.821 127.791 275.109 129.368 275.038C130.604 274.982 131.701 274.677 132.658 274.121C133.615 273.565 134.35 272.816 134.863 271.875C135.397 270.933 135.637 269.865 135.583 268.671L139.111 268.063C139.203 270.088 138.845 271.866 138.039 273.397C137.253 274.906 136.111 276.1 134.613 276.979C133.136 277.836 131.406 278.31 129.424 278.399ZM130.226 269.202L130.09 266.197L139.009 265.794L139.121 268.287L137.163 268.888L130.226 269.202ZM142.673 277.416L141.951 261.432L145.499 261.272L146.221 277.256L142.673 277.416ZM143.604 258.315C143.029 258.341 142.519 258.161 142.074 257.775C141.65 257.367 141.425 256.876 141.399 256.3C141.373 255.725 141.553 255.225 141.94 254.802C142.348 254.378 142.839 254.153 143.415 254.127C143.99 254.101 144.49 254.281 144.913 254.668C145.357 255.054 145.593 255.534 145.619 256.11C145.645 256.685 145.454 257.195 145.047 257.641C144.66 258.064 144.179 258.289 143.604 258.315ZM155.588 276.833L161.099 260.568L164.808 260.4L158.944 276.681L155.588 276.833ZM155.332 276.844L147.993 261.16L151.669 260.993L158.657 276.694L155.332 276.844ZM174.476 276.364C172.92 276.434 171.519 276.145 170.273 275.497C169.047 274.826 168.053 273.878 167.293 272.652C166.555 271.426 166.148 269.992 166.074 268.351C166 266.71 166.286 265.245 166.933 263.956C167.579 262.667 168.494 261.643 169.677 260.885C170.88 260.104 172.27 259.679 173.847 259.607C175.275 259.543 176.581 259.857 177.766 260.551C178.95 261.224 179.903 262.238 180.626 263.593C181.371 264.948 181.786 266.584 181.873 268.502L169.31 269.07L169.769 268.6C169.813 269.581 170.065 270.424 170.524 271.129C170.982 271.813 171.571 272.331 172.292 272.683C173.012 273.035 173.799 273.191 174.651 273.153C175.632 273.108 176.432 272.859 177.052 272.404C177.671 271.927 178.146 271.329 178.477 270.61L181.702 271.809C181.293 272.682 180.751 273.454 180.077 274.125C179.424 274.795 178.625 275.322 177.682 275.707C176.759 276.09 175.691 276.309 174.476 276.364ZM169.909 266.736L169.377 266.312L178.392 265.905L177.933 266.374C177.893 265.5 177.669 264.795 177.261 264.258C176.851 263.7 176.342 263.296 175.732 263.046C175.144 262.773 174.529 262.652 173.89 262.68C173.251 262.709 172.618 262.887 171.992 263.215C171.365 263.521 170.852 263.971 170.452 264.566C170.05 265.139 169.87 265.862 169.909 266.736ZM203.357 274.675L203.032 271.743L202.443 258.7L205.992 258.54L206.714 274.523L203.357 274.675ZM191.944 267.375L191.574 259.191L195.155 259.029L195.524 267.213L191.944 267.375ZM195.524 267.213C195.581 268.47 195.775 269.444 196.105 270.134C196.435 270.823 196.862 271.295 197.386 271.549C197.931 271.802 198.545 271.913 199.227 271.882C200.443 271.849 201.363 271.412 201.987 270.573C202.611 269.733 202.889 268.557 202.82 267.043L204.163 266.983C204.239 268.666 204.049 270.127 203.592 271.365C203.156 272.581 202.494 273.529 201.606 274.209C200.739 274.868 199.666 275.226 198.388 275.284C197.13 275.341 196.032 275.134 195.092 274.664C194.174 274.193 193.445 273.425 192.906 272.36C192.367 271.295 192.059 269.911 191.982 268.206L191.944 267.375L195.524 267.213ZM216.528 274.464C215.462 274.513 214.474 274.397 213.565 274.118C212.655 273.839 211.868 273.426 211.203 272.879C210.536 272.311 210.015 271.641 209.638 270.868L212.677 269.353C213.024 269.935 213.515 270.415 214.151 270.792C214.809 271.168 215.521 271.339 216.289 271.304C217.12 271.266 217.774 271.098 218.252 270.799C218.75 270.477 218.987 270.061 218.964 269.549C218.942 269.059 218.733 268.695 218.338 268.457C217.942 268.197 217.389 267.998 216.678 267.859L215.156 267.511C213.626 267.196 212.416 266.642 211.526 265.849C210.635 265.035 210.165 264.085 210.116 262.998C210.043 261.4 210.499 260.141 211.483 259.221C212.487 258.3 213.959 257.795 215.899 257.708C216.879 257.663 217.781 257.772 218.604 258.034C219.448 258.273 220.18 258.646 220.801 259.152C221.421 259.637 221.864 260.225 222.13 260.918L219.218 262.395C218.98 261.872 218.557 261.485 217.948 261.235C217.338 260.963 216.67 260.844 215.946 260.877C215.221 260.91 214.664 261.095 214.273 261.433C213.882 261.75 213.699 262.185 213.724 262.739C213.738 263.059 213.933 263.349 214.307 263.61C214.681 263.849 215.213 264.038 215.903 264.178L217.809 264.54C218.865 264.749 219.736 265.115 220.421 265.64C221.106 266.143 221.624 266.728 221.974 267.395C222.324 268.042 222.514 268.706 222.545 269.388C222.588 270.347 222.349 271.201 221.828 271.951C221.327 272.699 220.618 273.297 219.698 273.745C218.778 274.171 217.721 274.411 216.528 274.464ZM236.126 279.986C235.614 280.009 235.034 279.939 234.386 279.776C233.76 279.612 233.152 279.394 232.563 279.122L233.774 276.152C234.188 276.325 234.568 276.458 234.913 276.549C235.26 276.661 235.54 276.713 235.753 276.703C236.265 276.68 236.685 276.522 237.013 276.23C237.364 275.958 237.634 275.561 237.824 275.04L239.511 270.543L244.304 256.809L248.204 256.633L241.586 274.646C241.185 275.689 240.767 276.605 240.333 277.393C239.92 278.181 239.382 278.792 238.718 279.228C238.055 279.685 237.191 279.938 236.126 279.986ZM238.665 273.08L230.782 257.42L234.682 257.244L240.852 270.451L242.117 272.924L238.665 273.08ZM257.99 272.591C256.392 272.664 254.948 272.377 253.659 271.73C252.39 271.061 251.375 270.114 250.615 268.889C249.855 267.663 249.438 266.23 249.364 264.589C249.29 262.948 249.565 261.483 250.191 260.195C250.837 258.906 251.763 257.882 252.967 257.122C254.17 256.342 255.571 255.916 257.169 255.843C258.768 255.771 260.201 256.07 261.47 256.738C262.738 257.386 263.741 258.323 264.48 259.549C265.24 260.775 265.657 262.208 265.731 263.849C265.806 265.49 265.53 266.955 264.905 268.243C264.28 269.531 263.365 270.566 262.162 271.346C260.958 272.105 259.567 272.52 257.99 272.591ZM257.841 269.299C258.715 269.259 259.483 269.011 260.146 268.554C260.808 268.076 261.314 267.455 261.664 266.692C262.012 265.907 262.164 265.014 262.119 264.012C262.074 263.011 261.832 262.146 261.393 261.419C260.975 260.669 260.415 260.096 259.714 259.701C259.012 259.284 258.213 259.096 257.318 259.136C256.423 259.177 255.644 259.425 254.981 259.882C254.319 260.339 253.813 260.96 253.464 261.745C253.115 262.529 252.963 263.422 253.008 264.424C253.054 265.426 253.285 266.301 253.704 267.051C254.142 267.779 254.713 268.351 255.415 268.768C256.137 269.162 256.946 269.339 257.841 269.299ZM279.904 271.217L279.579 268.285L278.99 255.242L282.539 255.082L283.261 271.066L279.904 271.217ZM268.491 263.917L268.121 255.733L271.702 255.571L272.071 263.755L268.491 263.917ZM272.071 263.755C272.128 265.012 272.322 265.986 272.652 266.676C272.982 267.366 273.409 267.838 273.933 268.091C274.478 268.344 275.092 268.456 275.774 268.425C276.99 268.391 277.909 267.955 278.534 267.115C279.158 266.275 279.435 265.099 279.367 263.586L280.71 263.525C280.786 265.209 280.596 266.669 280.139 267.907C279.703 269.123 279.041 270.071 278.153 270.752C277.286 271.41 276.213 271.768 274.934 271.826C273.677 271.883 272.579 271.676 271.639 271.206C270.721 270.735 269.992 269.967 269.453 268.902C268.914 267.838 268.606 266.453 268.529 264.748L268.491 263.917L272.071 263.755ZM289.221 262.276C289.143 260.549 289.409 259.117 290.019 257.979C290.63 256.841 291.445 255.982 292.466 255.402C293.506 254.8 294.602 254.473 295.753 254.421L295.907 257.841C294.927 257.886 294.006 258.066 293.145 258.383C292.304 258.677 291.631 259.134 291.125 259.755C290.619 260.376 290.388 261.177 290.432 262.157L289.221 262.276ZM287.239 270.886L286.517 254.902L290.097 254.74L290.819 270.724L287.239 270.886ZM308.161 269.941L307.363 252.263C307.287 250.579 307.644 249.271 308.435 248.338C309.246 247.384 310.504 246.868 312.209 246.791C312.763 246.766 313.353 246.835 313.98 246.999C314.627 247.14 315.245 247.347 315.834 247.62L314.643 250.332C314.23 250.159 313.861 250.037 313.538 249.966C313.235 249.894 312.967 249.863 312.733 249.874C312.093 249.903 311.623 250.138 311.323 250.578C311.043 250.997 310.924 251.675 310.966 252.613L311.742 269.779L308.161 269.941ZM304.823 257.022L304.69 254.081L315.208 253.606L315.34 256.547L304.823 257.022ZM325.697 269.533C324.141 269.603 322.74 269.314 321.494 268.666C320.267 267.995 319.274 267.047 318.514 265.821C317.775 264.595 317.369 263.161 317.295 261.52C317.221 259.879 317.507 258.414 318.153 257.125C318.8 255.836 319.715 254.812 320.898 254.054C322.101 253.273 323.491 252.848 325.068 252.776C326.496 252.712 327.802 253.027 328.987 253.72C330.17 254.393 331.124 255.407 331.847 256.763C332.591 258.117 333.007 259.753 333.094 261.671L320.531 262.239L320.99 261.77C321.034 262.75 321.286 263.593 321.745 264.298C322.203 264.982 322.792 265.5 323.513 265.852C324.233 266.204 325.02 266.36 325.872 266.322C326.853 266.278 327.653 266.028 328.273 265.573C328.892 265.096 329.367 264.498 329.697 263.779L332.923 264.978C332.514 265.851 331.972 266.623 331.298 267.294C330.645 267.964 329.846 268.491 328.903 268.876C327.98 269.259 326.912 269.478 325.697 269.533ZM321.13 259.905L320.598 259.481L329.613 259.074L329.154 259.543C329.114 258.669 328.89 257.964 328.482 257.427C328.072 256.869 327.562 256.465 326.953 256.215C326.364 255.942 325.75 255.821 325.111 255.85C324.472 255.878 323.839 256.056 323.213 256.384C322.586 256.69 322.073 257.14 321.672 257.735C321.271 258.308 321.09 259.032 321.13 259.905ZM343.304 268.738C341.748 268.808 340.347 268.519 339.101 267.87C337.874 267.2 336.881 266.252 336.121 265.026C335.382 263.799 334.976 262.366 334.902 260.725C334.828 259.084 335.114 257.619 335.76 256.329C336.407 255.04 337.322 254.017 338.505 253.259C339.708 252.478 341.098 252.052 342.675 251.981C344.103 251.917 345.409 252.231 346.594 252.925C347.777 253.598 348.731 254.612 349.454 255.967C350.199 257.322 350.614 258.958 350.701 260.876L338.138 261.443L338.597 260.974C338.641 261.955 338.893 262.797 339.352 263.503C339.81 264.187 340.399 264.705 341.12 265.057C341.84 265.408 342.627 265.565 343.479 265.527C344.46 265.482 345.26 265.233 345.88 264.777C346.499 264.301 346.974 263.703 347.304 262.983L350.53 264.183C350.121 265.056 349.579 265.828 348.905 266.499C348.252 267.169 347.453 267.696 346.51 268.08C345.587 268.464 344.519 268.683 343.304 268.738ZM338.737 259.11L338.205 258.686L347.22 258.278L346.761 258.748C346.721 257.874 346.497 257.168 346.089 256.632C345.679 256.074 345.17 255.67 344.56 255.419C343.971 255.147 343.357 255.025 342.718 255.054C342.079 255.083 341.446 255.261 340.82 255.588C340.193 255.894 339.68 256.345 339.279 256.939C338.878 257.513 338.697 258.236 338.737 259.11ZM365.305 267.359L365.011 264.394L364.135 244.99L367.683 244.829L368.694 267.206L365.305 267.359ZM360.112 267.978C358.663 268.044 357.379 267.76 356.262 267.127C355.164 266.472 354.278 265.53 353.603 264.3C352.95 263.07 352.585 261.613 352.509 259.929C352.432 258.224 352.664 256.74 353.205 255.477C353.766 254.192 354.564 253.184 355.599 252.454C356.654 251.702 357.906 251.293 359.355 251.228C360.698 251.167 361.865 251.467 362.855 252.127C363.866 252.764 364.656 253.7 365.224 254.934C365.792 256.147 366.114 257.606 366.191 259.311C366.267 260.995 366.078 262.477 365.623 263.757C365.168 265.038 364.467 266.052 363.518 266.8C362.59 267.525 361.454 267.918 360.112 267.978ZM360.86 264.677C361.67 264.641 362.374 264.395 362.973 263.941C363.592 263.465 364.054 262.835 364.361 262.053C364.688 261.269 364.83 260.376 364.784 259.375C364.739 258.373 364.518 257.497 364.121 256.746C363.745 255.994 363.228 255.42 362.57 255.022C361.932 254.624 361.198 254.444 360.367 254.481C359.515 254.52 358.768 254.767 358.126 255.223C357.485 255.679 356.99 256.299 356.641 257.084C356.313 257.868 356.161 258.761 356.185 259.763C356.252 260.764 356.483 261.64 356.88 262.391C357.299 263.14 357.848 263.724 358.529 264.142C359.23 264.537 360.007 264.716 360.86 264.677ZM372.652 267.028L371.641 244.65L375.222 244.489L376.098 263.893L376.041 266.875L372.652 267.028ZM381.301 267.021C379.958 267.082 378.781 266.793 377.77 266.156C376.779 265.496 376 264.549 375.431 263.314C374.863 262.08 374.541 260.621 374.465 258.938C374.388 257.233 374.577 255.751 375.033 254.491C375.487 253.211 376.179 252.208 377.107 251.483C378.056 250.735 379.201 250.331 380.544 250.27C381.993 250.205 383.266 250.5 384.364 251.155C385.481 251.788 386.367 252.719 387.02 253.95C387.694 255.158 388.07 256.615 388.147 258.32C388.223 260.003 387.98 261.488 387.419 262.773C386.879 264.057 386.082 265.076 385.026 265.828C383.992 266.558 382.75 266.956 381.301 267.021ZM380.258 263.801C381.111 263.763 381.858 263.515 382.499 263.059C383.139 262.582 383.634 261.951 383.983 261.166C384.353 260.381 384.516 259.487 384.471 258.486C384.425 257.484 384.194 256.608 383.775 255.858C383.378 255.107 382.84 254.534 382.16 254.137C381.48 253.741 380.703 253.563 379.829 253.602C379.02 253.639 378.305 253.884 377.685 254.34C377.064 254.795 376.591 255.414 376.263 256.198C375.957 256.98 375.826 257.872 375.871 258.874C375.917 259.876 376.127 260.752 376.503 261.504C376.9 262.255 377.417 262.84 378.055 263.26C378.714 263.657 379.448 263.838 380.258 263.801ZM401.32 265.733L401.025 262.735L400.789 257.524C400.74 256.437 400.582 255.537 400.315 254.823C400.068 254.087 399.68 253.538 399.151 253.178C398.643 252.795 397.973 252.622 397.142 252.66C396.375 252.694 395.711 252.885 395.15 253.23C394.589 253.576 394.121 254.099 393.747 254.799L390.562 253.79C390.872 253.071 391.29 252.401 391.817 251.779C392.364 251.135 393.056 250.613 393.892 250.212C394.75 249.81 395.786 249.582 397.001 249.527C398.556 249.457 399.87 249.707 400.942 250.278C402.014 250.827 402.82 251.656 403.361 252.763C403.924 253.87 404.241 255.222 404.313 256.82L404.613 265.584L401.32 265.733ZM396.734 266.324C394.816 266.411 393.305 266.052 392.201 265.248C391.118 264.442 390.542 263.262 390.471 261.706C390.396 260.044 390.893 258.751 391.962 257.827C393.052 256.902 394.599 256.394 396.602 256.304L400.886 256.11L401.01 258.86L397.877 259.001C396.449 259.066 395.457 259.313 394.899 259.744C394.341 260.154 394.079 260.721 394.111 261.446C394.139 262.064 394.407 262.543 394.913 262.883C395.44 263.201 396.151 263.339 397.046 263.299C397.856 263.262 398.551 263.05 399.131 262.66C399.712 262.271 400.148 261.771 400.441 261.16C400.755 260.548 400.895 259.868 400.861 259.123L401.916 259.075C402.015 261.249 401.655 262.984 400.838 264.281C400.02 265.556 398.652 266.238 396.734 266.324ZM415.832 265.461C414.191 265.536 412.726 265.249 411.437 264.603C410.147 263.935 409.111 262.989 408.33 261.764C407.569 260.539 407.152 259.105 407.078 257.464C407.004 255.823 407.29 254.358 407.937 253.069C408.605 251.779 409.541 250.754 410.745 249.995C411.97 249.214 413.392 248.787 415.011 248.713C416.588 248.642 418.034 248.961 419.347 249.671C420.659 250.359 421.656 251.392 422.338 252.771L419.071 254.2C418.698 253.512 418.151 252.971 417.428 252.576C416.706 252.182 415.897 252.005 415.002 252.045C414.128 252.085 413.36 252.344 412.698 252.822C412.036 253.279 411.53 253.9 411.181 254.684C410.831 255.448 410.678 256.319 410.723 257.3C410.767 258.28 410.998 259.145 411.416 259.895C411.855 260.623 412.425 261.195 413.128 261.612C413.85 262.006 414.648 262.184 415.522 262.144C416.417 262.104 417.206 261.844 417.889 261.364C418.571 260.864 419.065 260.212 419.37 259.408L422.753 260.536C422.2 262.013 421.303 263.186 420.061 264.053C418.84 264.92 417.43 265.389 415.832 265.461ZM428.941 260L426.656 257.637L434.559 248.215L438.875 248.02L428.941 260ZM425.723 264.63L424.712 242.253L428.292 242.091L429.303 264.469L425.723 264.63ZM435.888 264.171L429.888 256.146L432.109 253.547L440.14 263.979L435.888 264.171ZM457.318 263.587C455.72 263.66 454.276 263.373 452.987 262.726C451.718 262.057 450.703 261.11 449.943 259.884C449.183 258.659 448.766 257.226 448.692 255.585C448.618 253.944 448.893 252.479 449.519 251.191C450.165 249.902 451.091 248.878 452.295 248.118C453.498 247.338 454.899 246.912 456.497 246.839C458.096 246.767 459.529 247.066 460.798 247.734C462.066 248.382 463.069 249.319 463.808 250.545C464.568 251.771 464.985 253.204 465.059 254.845C465.133 256.486 464.858 257.951 464.233 259.239C463.608 260.527 462.693 261.562 461.49 262.342C460.286 263.101 458.895 263.516 457.318 263.587ZM457.169 260.295C458.043 260.255 458.811 260.007 459.474 259.55C460.136 259.072 460.642 258.451 460.991 257.688C461.34 256.903 461.492 256.01 461.447 255.008C461.402 254.007 461.16 253.142 460.721 252.415C460.303 251.665 459.743 251.092 459.042 250.697C458.34 250.28 457.541 250.092 456.646 250.132C455.751 250.173 454.972 250.421 454.309 250.878C453.647 251.335 453.141 251.956 452.792 252.741C452.443 253.525 452.291 254.418 452.336 255.42C452.382 256.422 452.613 257.297 453.032 258.047C453.47 258.775 454.041 259.347 454.743 259.764C455.465 260.158 456.274 260.335 457.169 260.295ZM468.523 262.697L467.801 246.713L471.158 246.562L471.514 249.493L472.103 262.535L468.523 262.697ZM479.36 262.207L478.99 254.024L482.571 253.862L482.94 262.046L479.36 262.207ZM478.99 254.024C478.932 252.745 478.739 251.771 478.41 251.103C478.101 250.412 477.674 249.94 477.129 249.687C476.605 249.433 475.991 249.322 475.288 249.354C474.093 249.387 473.184 249.823 472.56 250.663C471.936 251.502 471.658 252.679 471.726 254.192L470.384 254.252C470.308 252.569 470.488 251.119 470.924 249.904C471.359 248.667 472.021 247.718 472.91 247.059C473.797 246.378 474.87 246.01 476.127 245.953C477.406 245.895 478.504 246.102 479.422 246.573C480.362 247.043 481.091 247.811 481.609 248.876C482.147 249.92 482.455 251.305 482.533 253.031L482.571 253.862L478.99 254.024ZM497.11 268.197C496.598 268.22 496.018 268.15 495.37 267.987C494.744 267.823 494.136 267.605 493.547 267.332L494.758 264.363C495.172 264.536 495.551 264.669 495.897 264.76C496.244 264.872 496.524 264.924 496.737 264.914C497.248 264.891 497.668 264.733 497.997 264.441C498.348 264.169 498.618 263.772 498.808 263.251L500.495 258.754L505.288 245.02L509.188 244.844L502.57 262.857C502.169 263.9 501.751 264.816 501.317 265.604C500.904 266.391 500.366 267.003 499.702 267.439C499.039 267.896 498.175 268.148 497.11 268.197ZM499.648 261.291L491.766 245.631L495.666 245.455L501.836 258.662L503.101 261.135L499.648 261.291ZM518.974 260.802C517.375 260.875 515.932 260.587 514.643 259.941C513.374 259.272 512.359 258.325 511.599 257.099C510.839 255.874 510.422 254.44 510.348 252.799C510.274 251.158 510.549 249.694 511.175 248.406C511.821 247.117 512.746 246.092 513.951 245.333C515.154 244.553 516.555 244.127 518.153 244.054C519.752 243.982 521.185 244.28 522.454 244.949C523.722 245.597 524.725 246.534 525.464 247.76C526.224 248.986 526.641 250.419 526.715 252.06C526.789 253.701 526.514 255.166 525.889 256.454C525.264 257.742 524.349 258.776 523.146 259.557C521.942 260.316 520.551 260.731 518.974 260.802ZM518.825 257.51C519.699 257.47 520.467 257.222 521.13 256.765C521.792 256.287 522.297 255.666 522.647 254.903C522.996 254.118 523.148 253.225 523.103 252.223C523.058 251.222 522.816 250.357 522.377 249.629C521.959 248.88 521.399 248.307 520.698 247.911C519.996 247.495 519.197 247.307 518.302 247.347C517.407 247.387 516.628 247.636 515.965 248.093C515.303 248.55 514.797 249.171 514.448 249.956C514.099 250.74 513.947 251.633 513.992 252.635C514.037 253.636 514.269 254.512 514.687 255.262C515.126 255.99 515.696 256.562 516.399 256.979C517.121 257.373 517.93 257.55 518.825 257.51ZM540.888 259.428L540.563 256.496L539.974 243.453L543.522 243.293L544.244 259.276L540.888 259.428ZM529.475 252.128L529.105 243.944L532.686 243.782L533.055 251.966L529.475 252.128ZM533.055 251.966C533.112 253.223 533.305 254.197 533.636 254.887C533.966 255.577 534.393 256.048 534.917 256.302C535.462 256.555 536.076 256.666 536.758 256.636C537.973 256.602 538.893 256.165 539.517 255.326C540.141 254.486 540.419 253.31 540.351 251.797L541.694 251.736C541.77 253.42 541.579 254.88 541.123 256.118C540.687 257.334 540.025 258.282 539.137 258.963C538.27 259.621 537.197 259.979 535.918 260.037C534.661 260.094 533.562 259.887 532.623 259.417C531.705 258.946 530.976 258.178 530.437 257.113C529.898 256.049 529.589 254.664 529.512 252.959L529.475 252.128L533.055 251.966ZM550.204 250.487C550.126 248.76 550.393 247.328 551.003 246.19C551.614 245.052 552.429 244.193 553.45 243.613C554.49 243.011 555.586 242.684 556.737 242.632L556.891 246.052C555.911 246.097 554.99 246.277 554.129 246.594C553.288 246.888 552.614 247.345 552.109 247.966C551.603 248.587 551.372 249.387 551.416 250.368L550.204 250.487ZM548.223 259.097L547.501 243.113L551.081 242.951L551.803 258.935L548.223 259.097ZM127.335 316.532C125.779 316.602 124.378 316.313 123.131 315.665C121.905 314.994 120.912 314.046 120.152 312.821C119.413 311.594 119.007 310.16 118.932 308.519C118.858 306.878 119.144 305.413 119.791 304.124C120.437 302.835 121.352 301.811 122.535 301.053C123.738 300.273 125.129 299.847 126.706 299.775C128.134 299.711 129.44 300.026 130.624 300.72C131.808 301.392 132.761 302.406 133.485 303.762C134.229 305.116 134.645 306.752 134.731 308.67L122.168 309.238L122.627 308.769C122.672 309.749 122.923 310.592 123.382 311.297C123.84 311.981 124.43 312.499 125.15 312.851C125.871 313.203 126.657 313.36 127.51 313.321C128.49 313.277 129.29 313.027 129.91 312.572C130.53 312.095 131.004 311.497 131.335 310.778L134.56 311.977C134.151 312.85 133.61 313.622 132.935 314.293C132.282 314.963 131.484 315.491 130.54 315.875C129.618 316.258 128.549 316.477 127.335 316.532ZM122.767 306.904L122.236 306.48L131.251 306.073L130.791 306.542C130.752 305.668 130.528 304.963 130.119 304.426C129.709 303.868 129.2 303.464 128.591 303.214C128.002 302.942 127.388 302.82 126.748 302.849C126.109 302.878 125.476 303.056 124.851 303.383C124.224 303.689 123.71 304.139 123.31 304.734C122.909 305.307 122.728 306.031 122.767 306.904ZM135.727 315.769L141.868 306.33L146.13 299.282L150.35 299.092L144.515 308.196L140.011 315.575L135.727 315.769ZM147.204 315.25L142.149 308.303L135.421 299.766L139.641 299.576L144.553 306.209L151.455 315.058L147.204 315.25ZM154.197 321.341L153.186 298.964L156.542 298.812L156.899 301.743L157.777 321.179L154.197 321.341ZM162.556 314.941C161.214 315.002 160.037 314.713 159.026 314.076C158.035 313.416 157.255 312.469 156.687 311.234C156.119 310 155.797 308.541 155.721 306.857C155.644 305.152 155.833 303.67 156.289 302.411C156.743 301.131 157.435 300.128 158.363 299.403C159.311 298.655 160.457 298.251 161.8 298.19C163.249 298.125 164.522 298.42 165.619 299.075C166.737 299.708 167.623 300.639 168.276 301.87C168.95 303.078 169.326 304.534 169.403 306.239C169.479 307.923 169.236 309.407 168.675 310.693C168.135 311.977 167.337 312.995 166.282 313.748C165.248 314.478 164.006 314.876 162.556 314.941ZM161.514 311.721C162.366 311.682 163.113 311.435 163.755 310.979C164.395 310.502 164.89 309.871 165.239 309.086C165.609 308.301 165.772 307.407 165.726 306.405C165.681 305.404 165.449 304.528 165.031 303.778C164.634 303.027 164.096 302.454 163.416 302.057C162.736 301.661 161.959 301.482 161.085 301.522C160.275 301.558 159.56 301.804 158.94 302.259C158.32 302.715 157.846 303.334 157.519 304.117C157.212 304.9 157.082 305.792 157.127 306.794C157.172 307.795 157.383 308.672 157.759 309.424C158.155 310.175 158.673 310.76 159.311 311.18C159.97 311.577 160.704 311.757 161.514 311.721ZM179.968 314.155C178.413 314.225 177.011 313.936 175.765 313.287C174.539 312.617 173.546 311.669 172.786 310.443C172.047 309.216 171.64 307.783 171.566 306.142C171.492 304.501 171.778 303.036 172.425 301.746C173.071 300.457 173.986 299.434 175.169 298.675C176.372 297.895 177.762 297.469 179.34 297.398C180.767 297.333 182.074 297.648 183.258 298.342C184.442 299.015 185.395 300.029 186.118 301.384C186.863 302.739 187.278 304.375 187.365 306.293L174.802 306.86L175.261 306.391C175.306 307.371 175.557 308.214 176.016 308.92C176.474 309.604 177.063 310.122 177.784 310.473C178.505 310.825 179.291 310.982 180.144 310.943C181.124 310.899 181.924 310.649 182.544 310.194C183.163 309.718 183.638 309.12 183.969 308.4L187.194 309.6C186.785 310.473 186.243 311.244 185.569 311.916C184.916 312.586 184.118 313.113 183.174 313.497C182.252 313.881 181.183 314.1 179.968 314.155ZM175.401 304.527L174.87 304.102L183.884 303.695L183.425 304.164C183.386 303.291 183.162 302.585 182.753 302.049C182.343 301.491 181.834 301.086 181.225 300.836C180.636 300.564 180.022 300.442 179.382 300.471C178.743 300.5 178.11 300.678 177.484 301.005C176.858 301.311 176.344 301.762 175.944 302.356C175.543 302.93 175.362 303.653 175.401 304.527ZM192.411 304.687C192.333 302.961 192.599 301.529 193.21 300.391C193.82 299.253 194.636 298.394 195.656 297.814C196.697 297.212 197.792 296.885 198.943 296.833L199.098 300.253C198.117 300.298 197.196 300.478 196.335 300.794C195.494 301.089 194.821 301.546 194.315 302.167C193.809 302.788 193.578 303.588 193.623 304.569L192.411 304.687ZM190.429 313.298L189.707 297.314L193.288 297.152L194.01 313.136L190.429 313.298ZM202.266 312.763L201.544 296.779L205.093 296.619L205.815 312.603L202.266 312.763ZM203.197 293.662C202.622 293.688 202.112 293.508 201.667 293.122C201.243 292.714 201.018 292.222 200.992 291.647C200.966 291.072 201.146 290.572 201.533 290.149C201.941 289.725 202.433 289.5 203.008 289.474C203.583 289.448 204.083 289.628 204.506 290.015C204.951 290.4 205.186 290.881 205.212 291.456C205.238 292.032 205.047 292.542 204.64 292.988C204.254 293.411 203.773 293.636 203.197 293.662ZM217.18 312.474C215.625 312.544 214.224 312.255 212.977 311.606C211.751 310.936 210.758 309.988 209.998 308.762C209.259 307.535 208.852 306.102 208.778 304.461C208.704 302.82 208.99 301.355 209.637 300.065C210.283 298.776 211.198 297.753 212.381 296.994C213.584 296.214 214.975 295.788 216.552 295.717C217.979 295.652 219.286 295.967 220.47 296.661C221.654 297.334 222.607 298.348 223.33 299.703C224.075 301.058 224.491 302.694 224.577 304.612L212.014 305.179L212.473 304.71C212.518 305.691 212.769 306.533 213.228 307.239C213.686 307.923 214.275 308.441 214.996 308.792C215.717 309.144 216.503 309.301 217.356 309.262C218.336 309.218 219.136 308.969 219.756 308.513C220.375 308.037 220.85 307.439 221.181 306.719L224.406 307.919C223.997 308.792 223.455 309.564 222.781 310.235C222.128 310.905 221.33 311.432 220.386 311.816C219.464 312.2 218.395 312.419 217.18 312.474ZM212.613 302.846L212.082 302.422L221.096 302.014L220.637 302.484C220.598 301.61 220.374 300.904 219.965 300.368C219.555 299.81 219.046 299.406 218.437 299.155C217.848 298.883 217.234 298.761 216.594 298.79C215.955 298.819 215.322 298.997 214.697 299.324C214.07 299.63 213.556 300.081 213.156 300.675C212.755 301.249 212.574 301.972 212.613 302.846ZM227.641 311.617L226.919 295.633L230.276 295.481L230.633 298.412L231.222 311.455L227.641 311.617ZM238.478 311.127L238.109 302.944L241.689 302.782L242.059 310.965L238.478 311.127ZM238.109 302.944C238.051 301.665 237.857 300.691 237.528 300.023C237.219 299.332 236.792 298.86 236.247 298.607C235.723 298.353 235.109 298.242 234.406 298.274C233.212 298.306 232.303 298.743 231.678 299.582C231.054 300.422 230.776 301.598 230.845 303.112L229.502 303.172C229.426 301.489 229.606 300.039 230.043 298.823C230.478 297.586 231.14 296.638 232.028 295.979C232.916 295.298 233.988 294.929 235.246 294.873C236.524 294.815 237.623 295.021 238.541 295.492C239.48 295.963 240.209 296.73 240.727 297.796C241.265 298.84 241.573 300.224 241.651 301.951L241.689 302.782L238.109 302.944ZM253.183 310.847C251.542 310.921 250.077 310.635 248.788 309.989C247.498 309.321 246.462 308.375 245.681 307.15C244.921 305.925 244.504 304.491 244.429 302.85C244.355 301.209 244.641 299.744 245.288 298.455C245.956 297.165 246.892 296.14 248.096 295.381C249.321 294.6 250.743 294.173 252.363 294.099C253.94 294.028 255.385 294.347 256.698 295.057C258.011 295.745 259.008 296.778 259.689 298.157L256.422 299.586C256.05 298.898 255.502 298.357 254.779 297.962C254.057 297.568 253.248 297.391 252.353 297.431C251.479 297.471 250.711 297.73 250.05 298.208C249.387 298.665 248.881 299.286 248.532 300.07C248.182 300.834 248.029 301.705 248.074 302.686C248.118 303.666 248.349 304.531 248.768 305.281C249.206 306.009 249.777 306.581 250.479 306.997C251.201 307.392 251.999 307.569 252.873 307.53C253.768 307.49 254.557 307.23 255.24 306.75C255.923 306.25 256.416 305.597 256.722 304.794L260.104 305.922C259.551 307.399 258.654 308.572 257.412 309.439C256.191 310.306 254.782 310.775 253.183 310.847ZM270.22 310.078C268.664 310.148 267.263 309.859 266.017 309.211C264.79 308.54 263.797 307.592 263.037 306.366C262.298 305.14 261.892 303.706 261.818 302.065C261.744 300.424 262.03 298.959 262.676 297.67C263.323 296.38 264.238 295.357 265.421 294.599C266.624 293.818 268.014 293.392 269.591 293.321C271.019 293.257 272.325 293.571 273.51 294.265C274.693 294.938 275.647 295.952 276.37 297.307C277.115 298.662 277.53 300.298 277.617 302.216L265.054 302.783L265.513 302.314C265.557 303.295 265.809 304.137 266.268 304.843C266.726 305.527 267.315 306.045 268.036 306.397C268.756 306.748 269.543 306.905 270.395 306.867C271.376 306.822 272.176 306.573 272.796 306.118C273.415 305.641 273.89 305.043 274.22 304.323L277.446 305.523C277.037 306.396 276.495 307.168 275.821 307.839C275.168 308.509 274.369 309.036 273.426 309.42C272.503 309.804 271.435 310.023 270.22 310.078ZM265.653 300.45L265.121 300.026L274.136 299.618L273.677 300.088C273.637 299.214 273.413 298.509 273.005 297.972C272.595 297.414 272.086 297.01 271.476 296.76C270.887 296.487 270.273 296.365 269.634 296.394C268.995 296.423 268.362 296.601 267.736 296.928C267.109 297.234 266.596 297.685 266.196 298.279C265.794 298.853 265.613 299.576 265.653 300.45ZM303.193 308.204L307.809 291.979L311.422 291.816L306.709 308.045L303.193 308.204ZM292.484 308.688L296.972 292.469L300.137 292.326L295.712 308.542L292.484 308.688ZM292.164 308.702L286.008 292.964L289.62 292.801L295.553 308.549L292.164 308.702ZM303.161 308.205L297.324 292.453L300.489 292.31L306.422 308.058L303.161 308.205ZM314.683 307.685L313.961 291.701L317.509 291.541L318.231 307.525L314.683 307.685ZM315.614 288.583C315.038 288.609 314.528 288.43 314.084 288.044C313.66 287.636 313.435 287.144 313.409 286.569C313.383 285.993 313.563 285.494 313.95 285.071C314.358 284.647 314.849 284.422 315.425 284.396C316 284.37 316.499 284.55 316.923 284.937C317.367 285.322 317.602 285.803 317.628 286.378C317.654 286.954 317.464 287.464 317.057 287.91C316.67 288.333 316.189 288.557 315.614 288.583ZM328.83 307.43C327.146 307.506 325.838 307.149 324.905 306.358C323.993 305.545 323.501 304.35 323.43 302.773L322.686 286.31L326.235 286.15L326.948 301.942C326.982 302.687 327.178 303.245 327.536 303.613C327.916 303.98 328.447 304.148 329.129 304.117C329.342 304.108 329.574 304.055 329.826 303.958C330.078 303.861 330.358 303.688 330.668 303.439L332.101 306.097C331.564 306.506 331.023 306.819 330.478 307.036C329.933 307.274 329.384 307.405 328.83 307.43ZM320.397 294.486L320.258 291.417L330.776 290.942L330.914 294.011L320.397 294.486ZM335.033 306.766L334.022 284.389L337.602 284.227L338.613 306.604L335.033 306.766ZM345.87 306.276L345.5 298.093L349.08 297.931L349.45 306.114L345.87 306.276ZM345.5 298.093C345.442 296.814 345.249 295.84 344.92 295.172C344.589 294.482 344.152 294.011 343.606 293.758C343.082 293.504 342.479 293.392 341.797 293.423C340.582 293.456 339.662 293.893 339.038 294.733C338.435 295.571 338.168 296.747 338.236 298.26L336.861 298.323C336.785 296.639 336.966 295.189 337.402 293.974C337.858 292.736 338.531 291.787 339.419 291.128C340.307 290.447 341.379 290.078 342.637 290.021C343.894 289.965 344.993 290.171 345.932 290.641C346.872 291.111 347.6 291.879 348.118 292.945C348.657 293.989 348.965 295.373 349.043 297.1L349.08 297.931L345.5 298.093ZM371.496 305.119L371.171 302.186L370.582 289.144L374.131 288.983L374.853 304.967L371.496 305.119ZM360.083 297.818L359.713 289.635L363.294 289.473L363.663 297.656L360.083 297.818ZM363.663 297.656C363.72 298.914 363.913 299.887 364.244 300.577C364.574 301.267 365.001 301.739 365.525 301.993C366.07 302.246 366.684 302.357 367.366 302.326C368.581 302.293 369.501 301.856 370.125 301.016C370.75 300.177 371.027 299 370.959 297.487L372.302 297.426C372.378 299.11 372.187 300.571 371.731 301.809C371.295 303.024 370.633 303.972 369.745 304.653C368.878 305.312 367.805 305.67 366.526 305.727C365.269 305.784 364.171 305.578 363.231 305.108C362.313 304.636 361.584 303.869 361.045 302.804C360.506 301.739 360.197 300.354 360.12 298.649L360.083 297.818L363.663 297.656ZM384.666 304.908C383.601 304.956 382.613 304.841 381.704 304.561C380.794 304.282 380.007 303.869 379.341 303.323C378.675 302.755 378.154 302.084 377.777 301.311L380.816 299.797C381.162 300.379 381.654 300.859 382.29 301.236C382.948 301.612 383.66 301.782 384.427 301.748C385.259 301.71 385.913 301.542 386.391 301.242C386.889 300.921 387.126 300.505 387.103 299.993C387.081 299.503 386.872 299.139 386.477 298.9C386.081 298.64 385.527 298.441 384.816 298.303L383.295 297.955C381.765 297.64 380.555 297.086 379.664 296.293C378.774 295.479 378.303 294.529 378.254 293.442C378.182 291.843 378.638 290.584 379.621 289.664C380.626 288.743 382.098 288.239 384.038 288.151C385.018 288.107 385.92 288.216 386.743 288.478C387.587 288.717 388.319 289.09 388.94 289.596C389.56 290.08 390.003 290.669 390.269 291.361L387.356 292.838C387.119 292.315 386.696 291.929 386.087 291.678C385.477 291.407 384.809 291.288 384.085 291.32C383.36 291.353 382.802 291.539 382.412 291.876C382.021 292.193 381.837 292.629 381.862 293.183C381.877 293.502 382.071 293.792 382.446 294.053C382.82 294.293 383.352 294.482 384.042 294.622L385.948 294.984C387.004 295.193 387.874 295.559 388.56 296.083C389.245 296.586 389.762 297.172 390.113 297.839C390.462 298.485 390.653 299.149 390.683 299.831C390.727 300.79 390.488 301.645 389.966 302.394C389.466 303.143 388.757 303.741 387.837 304.188C386.917 304.614 385.86 304.854 384.666 304.908ZM392.961 307.833L394.551 300.489L398.323 300.319L395.774 307.706L392.961 307.833ZM424.07 302.744L428.686 286.519L432.298 286.356L427.586 302.585L424.07 302.744ZM413.36 303.227L417.849 287.008L421.014 286.865L416.589 303.082L413.36 303.227ZM413.041 303.242L406.884 287.504L410.497 287.341L416.429 303.089L413.041 303.242ZM424.038 302.745L418.201 286.993L421.366 286.85L427.298 302.598L424.038 302.745ZM435.368 302.233L434.357 279.856L437.937 279.694L438.948 302.072L435.368 302.233ZM446.205 301.744L445.835 293.56L449.415 293.398L449.785 301.582L446.205 301.744ZM445.835 293.56C445.777 292.281 445.584 291.308 445.255 290.639C444.925 289.95 444.487 289.478 443.942 289.225C443.418 288.971 442.815 288.86 442.133 288.891C440.917 288.924 439.997 289.361 439.373 290.2C438.77 291.039 438.503 292.215 438.571 293.728L437.197 293.79C437.121 292.107 437.301 290.657 437.737 289.441C438.194 288.204 438.866 287.255 439.755 286.595C440.642 285.915 441.715 285.546 442.972 285.489C444.229 285.432 445.328 285.639 446.267 286.109C447.207 286.579 447.936 287.347 448.453 288.413C448.992 289.456 449.3 290.841 449.378 292.567L449.415 293.398L445.835 293.56ZM463.161 300.978L462.866 297.98L462.63 292.769C462.581 291.683 462.423 290.782 462.156 290.068C461.909 289.332 461.521 288.783 460.992 288.423C460.484 288.04 459.814 287.868 458.983 287.905C458.216 287.94 457.552 288.13 456.991 288.476C456.43 288.821 455.962 289.344 455.588 290.044L452.403 289.035C452.713 288.316 453.131 287.646 453.658 287.025C454.205 286.38 454.897 285.858 455.733 285.457C456.591 285.056 457.627 284.827 458.842 284.772C460.397 284.702 461.711 284.952 462.783 285.523C463.855 286.073 464.661 286.901 465.202 288.009C465.765 289.115 466.082 290.467 466.154 292.066L466.454 300.829L463.161 300.978ZM458.575 301.569C456.657 301.656 455.146 301.297 454.042 300.493C452.959 299.688 452.383 298.507 452.312 296.951C452.237 295.289 452.734 293.996 453.803 293.072C454.893 292.147 456.44 291.64 458.443 291.549L462.727 291.356L462.851 294.105L459.718 294.246C458.29 294.311 457.298 294.559 456.74 294.99C456.182 295.399 455.92 295.966 455.952 296.691C455.98 297.309 456.248 297.788 456.754 298.128C457.281 298.446 457.992 298.585 458.887 298.544C459.697 298.508 460.392 298.295 460.972 297.906C461.553 297.516 461.989 297.016 462.282 296.405C462.596 295.793 462.736 295.114 462.702 294.368L463.757 294.32C463.856 296.494 463.496 298.229 462.679 299.526C461.861 300.802 460.493 301.483 458.575 301.569ZM476.554 300.757C474.871 300.833 473.562 300.476 472.63 299.685C471.717 298.872 471.226 297.677 471.154 296.1L470.411 279.637L473.959 279.477L474.673 295.269C474.706 296.015 474.902 296.572 475.261 296.94C475.64 297.307 476.171 297.475 476.853 297.444C477.066 297.435 477.299 297.382 477.55 297.285C477.802 297.188 478.083 297.015 478.392 296.766L479.825 299.424C479.289 299.833 478.747 300.146 478.202 300.363C477.658 300.601 477.108 300.732 476.554 300.757ZM468.121 287.813L467.983 284.744L478.5 284.269L478.639 287.338L468.121 287.813ZM501.976 299.225L501.682 296.259L500.805 276.855L504.354 276.694L505.365 299.071L501.976 299.225ZM496.783 299.844C495.334 299.909 494.05 299.625 492.932 298.992C491.835 298.337 490.949 297.395 490.274 296.165C489.621 294.935 489.256 293.478 489.18 291.794C489.103 290.089 489.335 288.606 489.876 287.342C490.437 286.057 491.235 285.049 492.27 284.319C493.325 283.567 494.577 283.158 496.026 283.093C497.369 283.032 498.535 283.332 499.526 283.992C500.537 284.629 501.327 285.565 501.895 286.8C502.463 288.013 502.785 289.471 502.862 291.176C502.938 292.86 502.749 294.342 502.294 295.623C501.839 296.903 501.138 297.917 500.189 298.665C499.261 299.39 498.125 299.783 496.783 299.844ZM497.531 296.542C498.34 296.506 499.045 296.26 499.643 295.806C500.263 295.33 500.725 294.7 501.032 293.918C501.359 293.134 501.501 292.242 501.455 291.24C501.41 290.238 501.189 289.362 500.792 288.611C500.416 287.859 499.899 287.285 499.241 286.887C498.603 286.489 497.869 286.309 497.038 286.346C496.185 286.385 495.439 286.632 494.797 287.088C494.156 287.544 493.661 288.165 493.312 288.949C492.984 289.733 492.832 290.626 492.856 291.628C492.923 292.629 493.154 293.505 493.551 294.256C493.97 295.006 494.519 295.589 495.2 296.007C495.901 296.402 496.678 296.581 497.531 296.542ZM516.693 298.944C515.094 299.016 513.651 298.729 512.361 298.083C511.093 297.414 510.078 296.467 509.318 295.241C508.558 294.016 508.141 292.582 508.067 290.941C507.993 289.3 508.268 287.836 508.893 286.547C509.54 285.258 510.465 284.234 511.67 283.475C512.873 282.695 514.274 282.268 515.872 282.196C517.47 282.124 518.904 282.422 520.173 283.091C521.441 283.738 522.444 284.675 523.183 285.902C523.943 287.128 524.36 288.561 524.434 290.202C524.508 291.843 524.233 293.308 523.608 294.596C522.982 295.884 522.068 296.918 520.865 297.699C519.66 298.458 518.27 298.873 516.693 298.944ZM516.544 295.652C517.418 295.612 518.186 295.364 518.849 294.907C519.51 294.428 520.016 293.808 520.366 293.044C520.715 292.26 520.867 291.367 520.822 290.365C520.777 289.363 520.535 288.499 520.096 287.771C519.678 287.021 519.118 286.449 518.417 286.053C517.715 285.636 516.916 285.448 516.021 285.489C515.126 285.529 514.347 285.778 513.684 286.235C513.021 286.692 512.516 287.313 512.167 288.097C511.818 288.882 511.666 289.775 511.711 290.777C511.756 291.778 511.988 292.654 512.406 293.404C512.845 294.132 513.415 294.704 514.118 295.12C514.84 295.515 515.649 295.692 516.544 295.652ZM545.359 297.265L545.063 294.267L544.828 289.056C544.779 287.97 544.62 287.069 544.353 286.355C544.106 285.619 543.719 285.07 543.19 284.71C542.681 284.327 542.012 284.155 541.18 284.192C540.413 284.227 539.749 284.417 539.188 284.763C538.627 285.108 538.16 285.631 537.786 286.331L534.601 285.322C534.91 284.603 535.328 283.933 535.855 283.312C536.403 282.667 537.095 282.145 537.931 281.744C538.788 281.342 539.824 281.114 541.039 281.059C542.595 280.989 543.909 281.239 544.981 281.81C546.052 282.36 546.858 283.188 547.399 284.296C547.962 285.402 548.279 286.754 548.352 288.353L548.651 297.116L545.359 297.265ZM540.773 297.856C538.855 297.943 537.344 297.584 536.239 296.78C535.157 295.975 534.58 294.794 534.51 293.238C534.435 291.576 534.932 290.283 536 289.359C537.09 288.434 538.637 287.927 540.64 287.836L544.924 287.643L545.048 290.392L541.915 290.533C540.487 290.598 539.495 290.846 538.938 291.277C538.38 291.686 538.117 292.253 538.15 292.978C538.178 293.596 538.445 294.075 538.952 294.415C539.478 294.733 540.189 294.872 541.084 294.831C541.894 294.795 542.589 294.582 543.17 294.193C543.75 293.803 544.187 293.303 544.479 292.692C544.793 292.08 544.934 291.401 544.9 290.655L545.955 290.607C546.053 292.781 545.694 294.516 544.877 295.813C544.059 297.089 542.691 297.77 540.773 297.856ZM552.373 296.948L551.651 280.964L555.007 280.813L555.364 283.744L555.953 296.786L552.373 296.948ZM563.21 296.459L562.84 288.275L566.42 288.113L566.79 296.297L563.21 296.459ZM562.84 288.275C562.782 286.996 562.589 286.023 562.26 285.354C561.951 284.663 561.524 284.191 560.978 283.938C560.454 283.685 559.841 283.573 559.138 283.605C557.943 283.638 557.034 284.074 556.41 284.914C555.786 285.753 555.508 286.93 555.576 288.443L554.234 288.503C554.158 286.82 554.338 285.37 554.774 284.155C555.209 282.918 555.871 281.97 556.76 281.31C557.647 280.629 558.719 280.261 559.977 280.204C561.256 280.146 562.354 280.353 563.272 280.824C564.212 281.294 564.94 282.062 565.458 283.127C565.997 284.171 566.305 285.556 566.383 287.282L566.42 288.113L562.84 288.275ZM581.957 295.612L581.663 292.646L580.786 273.242L584.335 273.081L585.346 295.459L581.957 295.612ZM576.764 296.231C575.315 296.296 574.031 296.012 572.913 295.38C571.816 294.724 570.93 293.782 570.255 292.553C569.602 291.322 569.237 289.865 569.161 288.182C569.084 286.477 569.316 284.993 569.857 283.73C570.418 282.444 571.216 281.437 572.251 280.706C573.306 279.954 574.558 279.545 576.007 279.48C577.35 279.419 578.516 279.719 579.507 280.379C580.518 281.016 581.308 281.952 581.876 283.187C582.444 284.4 582.766 285.859 582.843 287.563C582.919 289.247 582.73 290.729 582.275 292.01C581.82 293.29 581.119 294.304 580.17 295.052C579.242 295.777 578.106 296.17 576.764 296.231ZM577.511 292.93C578.321 292.893 579.026 292.648 579.624 292.193C580.244 291.717 580.706 291.087 581.013 290.305C581.34 289.521 581.481 288.629 581.436 287.627C581.391 286.625 581.17 285.749 580.773 284.998C580.397 284.246 579.88 283.672 579.222 283.275C578.584 282.876 577.85 282.696 577.019 282.733C576.166 282.772 575.419 283.019 574.778 283.475C574.137 283.931 573.641 284.552 573.293 285.336C572.965 286.12 572.813 287.013 572.837 288.015C572.904 289.016 573.135 289.892 573.532 290.643C573.951 291.393 574.5 291.976 575.181 292.394C575.882 292.79 576.659 292.968 577.511 292.93ZM608.555 294.41L608.261 291.444L607.384 272.04L610.933 271.88L611.943 294.257L608.555 294.41ZM603.362 295.029C601.912 295.095 600.629 294.811 599.511 294.178C598.414 293.523 597.528 292.581 596.853 291.351C596.199 290.121 595.835 288.664 595.759 286.98C595.682 285.275 595.914 283.791 596.454 282.528C597.016 281.243 597.814 280.235 598.848 279.505C599.904 278.753 601.156 278.344 602.605 278.278C603.948 278.218 605.114 278.517 606.105 279.177C607.116 279.815 607.906 280.751 608.474 281.985C609.041 283.198 609.364 284.657 609.441 286.362C609.517 288.046 609.327 289.528 608.873 290.808C608.418 292.089 607.716 293.103 606.768 293.85C605.84 294.576 604.704 294.969 603.362 295.029ZM604.109 291.728C604.919 291.691 605.624 291.446 606.222 290.992C606.841 290.516 607.304 289.886 607.611 289.103C607.938 288.32 608.079 287.427 608.034 286.426C607.989 285.424 607.768 284.548 607.371 283.797C606.995 283.045 606.478 282.47 605.819 282.073C605.182 281.675 604.448 281.494 603.617 281.532C602.764 281.57 602.017 281.818 601.376 282.274C600.735 282.73 600.239 283.35 599.89 284.135C599.563 284.918 599.411 285.811 599.435 286.814C599.501 287.815 599.733 288.69 600.13 289.441C600.548 290.191 601.098 290.775 601.779 291.193C602.48 291.588 603.257 291.767 604.109 291.728ZM623.272 294.13C621.673 294.202 620.229 293.915 618.94 293.268C617.671 292.6 616.657 291.652 615.897 290.427C615.137 289.201 614.72 287.768 614.646 286.127C614.571 284.486 614.847 283.021 615.472 281.733C616.119 280.444 617.044 279.42 618.248 278.661C619.452 277.88 620.853 277.454 622.451 277.382C624.049 277.31 625.483 277.608 626.752 278.277C628.02 278.924 629.023 279.861 629.762 281.088C630.522 282.313 630.939 283.747 631.013 285.388C631.087 287.029 630.812 288.493 630.186 289.781C629.561 291.07 628.647 292.104 627.444 292.884C626.239 293.643 624.849 294.059 623.272 294.13ZM623.123 290.837C623.997 290.798 624.765 290.549 625.428 290.092C626.089 289.614 626.595 288.993 626.945 288.23C627.294 287.445 627.446 286.552 627.401 285.551C627.355 284.549 627.113 283.684 626.675 282.957C626.257 282.207 625.697 281.634 624.996 281.239C624.293 280.822 623.495 280.634 622.6 280.674C621.705 280.715 620.926 280.964 620.263 281.421C619.6 281.878 619.094 282.498 618.745 283.283C618.396 284.068 618.245 284.961 618.29 285.962C618.335 286.964 618.567 287.84 618.985 288.59C619.424 289.317 619.994 289.889 620.696 290.306C621.419 290.701 622.228 290.878 623.123 290.837ZM634.477 293.239L633.754 277.256L637.111 277.104L637.468 280.035L638.057 293.078L634.477 293.239ZM645.313 292.75L644.944 284.566L648.524 284.404L648.894 292.588L645.313 292.75ZM644.944 284.566C644.886 283.287 644.693 282.314 644.363 281.645C644.055 280.955 643.628 280.483 643.082 280.23C642.558 279.976 641.945 279.865 641.241 279.896C640.047 279.929 639.138 280.365 638.514 281.205C637.889 282.045 637.612 283.221 637.68 284.734L636.337 284.795C636.261 283.111 636.441 281.661 636.878 280.446C637.313 279.209 637.975 278.261 638.863 277.601C639.751 276.921 640.823 276.552 642.081 276.495C643.359 276.437 644.458 276.644 645.376 277.115C646.315 277.585 647.044 278.353 647.562 279.419C648.1 280.462 648.409 281.847 648.487 283.573L648.524 284.404L644.944 284.566ZM650.303 277.373L651.893 270.03L655.666 269.859L653.116 277.246L650.303 277.373ZM665.424 292.226C663.74 292.302 662.432 291.944 661.5 291.154C660.587 290.341 660.096 289.146 660.024 287.569L659.281 271.105L662.829 270.945L663.542 286.737C663.576 287.483 663.772 288.04 664.13 288.408C664.51 288.775 665.041 288.944 665.723 288.913C665.936 288.903 666.168 288.85 666.42 288.753C666.672 288.656 666.953 288.484 667.262 288.235L668.695 290.893C668.158 291.301 667.617 291.614 667.072 291.831C666.527 292.069 665.978 292.201 665.424 292.226ZM656.991 279.281L656.853 276.212L667.37 275.737L667.509 278.806L656.991 279.281ZM124.735 361.095C124.223 361.118 123.644 361.048 122.996 360.885C122.369 360.721 121.761 360.503 121.172 360.231L122.383 357.261C122.797 357.435 123.177 357.567 123.522 357.658C123.869 357.771 124.149 357.822 124.362 357.812C124.874 357.789 125.294 357.631 125.622 357.339C125.973 357.067 126.243 356.67 126.433 356.149L128.12 351.653L132.913 337.918L136.813 337.742L130.195 355.755C129.794 356.798 129.376 357.714 128.942 358.502C128.529 359.29 127.991 359.901 127.327 360.337C126.665 360.794 125.8 361.047 124.735 361.095ZM127.274 354.189L119.391 338.529L123.291 338.353L129.461 351.56L130.726 354.033L127.274 354.189ZM146.599 353.701C145.001 353.773 143.557 353.486 142.268 352.839C140.999 352.171 139.985 351.223 139.225 349.998C138.464 348.772 138.047 347.339 137.973 345.698C137.899 344.057 138.175 342.592 138.8 341.304C139.446 340.015 140.372 338.991 141.576 338.232C142.779 337.451 144.18 337.025 145.779 336.953C147.377 336.88 148.811 337.179 150.079 337.848C151.347 338.495 152.35 339.432 153.089 340.659C153.849 341.884 154.266 343.317 154.341 344.958C154.415 346.599 154.139 348.064 153.514 349.352C152.889 350.64 151.975 351.675 150.771 352.455C149.567 353.214 148.176 353.629 146.599 353.701ZM146.45 350.408C147.324 350.369 148.092 350.12 148.755 349.663C149.417 349.185 149.923 348.564 150.273 347.801C150.622 347.016 150.773 346.123 150.728 345.122C150.683 344.12 150.441 343.255 150.002 342.528C149.584 341.778 149.024 341.205 148.323 340.81C147.621 340.393 146.822 340.205 145.927 340.245C145.032 340.286 144.253 340.534 143.591 340.992C142.928 341.449 142.422 342.069 142.073 342.854C141.724 343.638 141.572 344.532 141.618 345.533C141.663 346.535 141.895 347.411 142.313 348.16C142.751 348.888 143.322 349.46 144.024 349.877C144.747 350.271 145.555 350.448 146.45 350.408ZM168.513 352.326L168.189 349.394L167.599 336.351L171.148 336.191L171.87 352.175L168.513 352.326ZM157.1 345.026L156.73 336.842L160.311 336.681L160.681 344.864L157.1 345.026ZM160.681 344.864C160.737 346.122 160.931 347.095 161.261 347.785C161.591 348.475 162.018 348.947 162.542 349.201C163.087 349.454 163.701 349.565 164.383 349.534C165.599 349.5 166.519 349.064 167.143 348.224C167.767 347.384 168.045 346.208 167.976 344.695L169.319 344.634C169.395 346.318 169.205 347.779 168.748 349.016C168.312 350.232 167.65 351.18 166.762 351.861C165.895 352.519 164.822 352.878 163.544 352.935C162.286 352.992 161.188 352.785 160.248 352.315C159.33 351.844 158.601 351.076 158.062 350.012C157.523 348.947 157.215 347.562 157.138 345.857L157.1 345.026L160.681 344.864ZM183.559 351.647L182.548 329.27L186.129 329.108L187.139 351.485L183.559 351.647ZM191.338 351.295L190.616 335.312L194.164 335.151L194.886 351.135L191.338 351.295ZM192.269 332.194C191.693 332.22 191.183 332.04 190.739 331.654C190.315 331.246 190.09 330.755 190.064 330.179C190.038 329.604 190.218 329.105 190.604 328.681C191.012 328.257 191.504 328.032 192.08 328.006C192.655 327.98 193.154 328.161 193.577 328.547C194.022 328.933 194.257 329.413 194.283 329.989C194.309 330.564 194.119 331.075 193.712 331.52C193.325 331.943 192.844 332.168 192.269 332.194ZM202.324 346.315L200.039 343.951L207.942 334.529L212.258 334.334L202.324 346.315ZM199.106 350.944L198.095 328.567L201.675 328.406L202.686 350.783L199.106 350.944ZM209.271 350.485L203.271 342.46L205.492 339.861L213.523 350.293L209.271 350.485ZM222.142 350.288C220.586 350.359 219.185 350.07 217.938 349.421C216.712 348.75 215.719 347.802 214.959 346.577C214.22 345.35 213.814 343.916 213.74 342.275C213.666 340.634 213.952 339.169 214.598 337.88C215.245 336.591 216.159 335.567 217.342 334.809C218.546 334.029 219.936 333.603 221.513 333.532C222.941 333.467 224.247 333.782 225.432 334.476C226.615 335.148 227.569 336.162 228.292 337.518C229.036 338.872 229.452 340.508 229.539 342.427L216.975 342.994L217.435 342.525C217.479 343.505 217.731 344.348 218.19 345.053C218.648 345.737 219.237 346.255 219.958 346.607C220.678 346.959 221.465 347.116 222.317 347.077C223.297 347.033 224.098 346.783 224.718 346.328C225.337 345.852 225.812 345.254 226.142 344.534L229.368 345.734C228.959 346.606 228.417 347.378 227.743 348.049C227.089 348.719 226.291 349.247 225.347 349.631C224.425 350.014 223.357 350.233 222.142 350.288ZM217.575 340.661L217.043 340.236L226.058 339.829L225.599 340.298C225.559 339.424 225.335 338.719 224.926 338.182C224.517 337.624 224.007 337.22 223.398 336.97C222.809 336.698 222.195 336.576 221.556 336.605C220.916 336.634 220.284 336.812 219.658 337.139C219.031 337.445 218.518 337.895 218.117 338.49C217.716 339.063 217.535 339.787 217.575 340.661ZM246.149 349.204C245.084 349.252 244.096 349.136 243.186 348.857C242.277 348.578 241.49 348.165 240.824 347.619C240.158 347.051 239.636 346.38 239.26 345.607L242.299 344.092C242.645 344.675 243.137 345.154 243.773 345.531C244.431 345.907 245.143 346.078 245.91 346.043C246.741 346.006 247.396 345.838 247.873 345.538C248.371 345.217 248.609 344.8 248.586 344.289C248.564 343.799 248.355 343.434 247.96 343.196C247.564 342.936 247.01 342.737 246.299 342.598L244.778 342.251C243.248 341.935 242.037 341.381 241.147 340.589C240.256 339.775 239.786 338.824 239.737 337.738C239.665 336.139 240.121 334.88 241.104 333.96C242.109 333.039 243.581 332.535 245.52 332.447C246.501 332.403 247.403 332.512 248.226 332.773C249.069 333.013 249.802 333.386 250.423 333.891C251.042 334.376 251.485 334.965 251.752 335.657L248.839 337.134C248.602 336.611 248.179 336.224 247.57 335.974C246.959 335.703 246.292 335.584 245.567 335.616C244.843 335.649 244.285 335.834 243.895 336.172C243.503 336.489 243.32 336.924 243.345 337.478C243.36 337.798 243.554 338.088 243.929 338.349C244.303 338.588 244.835 338.778 245.524 338.918L247.431 339.28C248.486 339.488 249.357 339.855 250.043 340.379C250.728 340.882 251.245 341.467 251.596 342.135C251.945 342.781 252.135 343.445 252.166 344.127C252.21 345.086 251.97 345.941 251.449 346.69C250.949 347.439 250.239 348.037 249.32 348.484C248.4 348.91 247.343 349.15 246.149 349.204ZM262.575 348.462C260.976 348.534 259.533 348.247 258.243 347.6C256.975 346.932 255.96 345.985 255.2 344.759C254.44 343.533 254.023 342.1 253.949 340.459C253.875 338.818 254.15 337.353 254.775 336.065C255.422 334.776 256.347 333.752 257.551 332.993C258.755 332.212 260.156 331.786 261.754 331.714C263.352 331.642 264.786 331.94 266.055 332.609C267.323 333.256 268.326 334.193 269.065 335.42C269.825 336.645 270.242 338.079 270.316 339.72C270.39 341.361 270.115 342.825 269.489 344.113C268.864 345.402 267.95 346.436 266.747 347.216C265.542 347.975 264.152 348.391 262.575 348.462ZM262.426 345.169C263.3 345.13 264.068 344.882 264.731 344.424C265.392 343.946 265.898 343.325 266.248 342.562C266.597 341.778 266.749 340.884 266.704 339.883C266.658 338.881 266.417 338.017 265.978 337.289C265.56 336.539 265 335.966 264.299 335.571C263.596 335.154 262.798 334.966 261.903 335.006C261.008 335.047 260.229 335.296 259.566 335.753C258.903 336.21 258.398 336.831 258.049 337.615C257.7 338.4 257.548 339.293 257.593 340.294C257.638 341.296 257.87 342.172 258.288 342.922C258.727 343.649 259.297 344.221 259.999 344.638C260.722 345.033 261.531 345.21 262.426 345.169ZM283.089 347.151L282.29 329.473C282.214 327.789 282.572 326.481 283.362 325.548C284.173 324.594 285.431 324.078 287.136 324.001C287.69 323.976 288.281 324.045 288.908 324.209C289.555 324.35 290.173 324.557 290.761 324.83L289.571 327.542C289.157 327.369 288.788 327.247 288.465 327.176C288.163 327.104 287.894 327.074 287.66 327.084C287.021 327.113 286.551 327.348 286.25 327.788C285.97 328.207 285.851 328.885 285.894 329.823L286.669 346.989L283.089 347.151ZM279.751 334.232L279.618 331.291L290.135 330.816L290.268 333.757L279.751 334.232ZM303.228 346.241L302.933 343.243L302.697 338.033C302.648 336.946 302.49 336.045 302.223 335.331C301.976 334.595 301.588 334.047 301.06 333.686C300.551 333.303 299.881 333.131 299.05 333.168C298.283 333.203 297.619 333.393 297.058 333.739C296.497 334.084 296.029 334.607 295.655 335.308L292.47 334.298C292.78 333.58 293.198 332.909 293.725 332.288C294.272 331.644 294.964 331.121 295.8 330.72C296.658 330.319 297.694 330.09 298.909 330.036C300.464 329.965 301.778 330.216 302.851 330.786C303.922 331.336 304.728 332.164 305.269 333.272C305.832 334.378 306.149 335.731 306.221 337.329L306.521 346.092L303.228 346.241ZM298.642 346.833C296.724 346.919 295.213 346.56 294.109 345.756C293.026 344.951 292.45 343.77 292.38 342.215C292.304 340.552 292.801 339.259 293.87 338.335C294.96 337.411 296.507 336.903 298.51 336.812L302.794 336.619L302.918 339.368L299.785 339.51C298.357 339.574 297.365 339.822 296.808 340.253C296.249 340.662 295.987 341.229 296.02 341.954C296.047 342.572 296.315 343.051 296.821 343.391C297.348 343.709 298.059 343.848 298.954 343.807C299.764 343.771 300.459 343.558 301.039 343.169C301.62 342.779 302.056 342.279 302.349 341.668C302.663 341.056 302.803 340.377 302.77 339.631L303.825 339.583C303.923 341.757 303.563 343.493 302.746 344.789C301.928 346.065 300.56 346.746 298.642 346.833ZM312.224 337.314C312.146 335.588 312.412 334.156 313.023 333.018C313.633 331.88 314.449 331.021 315.469 330.441C316.51 329.838 317.605 329.511 318.756 329.459L318.911 332.88C317.93 332.924 317.009 333.104 316.148 333.421C315.307 333.715 314.634 334.173 314.128 334.794C313.622 335.414 313.392 336.215 313.436 337.195L312.224 337.314ZM310.242 345.924L309.52 329.941L313.101 329.779L313.823 345.763L310.242 345.924ZM324.961 338.981L324.61 333.327L326.682 333.105C327.895 333.008 328.881 332.622 329.64 331.947C330.399 331.25 330.752 330.306 330.698 329.112C330.649 328.046 330.237 327.19 329.46 326.541C328.705 325.892 327.741 325.594 326.569 325.647C325.738 325.684 325.022 325.92 324.423 326.352C323.823 326.785 323.419 327.305 323.212 327.913L319.876 327.102C320.242 325.762 320.993 324.66 322.129 323.797C323.286 322.934 324.717 322.463 326.422 322.386C327.871 322.321 329.163 322.561 330.298 323.108C331.454 323.632 332.375 324.402 333.061 325.418C333.747 326.412 334.12 327.591 334.182 328.955C334.234 330.105 334.025 331.151 333.555 332.09C333.085 333.03 332.393 333.798 331.481 334.394C330.589 334.99 329.539 335.379 328.33 335.561L328.414 338.825L324.961 338.981ZM326.991 345.616C326.351 345.645 325.798 345.456 325.331 345.05C324.885 344.622 324.648 344.099 324.62 343.481C324.591 342.842 324.78 342.299 325.187 341.854C325.614 341.386 326.148 341.138 326.787 341.109C327.405 341.081 327.937 341.281 328.384 341.709C328.851 342.115 329.098 342.638 329.127 343.277C329.155 343.895 328.955 344.438 328.528 344.906C328.121 345.352 327.609 345.588 326.991 345.616Z" fill="black"/>
<g filter="url(#filter1_d_18_161)">
<rect x="300.351" y="426.453" width="200" height="200" rx="100" transform="rotate(-2.5864 300.351 426.453)" fill="#FAFCFF"/>
<rect x="302.439" y="428.36" width="196" height="196" rx="98" transform="rotate(-2.5864 302.439 428.36)" stroke="#CADEFF" stroke-width="4"/>
<path d="M405.439 536.823C409.411 536.64 413.149 534.887 415.831 531.951C418.514 529.015 419.922 525.135 419.746 521.162L418.844 501.182C418.664 497.208 416.913 493.468 413.976 490.784C411.039 488.101 407.156 486.695 403.182 486.874C399.208 487.054 395.468 488.804 392.785 491.742C390.102 494.679 388.695 498.561 388.874 502.536L389.777 522.515C389.961 526.488 391.713 530.226 394.649 532.908C397.585 535.59 401.465 536.998 405.439 536.823ZM393.869 502.31C393.75 499.661 394.687 497.072 396.476 495.114C398.265 493.156 400.758 491.989 403.408 491.869C406.057 491.749 408.646 492.687 410.604 494.476C412.562 496.265 413.729 498.758 413.849 501.408L414.752 521.387C414.871 524.037 413.933 526.625 412.145 528.583C410.356 530.541 407.862 531.709 405.213 531.828C402.563 531.948 399.975 531.01 398.017 529.221C396.059 527.433 394.892 524.939 394.772 522.29L393.869 502.31ZM408.382 546.575L408.726 554.192C408.756 554.855 408.521 555.502 408.074 555.991C407.627 556.481 407.003 556.773 406.341 556.803C405.679 556.833 405.032 556.598 404.542 556.151C404.053 555.704 403.761 555.08 403.731 554.418L403.387 546.801C397.201 546.452 391.364 543.823 387.005 539.42C382.646 535.018 380.074 529.155 379.787 522.967C379.757 522.304 379.992 521.657 380.439 521.168C380.886 520.678 381.509 520.386 382.172 520.356C382.834 520.326 383.481 520.561 383.971 521.008C384.46 521.455 384.752 522.079 384.782 522.741C385.021 528.04 387.356 533.027 391.272 536.604C395.188 540.182 400.365 542.057 405.664 541.818C410.963 541.579 415.95 539.244 419.528 535.328C423.105 531.412 424.981 526.235 424.741 520.936C424.711 520.274 424.946 519.626 425.393 519.137C425.84 518.647 426.464 518.356 427.126 518.326C427.788 518.296 428.435 518.53 428.925 518.977C429.414 519.425 429.706 520.048 429.736 520.71C430.008 526.9 427.975 532.97 424.031 537.748C420.087 542.525 414.511 545.671 408.382 546.575Z" fill="#0075FF"/>
</g>
<line x1="113.31" y1="208.171" x2="706.705" y2="181.366" stroke="#ECECEC"/>
<g clip-path="url(#clip1_18_161)">
<rect x="109.362" y="120.76" width="48" height="48" rx="24" transform="rotate(-2.5864 109.362 120.76)" fill="#323232"/>
<rect width="48" height="48" transform="translate(109.362 120.76) rotate(-2.5864)" fill="#181818"/>
<path fill-rule="evenodd" clip-rule="evenodd" d="M141.152 129.774L125.835 130.64L119.083 143.658L126.744 157.537L142.498 156.896L149.698 143.013L141.152 129.774ZM145.514 150.038L149.017 143.283L142.941 143.531L139.394 150.369L145.514 150.038ZM145.258 150.533L142.2 156.428L136.124 156.675L139.138 150.864L145.258 150.533ZM138.582 150.894L135.571 156.697L127.286 157.035L130.237 151.345L138.582 150.894ZM129.812 151.122L126.876 156.783L122.834 149.459L125.592 144.142L129.812 151.122ZM125.851 143.642L130.071 150.623L133.678 143.667L129.421 136.837L129.379 136.84L125.851 143.642ZM125.301 143.66L122.555 148.954L119.628 143.651L122.245 138.606L125.301 143.66ZM122.504 138.106L125.56 143.161L129.078 136.378L129.133 136.374L126.005 131.356L122.504 138.106ZM130.493 150.851L138.838 150.399L142.389 143.553L134.103 143.89L130.493 150.851ZM142.294 143.077L134.084 143.411L129.966 136.804L137.926 136.31L142.294 143.077ZM137.628 135.847L129.677 136.341L126.403 131.088L134.269 130.644L137.628 135.847ZM134.82 130.612L138.177 135.813L144.237 135.437L140.9 130.269L134.82 130.612ZM144.535 135.9L138.475 136.276L142.851 143.054L148.991 142.804L144.535 135.9Z" fill="url(#paint0_linear_18_161)"/>
</g>
<path d="M176.731 149.749L175.973 132.967L178.946 132.832L184.571 140.362L189.447 132.358L192.444 132.223L193.202 149.005L190.421 149.131L189.861 136.736L184.759 145.062L178.954 137.276L179.512 149.624L176.731 149.749ZM203.98 148.519L203.758 146.27L203.582 142.362C203.545 141.547 203.426 140.872 203.226 140.336C203.041 139.784 202.75 139.373 202.353 139.102C201.972 138.815 201.47 138.686 200.846 138.714C200.271 138.74 199.773 138.883 199.352 139.142C198.931 139.401 198.581 139.793 198.3 140.319L195.911 139.562C196.143 139.023 196.457 138.52 196.852 138.054C197.263 137.571 197.782 137.179 198.409 136.878C199.052 136.577 199.829 136.406 200.74 136.364C201.907 136.312 202.892 136.499 203.697 136.928C204.5 137.34 205.105 137.961 205.511 138.792C205.932 139.621 206.17 140.636 206.225 141.834L206.449 148.407L203.98 148.519ZM200.54 148.962C199.102 149.027 197.969 148.758 197.141 148.155C196.328 147.551 195.896 146.665 195.843 145.499C195.787 144.252 196.16 143.282 196.961 142.589C197.779 141.896 198.939 141.515 200.441 141.447L203.654 141.302L203.747 143.364L201.397 143.47C200.327 143.518 199.582 143.704 199.164 144.027C198.746 144.335 198.549 144.76 198.573 145.303C198.594 145.767 198.795 146.126 199.175 146.381C199.57 146.62 200.103 146.724 200.774 146.693C201.382 146.666 201.903 146.506 202.338 146.214C202.774 145.922 203.101 145.547 203.32 145.089C203.556 144.63 203.661 144.12 203.636 143.561L204.427 143.525C204.501 145.156 204.231 146.457 203.618 147.43C203.005 148.386 201.979 148.897 200.54 148.962ZM210.727 141.823C210.668 140.529 210.868 139.455 211.326 138.601C211.784 137.747 212.395 137.103 213.16 136.668C213.941 136.217 214.763 135.971 215.626 135.932L215.742 138.498C215.006 138.531 214.316 138.666 213.67 138.904C213.039 139.124 212.534 139.467 212.155 139.933C211.775 140.399 211.602 140.999 211.635 141.734L210.727 141.823ZM209.24 148.281L208.699 136.293L211.384 136.172L211.926 148.16L209.24 148.281ZM221.81 147.713L225.944 135.514L228.725 135.389L224.328 147.599L221.81 147.713ZM221.619 147.722L216.114 135.958L218.871 135.834L224.112 147.609L221.619 147.722ZM235.977 147.362C234.81 147.414 233.759 147.197 232.824 146.711C231.904 146.208 231.16 145.497 230.59 144.578C230.035 143.658 229.731 142.583 229.675 141.352C229.619 140.121 229.834 139.022 230.319 138.055C230.804 137.088 231.49 136.321 232.377 135.752C233.28 135.167 234.322 134.847 235.505 134.794C236.576 134.746 237.556 134.982 238.444 135.502C239.332 136.007 240.047 136.767 240.589 137.784C241.148 138.799 241.459 140.027 241.524 141.465L232.102 141.891L232.446 141.539C232.48 142.274 232.668 142.906 233.012 143.435C233.356 143.948 233.798 144.337 234.338 144.601C234.879 144.865 235.469 144.982 236.108 144.953C236.843 144.92 237.444 144.733 237.909 144.391C238.373 144.034 238.729 143.585 238.977 143.046L241.396 143.945C241.089 144.6 240.683 145.179 240.177 145.682C239.687 146.185 239.089 146.58 238.381 146.869C237.689 147.156 236.888 147.32 235.977 147.362ZM232.551 140.141L232.153 139.822L238.914 139.517L238.569 139.869C238.54 139.214 238.372 138.685 238.065 138.282C237.758 137.863 237.376 137.56 236.919 137.373C236.477 137.169 236.017 137.077 235.537 137.099C235.058 137.121 234.583 137.254 234.114 137.5C233.644 137.729 233.258 138.067 232.958 138.513C232.657 138.943 232.522 139.485 232.551 140.141ZM243.822 146.719L243.064 129.936L245.75 129.815L246.508 146.598L243.822 146.719ZM255.016 146.501C253.817 146.556 252.734 146.34 251.767 145.855C250.816 145.354 250.055 144.643 249.485 143.724C248.915 142.805 248.602 141.73 248.546 140.499C248.491 139.269 248.697 138.17 249.166 137.204C249.651 136.237 250.345 135.469 251.248 134.9C252.151 134.314 253.202 133.995 254.4 133.94C255.599 133.886 256.674 134.11 257.626 134.612C258.577 135.097 259.329 135.8 259.883 136.72C260.453 137.639 260.766 138.714 260.822 139.945C260.877 141.176 260.671 142.274 260.202 143.24C259.733 144.206 259.047 144.982 258.145 145.567C257.242 146.137 256.199 146.448 255.016 146.501ZM254.904 144.032C255.56 144.002 256.136 143.816 256.633 143.473C257.129 143.115 257.509 142.649 257.771 142.077C258.033 141.488 258.147 140.818 258.113 140.067C258.079 139.316 257.897 138.667 257.568 138.122C257.255 137.559 256.835 137.13 256.309 136.833C255.782 136.521 255.183 136.38 254.512 136.41C253.841 136.44 253.256 136.627 252.759 136.97C252.262 137.312 251.883 137.778 251.621 138.366C251.36 138.955 251.246 139.625 251.28 140.376C251.314 141.127 251.487 141.784 251.801 142.346C252.13 142.892 252.558 143.321 253.084 143.634C253.626 143.93 254.233 144.062 254.904 144.032ZM271.451 145.471L271.208 143.272L270.766 133.489L273.427 133.369L273.969 145.357L271.451 145.471ZM262.892 139.995L262.614 133.858L265.3 133.736L265.577 139.874L262.892 139.995ZM265.577 139.874C265.619 140.817 265.765 141.547 266.012 142.065C266.26 142.582 266.58 142.936 266.973 143.126C267.382 143.316 267.842 143.4 268.354 143.376C269.266 143.351 269.955 143.024 270.424 142.394C270.892 141.764 271.1 140.882 271.049 139.747L272.056 139.702C272.113 140.964 271.97 142.06 271.628 142.988C271.3 143.9 270.804 144.611 270.138 145.122C269.488 145.616 268.683 145.884 267.724 145.927C266.781 145.97 265.957 145.815 265.253 145.462C264.564 145.109 264.018 144.533 263.613 143.735C263.209 142.936 262.978 141.898 262.92 140.619L262.892 139.995L265.577 139.874ZM281.329 145.313C280.53 145.349 279.789 145.262 279.107 145.053C278.425 144.843 277.834 144.534 277.335 144.124C276.836 143.698 276.445 143.195 276.162 142.615L278.441 141.479C278.701 141.916 279.07 142.276 279.547 142.558C280.04 142.841 280.575 142.969 281.15 142.943C281.773 142.914 282.264 142.788 282.622 142.564C282.996 142.323 283.174 142.01 283.157 141.627C283.14 141.259 282.984 140.986 282.687 140.807C282.39 140.612 281.975 140.463 281.442 140.359L280.301 140.098C279.153 139.862 278.245 139.446 277.578 138.852C276.91 138.241 276.557 137.528 276.52 136.713C276.466 135.514 276.808 134.57 277.545 133.88C278.299 133.189 279.403 132.811 280.858 132.745C281.593 132.712 282.269 132.794 282.887 132.99C283.519 133.17 284.069 133.449 284.534 133.829C284.999 134.192 285.331 134.633 285.531 135.153L283.347 136.261C283.169 135.868 282.851 135.578 282.395 135.391C281.937 135.187 281.436 135.098 280.893 135.122C280.349 135.147 279.931 135.286 279.638 135.539C279.345 135.777 279.207 136.103 279.226 136.519C279.237 136.759 279.383 136.976 279.664 137.172C279.945 137.351 280.343 137.493 280.861 137.598L282.29 137.87C283.082 138.026 283.735 138.301 284.25 138.694C284.763 139.072 285.151 139.51 285.414 140.011C285.676 140.496 285.819 140.994 285.842 141.505C285.874 142.225 285.695 142.865 285.304 143.428C284.929 143.989 284.397 144.438 283.707 144.773C283.017 145.092 282.224 145.272 281.329 145.313ZM289.431 144.995C288.967 145.016 288.56 144.874 288.21 144.57C287.876 144.248 287.698 143.856 287.677 143.392C287.656 142.929 287.798 142.522 288.102 142.172C288.423 141.821 288.815 141.635 289.278 141.614C289.742 141.593 290.149 141.743 290.5 142.064C290.85 142.384 291.036 142.776 291.057 143.24C291.078 143.703 290.928 144.11 290.608 144.461C290.287 144.796 289.894 144.974 289.431 144.995ZM293.861 144.458L293.32 132.471L295.981 132.35L296.523 144.338L293.861 144.458ZM294.559 130.132C294.128 130.152 293.745 130.017 293.412 129.728C293.094 129.422 292.925 129.053 292.906 128.621C292.886 128.19 293.021 127.815 293.311 127.498C293.617 127.18 293.986 127.011 294.418 126.992C294.849 126.972 295.224 127.107 295.541 127.397C295.874 127.687 296.051 128.047 296.07 128.479C296.09 128.91 295.947 129.293 295.642 129.627C295.352 129.944 294.991 130.113 294.559 130.132ZM305.215 144.234C304.016 144.288 302.933 144.073 301.966 143.588C301.015 143.086 300.254 142.376 299.684 141.457C299.114 140.537 298.801 139.462 298.745 138.232C298.69 137.001 298.896 135.903 299.365 134.936C299.85 133.97 300.544 133.201 301.447 132.632C302.35 132.047 303.4 131.727 304.599 131.673C305.798 131.619 306.873 131.842 307.825 132.344C308.776 132.83 309.528 133.532 310.082 134.452C310.652 135.372 310.965 136.446 311.021 137.677C311.076 138.908 310.87 140.006 310.401 140.973C309.932 141.939 309.246 142.714 308.344 143.3C307.44 143.869 306.397 144.18 305.215 144.234ZM305.103 141.764C305.758 141.735 306.335 141.549 306.832 141.206C307.328 140.847 307.707 140.382 307.97 139.809C308.232 139.221 308.345 138.551 308.311 137.8C308.278 137.048 308.096 136.4 307.767 135.854C307.453 135.292 307.034 134.862 306.508 134.566C305.981 134.253 305.382 134.112 304.711 134.142C304.039 134.173 303.455 134.359 302.958 134.702C302.461 135.045 302.082 135.51 301.82 136.099C301.558 136.687 301.444 137.357 301.478 138.108C301.512 138.86 301.686 139.516 302 140.079C302.329 140.624 302.757 141.054 303.283 141.366C303.825 141.662 304.432 141.795 305.103 141.764Z" fill="black"/>
<rect x="139.145" y="780.088" width="594" height="64" rx="32" transform="rotate(-2.5864 139.145 780.088)" fill="#0075FF"/>
<path d="M355.302 811.654C354.422 811.693 353.611 811.626 352.866 811.451C352.137 811.276 351.485 811.017 350.909 810.675C350.349 810.332 349.875 809.945 349.487 809.514C349.115 809.066 348.845 808.598 348.679 808.109L351.374 807.146C351.609 807.728 352.04 808.229 352.667 808.649C353.295 809.069 354.057 809.267 354.952 809.243C355.991 809.196 356.805 808.943 357.393 808.484C357.981 808.025 358.259 807.444 358.227 806.741C358.198 806.101 357.919 805.593 357.389 805.217C356.859 804.824 356.157 804.536 355.284 804.351L353.198 803.917C352.406 803.744 351.681 803.473 351.023 803.102C350.382 802.73 349.864 802.249 349.469 801.659C349.09 801.067 348.881 800.356 348.844 799.525C348.773 797.958 349.23 796.72 350.213 795.811C351.197 794.886 352.639 794.38 354.541 794.294C355.612 794.246 356.555 794.371 357.369 794.671C358.199 794.954 358.89 795.371 359.444 795.923C359.997 796.458 360.417 797.08 360.705 797.788L358.059 798.772C357.79 798.143 357.351 797.635 356.741 797.246C356.131 796.857 355.386 796.682 354.507 796.722C353.596 796.763 352.886 797.012 352.378 797.467C351.886 797.922 351.658 798.533 351.692 799.3C351.721 799.923 351.942 800.402 352.358 800.735C352.789 801.052 353.36 801.283 354.071 801.427L356.155 801.837C357.675 802.137 358.87 802.715 359.741 803.573C360.613 804.431 361.073 805.403 361.122 806.49C361.166 807.449 360.972 808.306 360.542 809.062C360.112 809.819 359.45 810.425 358.558 810.882C357.682 811.338 356.596 811.595 355.302 811.654ZM371.217 810.646L370.995 808.398L370.819 804.49C370.782 803.675 370.663 803 370.463 802.464C370.278 801.912 369.987 801.501 369.59 801.23C369.209 800.943 368.707 800.814 368.083 800.842C367.508 800.868 367.01 801.01 366.589 801.27C366.168 801.529 365.818 801.921 365.537 802.446L363.148 801.689C363.38 801.15 363.694 800.648 364.089 800.181C364.5 799.698 365.019 799.306 365.646 799.006C366.289 798.705 367.066 798.533 367.977 798.492C369.144 798.439 370.129 798.627 370.933 799.055C371.737 799.467 372.342 800.089 372.747 800.919C373.169 801.749 373.407 802.763 373.461 803.962L373.686 810.535L371.217 810.646ZM367.777 811.09C366.339 811.155 365.205 810.886 364.377 810.283C363.565 809.679 363.133 808.793 363.08 807.626C363.024 806.38 363.397 805.41 364.198 804.717C365.016 804.023 366.176 803.643 367.678 803.575L370.891 803.43L370.984 805.492L368.634 805.598C367.563 805.646 366.819 805.832 366.401 806.155C365.983 806.462 365.786 806.888 365.81 807.431C365.831 807.895 366.032 808.254 366.411 808.509C366.807 808.747 367.34 808.851 368.011 808.821C368.619 808.794 369.14 808.634 369.575 808.342C370.01 808.05 370.338 807.675 370.557 807.217C370.793 806.758 370.898 806.248 370.873 805.689L371.664 805.653C371.738 807.283 371.468 808.585 370.855 809.558C370.242 810.514 369.216 811.025 367.777 811.09ZM380.056 810.247L384.19 798.048L386.971 797.922L382.574 810.133L380.056 810.247ZM379.865 810.256L374.36 798.492L377.117 798.368L382.358 810.143L379.865 810.256ZM394.223 809.895C393.056 809.948 392.005 809.731 391.07 809.245C390.15 808.742 389.406 808.031 388.836 807.112C388.282 806.192 387.977 805.116 387.921 803.886C387.865 802.655 388.08 801.556 388.565 800.589C389.05 799.622 389.736 798.855 390.623 798.286C391.526 797.701 392.568 797.381 393.751 797.328C394.822 797.28 395.802 797.516 396.69 798.036C397.578 798.54 398.293 799.301 398.835 800.318C399.394 801.333 399.705 802.561 399.77 803.999L390.348 804.425L390.692 804.073C390.726 804.808 390.914 805.44 391.259 805.969C391.602 806.482 392.044 806.871 392.584 807.135C393.125 807.398 393.715 807.516 394.354 807.487C395.089 807.454 395.69 807.267 396.155 806.925C396.619 806.568 396.975 806.119 397.223 805.58L399.642 806.479C399.335 807.134 398.929 807.713 398.423 808.216C397.933 808.719 397.335 809.114 396.627 809.402C395.935 809.69 395.134 809.854 394.223 809.895ZM390.797 802.675L390.399 802.356L397.16 802.051L396.815 802.403C396.786 801.747 396.618 801.219 396.311 800.816C396.004 800.397 395.622 800.094 395.165 799.907C394.723 799.702 394.263 799.611 393.783 799.633C393.304 799.654 392.829 799.788 392.36 800.033C391.89 800.263 391.504 800.601 391.204 801.047C390.903 801.477 390.768 802.019 390.797 802.675ZM415.164 808.661L414.942 806.413L414.766 802.505C414.729 801.69 414.611 801.014 414.41 800.479C414.225 799.927 413.934 799.515 413.538 799.245C413.156 798.958 412.654 798.828 412.031 798.857C411.455 798.883 410.957 799.025 410.536 799.284C410.116 799.544 409.765 799.936 409.484 800.461L407.096 799.704C407.328 799.165 407.641 798.662 408.037 798.196C408.447 797.713 408.966 797.321 409.593 797.021C410.236 796.719 411.013 796.548 411.924 796.507C413.091 796.454 414.077 796.642 414.881 797.07C415.684 797.482 416.289 798.104 416.695 798.934C417.117 799.764 417.355 800.778 417.409 801.977L417.634 808.55L415.164 808.661ZM411.725 809.105C410.286 809.17 409.153 808.901 408.325 808.297C407.513 807.693 407.08 806.808 407.028 805.641C406.971 804.395 407.344 803.425 408.145 802.732C408.963 802.038 410.123 801.658 411.625 801.59L414.838 801.445L414.931 803.506L412.582 803.613C411.511 803.661 410.766 803.847 410.349 804.17C409.93 804.477 409.733 804.902 409.758 805.446C409.778 805.909 409.979 806.269 410.359 806.524C410.754 806.762 411.287 806.866 411.959 806.836C412.566 806.809 413.087 806.649 413.522 806.357C413.958 806.065 414.285 805.69 414.505 805.231C414.74 804.772 414.845 804.263 414.82 803.704L415.611 803.668C415.685 805.298 415.415 806.6 414.803 807.572C414.189 808.529 413.163 809.04 411.725 809.105ZM420.425 808.424L419.883 796.436L422.401 796.322L422.668 798.52L423.11 808.302L420.425 808.424ZM428.552 808.056L428.275 801.919L430.96 801.797L431.238 807.935L428.552 808.056ZM428.275 801.919C428.232 800.96 428.087 800.229 427.84 799.728C427.608 799.21 427.288 798.856 426.879 798.666C426.486 798.476 426.026 798.393 425.498 798.416C424.602 798.441 423.921 798.768 423.453 799.398C422.984 800.027 422.776 800.91 422.827 802.045L421.82 802.09C421.763 800.827 421.898 799.74 422.226 798.828C422.552 797.901 423.048 797.19 423.715 796.695C424.38 796.185 425.185 795.908 426.128 795.865C427.087 795.822 427.911 795.977 428.599 796.33C429.304 796.683 429.85 797.259 430.239 798.058C430.643 798.841 430.874 799.879 430.932 801.174L430.96 801.797L428.275 801.919ZM442.613 807.421L442.392 805.197L441.735 790.644L444.396 790.524L445.154 807.306L442.613 807.421ZM438.718 807.885C437.631 807.935 436.668 807.722 435.83 807.247C435.007 806.756 434.343 806.049 433.836 805.127C433.346 804.204 433.073 803.111 433.016 801.849C432.958 800.57 433.132 799.457 433.538 798.51C433.959 797.546 434.557 796.79 435.333 796.242C436.124 795.678 437.064 795.371 438.15 795.322C439.157 795.277 440.032 795.502 440.776 795.997C441.534 796.475 442.126 797.177 442.552 798.102C442.978 799.012 443.219 800.106 443.277 801.385C443.334 802.648 443.192 803.759 442.851 804.72C442.51 805.68 441.984 806.441 441.273 807.001C440.576 807.545 439.725 807.84 438.718 807.885ZM439.279 805.41C439.886 805.382 440.414 805.198 440.863 804.858C441.328 804.5 441.675 804.028 441.905 803.441C442.15 802.853 442.256 802.184 442.222 801.433C442.188 800.682 442.023 800.024 441.725 799.461C441.443 798.897 441.055 798.466 440.561 798.168C440.083 797.87 439.533 797.734 438.909 797.763C438.27 797.791 437.71 797.977 437.229 798.319C436.748 798.661 436.376 799.126 436.115 799.715C435.869 800.302 435.755 800.972 435.773 801.724C435.823 802.475 435.997 803.131 436.294 803.695C436.608 804.257 437.02 804.695 437.531 805.008C438.057 805.305 438.639 805.439 439.279 805.41ZM458.283 807.002C457.484 807.038 456.743 806.951 456.061 806.742C455.379 806.532 454.788 806.223 454.289 805.813C453.789 805.387 453.398 804.884 453.116 804.304L455.395 803.168C455.655 803.605 456.023 803.965 456.501 804.247C456.994 804.529 457.528 804.657 458.104 804.631C458.727 804.603 459.218 804.477 459.576 804.253C459.95 804.011 460.128 803.699 460.11 803.315C460.094 802.948 459.937 802.675 459.641 802.496C459.344 802.301 458.929 802.152 458.395 802.048L457.254 801.787C456.107 801.55 455.199 801.135 454.531 800.54C453.863 799.93 453.511 799.217 453.474 798.402C453.42 797.203 453.761 796.259 454.499 795.569C455.253 794.878 456.357 794.5 457.811 794.434C458.546 794.401 459.223 794.483 459.84 794.679C460.473 794.859 461.022 795.138 461.488 795.517C461.953 795.881 462.285 796.322 462.485 796.842L460.3 797.949C460.122 797.557 459.805 797.267 459.348 797.08C458.89 796.876 458.39 796.786 457.846 796.811C457.303 796.836 456.885 796.975 456.592 797.228C456.298 797.466 456.161 797.792 456.18 798.208C456.191 798.447 456.337 798.665 456.618 798.861C456.898 799.04 457.297 799.182 457.814 799.287L459.244 799.559C460.036 799.715 460.689 799.99 461.203 800.383C461.717 800.76 462.105 801.199 462.368 801.7C462.63 802.185 462.772 802.683 462.796 803.194C462.828 803.913 462.649 804.554 462.258 805.116C461.883 805.678 461.35 806.126 460.661 806.462C459.971 806.781 459.178 806.961 458.283 807.002ZM473.106 806.044L472.863 803.845L472.421 794.063L475.082 793.942L475.624 805.93L473.106 806.044ZM464.547 800.569L464.269 794.431L466.955 794.309L467.232 800.447L464.547 800.569ZM467.232 800.447C467.274 801.39 467.419 802.12 467.667 802.638C467.915 803.155 468.235 803.509 468.628 803.7C469.037 803.889 469.497 803.973 470.009 803.949C470.92 803.924 471.61 803.597 472.078 802.967C472.546 802.337 472.755 801.455 472.704 800.32L473.711 800.275C473.768 801.537 473.625 802.633 473.282 803.561C472.955 804.473 472.459 805.184 471.793 805.695C471.143 806.189 470.338 806.457 469.379 806.5C468.436 806.543 467.612 806.388 466.908 806.036C466.219 805.682 465.672 805.106 465.268 804.308C464.864 803.509 464.632 802.471 464.575 801.192L464.547 800.569L467.232 800.447ZM478.608 805.795L477.849 789.012L480.535 788.891L481.192 803.444L481.149 805.681L478.608 805.795ZM485.094 805.791C484.087 805.836 483.204 805.62 482.446 805.141C481.703 804.646 481.118 803.936 480.692 803.01C480.266 802.085 480.024 800.99 479.967 799.728C479.909 798.449 480.051 797.338 480.393 796.393C480.734 795.433 481.253 794.681 481.949 794.137C482.66 793.576 483.519 793.273 484.526 793.227C485.613 793.178 486.568 793.399 487.391 793.891C488.23 794.365 488.894 795.064 489.384 795.987C489.889 796.893 490.171 797.986 490.229 799.264C490.286 800.527 490.104 801.64 489.683 802.604C489.278 803.568 488.68 804.331 487.888 804.896C487.112 805.443 486.181 805.742 485.094 805.791ZM484.312 803.375C484.952 803.347 485.512 803.161 485.993 802.819C486.473 802.461 486.844 801.988 487.106 801.399C487.384 800.81 487.505 800.14 487.471 799.389C487.438 798.638 487.264 797.981 486.95 797.418C486.652 796.855 486.249 796.425 485.739 796.128C485.229 795.83 484.646 795.697 483.991 795.726C483.383 795.754 482.847 795.938 482.382 796.279C481.917 796.621 481.562 797.085 481.316 797.673C481.086 798.26 480.988 798.929 481.022 799.68C481.056 800.431 481.214 801.089 481.496 801.653C481.793 802.216 482.181 802.655 482.66 802.97C483.154 803.268 483.705 803.403 484.312 803.375ZM492.796 805.154L492.255 793.167L494.772 793.053L494.965 794.654C495.304 794.014 495.754 793.521 496.315 793.175C496.876 792.83 497.524 792.64 498.26 792.607C499.219 792.564 500.044 792.743 500.734 793.144C501.425 793.545 501.942 794.178 502.286 795.044C502.599 794.181 503.065 793.511 503.684 793.035C504.304 792.558 505.045 792.301 505.908 792.262C507.298 792.199 508.389 792.598 509.181 793.459C509.972 794.304 510.401 795.646 510.468 797.485L510.778 804.342L508.117 804.462L507.839 798.325C507.796 797.366 507.659 796.635 507.428 796.133C507.196 795.615 506.9 795.26 506.539 795.068C506.178 794.876 505.766 794.791 505.302 794.812C504.47 794.833 503.836 795.158 503.4 795.786C502.98 796.414 502.796 797.295 502.847 798.43L503.13 804.688L500.444 804.809L500.167 798.671C500.124 797.712 499.987 796.982 499.756 796.479C499.54 795.961 499.252 795.605 498.891 795.413C498.53 795.222 498.118 795.136 497.654 795.157C496.822 795.179 496.188 795.503 495.752 796.132C495.332 796.759 495.148 797.641 495.199 798.775L495.481 805.033L492.796 805.154ZM513.685 804.211L513.144 792.223L515.805 792.103L516.346 804.091L513.685 804.211ZM514.383 789.885C513.952 789.904 513.569 789.769 513.236 789.48C512.918 789.174 512.749 788.805 512.729 788.374C512.71 787.942 512.845 787.568 513.135 787.25C513.441 786.932 513.81 786.763 514.241 786.744C514.673 786.724 515.048 786.86 515.365 787.15C515.698 787.439 515.875 787.799 515.894 788.231C515.914 788.662 515.771 789.045 515.466 789.379C515.176 789.697 514.815 789.865 514.383 789.885ZM524.295 804.02C523.033 804.077 522.051 803.809 521.352 803.216C520.668 802.606 520.299 801.71 520.246 800.527L519.688 788.18L522.349 788.059L522.884 799.903C522.909 800.463 523.056 800.881 523.325 801.157C523.61 801.432 524.008 801.558 524.519 801.535C524.679 801.528 524.854 801.488 525.043 801.415C525.231 801.343 525.442 801.213 525.674 801.027L526.749 803.02C526.346 803.327 525.94 803.561 525.531 803.724C525.123 803.902 524.711 804.001 524.295 804.02ZM517.971 794.311L517.867 792.01L525.755 791.653L525.859 793.955L517.971 794.311Z" fill="white"/>
<rect x="136.579" y="701.123" width="592" height="62" rx="31" transform="rotate(-2.5864 136.579 701.123)" stroke="#0075FF" stroke-width="2"/>
<path d="M364.146 730.884L363.388 714.101L369.31 713.834C370.46 713.782 371.486 713.96 372.385 714.367C373.284 714.775 374 715.368 374.531 716.144C375.062 716.905 375.351 717.805 375.398 718.844C375.445 719.883 375.223 720.814 374.731 721.637C374.256 722.459 373.573 723.123 372.683 723.627C371.792 724.116 370.771 724.386 369.62 724.438L366.648 724.573L366.927 730.758L364.146 730.884ZM373.448 730.464L369.209 723.832L371.299 722.248L376.589 730.322L373.448 730.464ZM366.532 722.007L369.792 721.86C370.336 721.835 370.81 721.694 371.215 721.435C371.635 721.176 371.964 720.833 372.201 720.406C372.454 719.978 372.569 719.5 372.545 718.973C372.509 718.174 372.191 717.531 371.593 717.046C370.994 716.56 370.24 716.338 369.329 716.379L366.284 716.517L366.532 722.007ZM384.268 730.263C383.101 730.316 382.05 730.099 381.115 729.613C380.195 729.11 379.45 728.399 378.88 727.48C378.326 726.56 378.022 725.484 377.966 724.254C377.91 723.023 378.125 721.924 378.61 720.957C379.095 719.99 379.781 719.223 380.668 718.654C381.57 718.069 382.613 717.749 383.796 717.696C384.867 717.647 385.846 717.883 386.735 718.404C387.623 718.908 388.338 719.669 388.88 720.685C389.438 721.701 389.75 722.928 389.815 724.367L380.393 724.793L380.737 724.441C380.77 725.176 380.959 725.808 381.303 726.337C381.647 726.85 382.089 727.239 382.629 727.502C383.17 727.766 383.76 727.884 384.399 727.855C385.134 727.822 385.734 727.634 386.199 727.293C386.664 726.936 387.02 726.487 387.268 725.948L389.687 726.847C389.38 727.502 388.974 728.081 388.468 728.584C387.978 729.087 387.379 729.482 386.672 729.77C385.98 730.058 385.179 730.222 384.268 730.263ZM380.842 723.043L380.443 722.724L387.205 722.419L386.86 722.771C386.83 722.115 386.662 721.586 386.356 721.184C386.049 720.765 385.667 720.462 385.21 720.275C384.768 720.07 384.307 719.979 383.828 720.001C383.348 720.022 382.874 720.156 382.405 720.401C381.934 720.631 381.549 720.969 381.249 721.415C380.948 721.845 380.813 722.387 380.842 723.043ZM397.737 729.655C396.506 729.711 395.407 729.496 394.44 729.011C393.473 728.51 392.696 727.801 392.11 726.882C391.54 725.963 391.227 724.888 391.171 723.657C391.116 722.426 391.33 721.328 391.815 720.361C392.316 719.393 393.018 718.625 393.921 718.055C394.84 717.469 395.906 717.149 397.121 717.094C398.304 717.04 399.388 717.28 400.373 717.812C401.357 718.328 402.105 719.103 402.616 720.137L400.166 721.209C399.886 720.693 399.476 720.287 398.934 719.991C398.392 719.695 397.785 719.562 397.114 719.593C396.459 719.622 395.883 719.817 395.386 720.175C394.889 720.518 394.51 720.984 394.248 721.572C393.986 722.145 393.871 722.798 393.904 723.534C393.938 724.269 394.111 724.918 394.425 725.48C394.754 726.026 395.182 726.455 395.708 726.768C396.25 727.063 396.849 727.196 397.504 727.167C398.175 727.137 398.767 726.942 399.279 726.582C399.791 726.207 400.161 725.717 400.39 725.115L402.927 725.961C402.513 727.069 401.84 727.948 400.908 728.599C399.993 729.249 398.935 729.601 397.737 729.655ZM410.682 729.07C409.483 729.124 408.4 728.909 407.434 728.424C406.482 727.923 405.721 727.212 405.151 726.293C404.581 725.374 404.268 724.299 404.213 723.068C404.157 721.837 404.364 720.739 404.833 719.773C405.317 718.806 406.011 718.038 406.915 717.468C407.817 716.883 408.868 716.563 410.067 716.509C411.265 716.455 412.341 716.679 413.292 717.18C414.243 717.666 414.996 718.369 415.55 719.289C416.12 720.208 416.432 721.283 416.488 722.513C416.544 723.744 416.337 724.843 415.868 725.809C415.399 726.775 414.714 727.551 413.811 728.136C412.908 728.705 411.865 729.017 410.682 729.07ZM410.57 726.601C411.226 726.571 411.802 726.385 412.299 726.042C412.795 725.683 413.175 725.218 413.437 724.645C413.699 724.057 413.813 723.387 413.779 722.636C413.745 721.885 413.563 721.236 413.234 720.69C412.921 720.128 412.501 719.699 411.975 719.402C411.448 719.089 410.849 718.948 410.178 718.979C409.507 719.009 408.923 719.195 408.426 719.538C407.929 719.881 407.549 720.347 407.287 720.935C407.026 721.523 406.912 722.193 406.946 722.945C406.98 723.696 407.154 724.353 407.467 724.915C407.796 725.461 408.224 725.89 408.751 726.202C409.293 726.498 409.899 726.631 410.57 726.601ZM420.572 721.945C420.513 720.65 420.713 719.576 421.171 718.722C421.629 717.869 422.241 717.225 423.006 716.79C423.786 716.338 424.608 716.093 425.471 716.054L425.587 718.619C424.852 718.652 424.161 718.787 423.515 719.025C422.884 719.246 422.379 719.589 422 720.054C421.621 720.52 421.448 721.12 421.481 721.856L420.572 721.945ZM419.086 728.402L418.544 716.414L421.23 716.293L421.771 728.281L419.086 728.402ZM436.451 727.618L436.23 725.394L435.573 710.84L438.234 710.72L438.992 727.503L436.451 727.618ZM432.556 728.082C431.469 728.131 430.506 727.918 429.668 727.444C428.845 726.952 428.18 726.246 427.674 725.324C427.184 724.401 426.911 723.308 426.854 722.045C426.796 720.767 426.97 719.654 427.375 718.706C427.796 717.742 428.395 716.987 429.171 716.439C429.962 715.875 430.901 715.568 431.988 715.519C432.995 715.473 433.87 715.698 434.613 716.193C435.372 716.671 435.964 717.373 436.39 718.299C436.816 719.209 437.057 720.303 437.115 721.582C437.172 722.844 437.03 723.956 436.689 724.916C436.348 725.877 435.822 726.637 435.11 727.198C434.414 727.742 433.563 728.037 432.556 728.082ZM433.117 725.606C433.724 725.579 434.252 725.395 434.701 725.054C435.166 724.697 435.513 724.225 435.742 723.638C435.988 723.05 436.094 722.381 436.06 721.629C436.026 720.878 435.86 720.221 435.563 719.658C435.281 719.094 434.893 718.663 434.399 718.365C433.921 718.066 433.371 717.931 432.747 717.959C432.108 717.988 431.548 718.173 431.067 718.516C430.586 718.858 430.214 719.323 429.952 719.911C429.707 720.499 429.593 721.169 429.611 721.921C429.661 722.671 429.834 723.328 430.132 723.891C430.446 724.454 430.858 724.891 431.369 725.205C431.895 725.501 432.477 725.635 433.117 725.606ZM455.057 726.777L454.835 724.529L454.658 720.621C454.622 719.806 454.503 719.131 454.303 718.595C454.117 718.043 453.827 717.632 453.43 717.361C453.049 717.074 452.546 716.945 451.923 716.973C451.348 716.999 450.849 717.141 450.429 717.401C450.008 717.66 449.657 718.052 449.377 718.577L446.988 717.82C447.22 717.281 447.534 716.779 447.929 716.312C448.34 715.829 448.859 715.438 449.486 715.137C450.129 714.836 450.906 714.664 451.817 714.623C452.984 714.57 453.969 714.758 454.773 715.186C455.577 715.599 456.181 716.22 456.587 717.05C457.009 717.88 457.247 718.895 457.301 720.093L457.526 726.666L455.057 726.777ZM451.617 727.221C450.179 727.286 449.045 727.017 448.217 726.414C447.405 725.81 446.973 724.924 446.92 723.757C446.864 722.511 447.236 721.541 448.038 720.848C448.855 720.154 450.015 719.774 451.518 719.706L454.731 719.561L454.824 721.623L452.474 721.729C451.403 721.777 450.659 721.963 450.241 722.286C449.822 722.593 449.625 723.019 449.65 723.562C449.671 724.026 449.871 724.385 450.251 724.64C450.646 724.878 451.18 724.983 451.851 724.952C452.458 724.925 452.98 724.765 453.415 724.473C453.85 724.181 454.178 723.806 454.397 723.348C454.633 722.889 454.738 722.379 454.713 721.82L455.504 721.784C455.577 723.414 455.308 724.716 454.695 725.689C454.082 726.645 453.056 727.156 451.617 727.221ZM465.703 731.414C464.855 731.452 464.085 731.415 463.391 731.302C462.713 731.188 462.138 731.046 461.666 730.875C461.194 730.704 460.826 730.537 460.562 730.373L461.496 728.168C461.725 728.27 462.026 728.393 462.401 728.536C462.793 728.694 463.247 728.826 463.765 728.931C464.282 729.035 464.86 729.073 465.499 729.044C466.187 729.013 466.796 728.842 467.326 728.53C467.857 728.233 468.262 727.791 468.539 727.201C468.817 726.612 468.936 725.87 468.895 724.975L468.407 714.162L471.092 714.041L471.577 724.782C471.639 726.14 471.435 727.303 470.966 728.269C470.498 729.251 469.811 730.003 468.906 730.524C468.001 731.062 466.933 731.358 465.703 731.414ZM465.053 726.086C463.967 726.135 463.004 725.93 462.167 725.471C461.345 725.012 460.683 724.353 460.18 723.495C459.692 722.62 459.421 721.599 459.369 720.432C459.312 719.186 459.487 718.097 459.894 717.165C460.316 716.233 460.915 715.494 461.691 714.946C462.483 714.398 463.423 714.099 464.51 714.05C465.485 714.006 466.343 714.223 467.086 714.702C467.844 715.181 468.444 715.874 468.886 716.783C469.326 717.676 469.575 718.746 469.631 719.993C469.685 721.176 469.531 722.216 469.172 723.113C468.812 724.01 468.275 724.723 467.562 725.251C466.865 725.763 466.028 726.042 465.053 726.086ZM465.694 723.774C466.301 723.747 466.821 723.563 467.255 723.223C467.704 722.883 468.044 722.435 468.275 721.88C468.505 721.309 468.604 720.664 468.572 719.945C468.539 719.209 468.382 718.576 468.102 718.044C467.821 717.496 467.442 717.081 466.964 716.798C466.486 716.499 465.944 716.363 465.336 716.391C464.697 716.42 464.137 716.605 463.656 716.947C463.19 717.273 462.826 717.722 462.563 718.294C462.316 718.85 462.209 719.495 462.242 720.23C462.275 720.95 462.44 721.583 462.737 722.13C463.049 722.661 463.46 723.074 463.97 723.372C464.48 723.669 465.054 723.803 465.694 723.774ZM481.912 725.564L481.69 723.316L481.514 719.408C481.477 718.593 481.358 717.917 481.158 717.382C480.973 716.83 480.682 716.418 480.285 716.148C479.904 715.861 479.402 715.732 478.778 715.76C478.203 715.786 477.705 715.928 477.284 716.188C476.863 716.447 476.513 716.839 476.232 717.364L473.844 716.607C474.075 716.068 474.389 715.566 474.784 715.099C475.195 714.616 475.714 714.224 476.341 713.924C476.984 713.622 477.761 713.451 478.672 713.41C479.839 713.357 480.825 713.545 481.629 713.973C482.432 714.385 483.037 715.007 483.443 715.837C483.864 716.667 484.103 717.681 484.157 718.88L484.381 725.453L481.912 725.564ZM478.473 726.008C477.034 726.073 475.901 725.804 475.073 725.201C474.261 724.597 473.828 723.711 473.775 722.544C473.719 721.298 474.092 720.328 474.893 719.635C475.711 718.941 476.871 718.561 478.373 718.493L481.586 718.348L481.679 720.41L479.33 720.516C478.259 720.564 477.514 720.75 477.096 721.073C476.678 721.38 476.481 721.806 476.505 722.349C476.526 722.813 476.727 723.172 477.107 723.427C477.502 723.665 478.035 723.769 478.706 723.739C479.314 723.712 479.835 723.552 480.27 723.26C480.706 722.968 481.033 722.593 481.253 722.135C481.488 721.675 481.593 721.166 481.568 720.607L482.359 720.571C482.433 722.201 482.163 723.503 481.55 724.475C480.937 725.432 479.911 725.943 478.473 726.008ZM487.34 725.319L486.799 713.331L489.46 713.211L490.002 725.199L487.34 725.319ZM488.039 710.993C487.607 711.012 487.225 710.878 486.891 710.588C486.573 710.282 486.404 709.914 486.385 709.482C486.365 709.05 486.501 708.676 486.79 708.359C487.096 708.04 487.465 707.872 487.897 707.852C488.328 707.833 488.703 707.968 489.02 708.258C489.354 708.547 489.53 708.908 489.55 709.339C489.569 709.771 489.426 710.153 489.121 710.488C488.831 710.805 488.47 710.973 488.039 710.993ZM493.166 725.056L492.625 713.068L495.142 712.954L495.41 715.153L495.852 724.935L493.166 725.056ZM501.294 724.689L501.017 718.551L503.702 718.43L503.979 724.567L501.294 724.689ZM501.017 718.551C500.974 717.592 500.828 716.862 500.582 716.36C500.35 715.842 500.03 715.488 499.621 715.299C499.228 715.108 498.768 715.025 498.24 715.049C497.344 715.073 496.662 715.4 496.194 716.03C495.726 716.66 495.518 717.542 495.569 718.677L494.562 718.722C494.505 717.46 494.64 716.373 494.967 715.461C495.294 714.533 495.79 713.822 496.457 713.327C497.122 712.817 497.927 712.54 498.87 712.498C499.829 712.454 500.652 712.609 501.341 712.963C502.046 713.315 502.592 713.891 502.981 714.69C503.384 715.473 503.616 716.512 503.674 717.806L503.702 718.43L501.017 718.551Z" fill="#0075FF"/>
</g>
</g>
<defs>
<filter id="filter0_d_18_161" x="5.24475" y="-6.16187" width="834.3" height="958.301" filterUnits="userSpaceOnUse" color-interpolation-filters="sRGB">
<feFlood flood-opacity="0" result="BackgroundImageFix"/>
<feColorMatrix in="SourceAlpha" type="matrix" values="0 0 0 0 0 0 0 0 0 0 0 0 0 0 0 0 0 0 127 0" result="hardAlpha"/>
<feOffset dy="4"/>
<feGaussianBlur stdDeviation="27"/>
<feComposite in2="hardAlpha" operator="out"/>
<feColorMatrix type="matrix" values="0 0 0 0 0 0 0 0 0 0 0 0 0 0 0 0 0 0 0.12 0"/>
<feBlend mode="normal" in2="BackgroundImageFix" result="effect1_dropShadow_18_161"/>
<feBlend mode="normal" in="SourceGraphic" in2="effect1_dropShadow_18_161" result="shape"/>
</filter>
<filter id="filter1_d_18_161" x="236.351" y="357.427" width="336.821" height="336.821" filterUnits="userSpaceOnUse" color-interpolation-filters="sRGB">
<feFlood flood-opacity="0" result="BackgroundImageFix"/>
<feColorMatrix in="SourceAlpha" type="matrix" values="0 0 0 0 0 0 0 0 0 0 0 0 0 0 0 0 0 0 127 0" result="hardAlpha"/>
<feOffset dy="4"/>
<feGaussianBlur stdDeviation="32"/>
<feComposite in2="hardAlpha" operator="out"/>
<feColorMatrix type="matrix" values="0 0 0 0 0 0 0 0 0 0.44826 0 0 0 0 0.974479 0 0 0 0.2 0"/>
<feBlend mode="normal" in2="BackgroundImageFix" result="effect1_dropShadow_18_161"/>
<feBlend mode="normal" in="SourceGraphic" in2="effect1_dropShadow_18_161" result="shape"/>
</filter>
<linearGradient id="paint0_linear_18_161" x1="125.423" y1="130.605" x2="142.263" y2="157.713" gradientUnits="userSpaceOnUse">
<stop stop-color="#4FFF80"/>
<stop offset="1" stop-color="#FBFF33"/>
</linearGradient>
<clipPath id="clip0_18_161">
<rect width="960" height="1090" fill="white"/>
</clipPath>
<clipPath id="clip1_18_161">
<rect x="109.362" y="120.76" width="48" height="48" rx="24" transform="rotate(-2.5864 109.362 120.76)" fill="white"/>
</clipPath>
</defs>
</svg>
