<svg width="88" height="32" viewBox="0 0 88 32" fill="none" xmlns="http://www.w3.org/2000/svg">
<path d="M16 15C16 10.8579 13.4816 7.5 10.375 7.5C13.4816 7.5 16 4.14214 16 0C16 4.14214 18.5184 7.5 21.625 7.5C18.5184 7.5 16 10.8579 16 15Z" fill="white"/>
<path d="M16 17C16 21.1421 13.4816 24.5 10.375 24.5C13.4816 24.5 16 27.8579 16 32C16 27.8579 18.5184 24.5 21.625 24.5C18.5184 24.5 16 21.1421 16 17Z" fill="white"/>
<path d="M15 16.0002C10.8579 16.0002 7.5 18.5186 7.5 21.6252C7.5 18.5186 4.14214 16.0002 0 16.0002C4.14214 16.0002 7.5 13.4818 7.5 10.3752C7.5 13.4818 10.8579 16.0002 15 16.0002Z" fill="white"/>
<path d="M17 16.0002C21.1421 16.0002 24.5 18.5186 24.5 21.6252C24.5 18.5186 27.8579 16.0002 32 16.0002C27.8579 16.0002 24.5 13.4818 24.5 10.3752C24.5 13.4818 21.1421 16.0002 17 16.0002Z" fill="white"/>
<path d="M44.326 22.216C43.054 22.216 41.92 21.94 40.924 21.388C39.94 20.824 39.166 20.056 38.602 19.084C38.05 18.1 37.774 16.978 37.774 15.718C37.774 14.434 38.05 13.306 38.602 12.334C39.166 11.35 39.94 10.582 40.924 10.03C41.92 9.466 43.054 9.184 44.326 9.184C45.022 9.184 45.688 9.298 46.324 9.526C46.972 9.742 47.554 10.048 48.07 10.444C48.598 10.828 49.024 11.272 49.348 11.776L47.926 12.712C47.686 12.34 47.374 12.01 46.99 11.722C46.606 11.434 46.18 11.212 45.712 11.056C45.256 10.888 44.794 10.804 44.326 10.804C43.402 10.804 42.58 11.014 41.86 11.434C41.152 11.854 40.594 12.43 40.186 13.162C39.778 13.894 39.574 14.746 39.574 15.718C39.574 16.666 39.772 17.506 40.168 18.238C40.576 18.97 41.14 19.546 41.86 19.966C42.592 20.386 43.426 20.596 44.362 20.596C45.118 20.596 45.79 20.44 46.378 20.128C46.978 19.816 47.446 19.378 47.782 18.814C48.13 18.25 48.304 17.596 48.304 16.852L50.014 16.69C50.014 17.806 49.768 18.778 49.276 19.606C48.796 20.434 48.13 21.076 47.278 21.532C46.426 21.988 45.442 22.216 44.326 22.216ZM45.244 16.96V15.484H50.014V16.78L49.114 16.96H45.244ZM57.9135 22L57.8055 20.344V13H59.4975V22H57.9135ZM51.5775 17.608V13H53.2875V17.608H51.5775ZM53.2875 17.608C53.2875 18.412 53.3775 19.03 53.5575 19.462C53.7495 19.894 54.0135 20.194 54.3495 20.362C54.6855 20.53 55.0635 20.62 55.4835 20.632C56.2155 20.632 56.7855 20.374 57.1935 19.858C57.6015 19.342 57.8055 18.616 57.8055 17.68H58.5435C58.5435 18.628 58.3995 19.444 58.1115 20.128C57.8355 20.8 57.4395 21.316 56.9235 21.676C56.4075 22.036 55.7775 22.216 55.0335 22.216C54.3375 22.216 53.7255 22.072 53.1975 21.784C52.6815 21.496 52.2795 21.046 51.9915 20.434C51.7155 19.822 51.5775 19.03 51.5775 18.058V17.608H53.2875ZM65.8613 22.216C64.9853 22.216 64.2113 22.018 63.5393 21.622C62.8673 21.214 62.3393 20.656 61.9553 19.948C61.5713 19.24 61.3793 18.424 61.3793 17.5C61.3793 16.576 61.5713 15.76 61.9553 15.052C62.3393 14.344 62.8673 13.792 63.5393 13.396C64.2233 12.988 65.0033 12.784 65.8793 12.784C66.7073 12.784 67.4333 12.994 68.0573 13.414C68.6813 13.822 69.1673 14.41 69.5153 15.178C69.8753 15.934 70.0553 16.828 70.0553 17.86H62.7833L63.1073 17.59C63.1073 18.226 63.2333 18.778 63.4853 19.246C63.7373 19.714 64.0793 20.074 64.5113 20.326C64.9433 20.566 65.4353 20.686 65.9873 20.686C66.5873 20.686 67.0853 20.548 67.4813 20.272C67.8893 19.984 68.2073 19.624 68.4353 19.192L69.9113 19.876C69.6713 20.344 69.3593 20.758 68.9753 21.118C68.5913 21.466 68.1353 21.736 67.6073 21.928C67.0913 22.12 66.5093 22.216 65.8613 22.216ZM63.2153 16.78L62.8733 16.51H68.5613L68.2373 16.78C68.2373 16.252 68.1293 15.802 67.9133 15.43C67.6973 15.046 67.4093 14.758 67.0493 14.566C66.6893 14.362 66.2873 14.26 65.8433 14.26C65.4113 14.26 64.9913 14.362 64.5833 14.566C64.1873 14.758 63.8573 15.04 63.5933 15.412C63.3413 15.784 63.2153 16.24 63.2153 16.78ZM74.9666 22.216C74.3306 22.216 73.7606 22.12 73.2566 21.928C72.7646 21.736 72.3446 21.478 71.9966 21.154C71.6606 20.83 71.4086 20.464 71.2406 20.056L72.7166 19.408C72.9086 19.78 73.1966 20.086 73.5806 20.326C73.9646 20.566 74.3906 20.686 74.8586 20.686C75.3746 20.686 75.8006 20.59 76.1366 20.398C76.4726 20.206 76.6406 19.936 76.6406 19.588C76.6406 19.252 76.5146 18.988 76.2626 18.796C76.0106 18.604 75.6446 18.448 75.1646 18.328L74.3186 18.112C73.4786 17.884 72.8246 17.542 72.3566 17.086C71.9006 16.63 71.6726 16.114 71.6726 15.538C71.6726 14.662 71.9546 13.984 72.5186 13.504C73.0826 13.024 73.9166 12.784 75.0206 12.784C75.5606 12.784 76.0526 12.862 76.4966 13.018C76.9526 13.174 77.3366 13.396 77.6486 13.684C77.9726 13.972 78.2006 14.314 78.3326 14.71L76.8926 15.358C76.7486 14.998 76.5026 14.734 76.1546 14.566C75.8066 14.386 75.3986 14.296 74.9306 14.296C74.4506 14.296 74.0726 14.404 73.7966 14.62C73.5206 14.824 73.3826 15.112 73.3826 15.484C73.3826 15.688 73.4966 15.886 73.7246 16.078C73.9646 16.258 74.3126 16.408 74.7686 16.528L75.7406 16.762C76.3286 16.906 76.8146 17.128 77.1986 17.428C77.5826 17.716 77.8706 18.046 78.0626 18.418C78.2546 18.778 78.3506 19.156 78.3506 19.552C78.3506 20.092 78.2006 20.566 77.9006 20.974C77.6126 21.37 77.2106 21.676 76.6946 21.892C76.1906 22.108 75.6146 22.216 74.9666 22.216ZM83.3338 22.216C82.6978 22.216 82.1278 22.12 81.6238 21.928C81.1318 21.736 80.7118 21.478 80.3638 21.154C80.0278 20.83 79.7758 20.464 79.6078 20.056L81.0838 19.408C81.2758 19.78 81.5638 20.086 81.9478 20.326C82.3318 20.566 82.7578 20.686 83.2258 20.686C83.7418 20.686 84.1678 20.59 84.5038 20.398C84.8398 20.206 85.0078 19.936 85.0078 19.588C85.0078 19.252 84.8818 18.988 84.6298 18.796C84.3778 18.604 84.0118 18.448 83.5318 18.328L82.6858 18.112C81.8458 17.884 81.1918 17.542 80.7238 17.086C80.2678 16.63 80.0398 16.114 80.0398 15.538C80.0398 14.662 80.3218 13.984 80.8858 13.504C81.4498 13.024 82.2838 12.784 83.3878 12.784C83.9278 12.784 84.4198 12.862 84.8638 13.018C85.3198 13.174 85.7038 13.396 86.0158 13.684C86.3398 13.972 86.5678 14.314 86.6998 14.71L85.2598 15.358C85.1158 14.998 84.8698 14.734 84.5218 14.566C84.1738 14.386 83.7658 14.296 83.2978 14.296C82.8178 14.296 82.4398 14.404 82.1638 14.62C81.8878 14.824 81.7498 15.112 81.7498 15.484C81.7498 15.688 81.8638 15.886 82.0918 16.078C82.3318 16.258 82.6798 16.408 83.1358 16.528L84.1078 16.762C84.6958 16.906 85.1818 17.128 85.5658 17.428C85.9498 17.716 86.2378 18.046 86.4298 18.418C86.6218 18.778 86.7178 19.156 86.7178 19.552C86.7178 20.092 86.5678 20.566 86.2678 20.974C85.9798 21.37 85.5778 21.676 85.0618 21.892C84.5578 22.108 83.9818 22.216 83.3338 22.216Z" fill="white"/>
</svg>
