<svg width="960" height="1090" viewBox="0 0 960 1090" fill="none" xmlns="http://www.w3.org/2000/svg">
<g clip-path="url(#clip0_18_145)">
<g filter="url(#filter0_d_18_145)">
<rect width="690" height="820" transform="translate(50 50)" fill="white"/>
<path d="M110.928 256.384C108.667 256.384 106.651 255.893 104.88 254.912C103.131 253.909 101.755 252.544 100.752 250.816C99.7493 249.067 99.248 247.072 99.248 244.832C99.248 242.549 99.7493 240.544 100.752 238.816C101.755 237.067 103.131 235.701 104.88 234.72C106.651 233.717 108.667 233.216 110.928 233.216C112.229 233.216 113.445 233.419 114.576 233.824C115.728 234.229 116.763 234.784 117.68 235.488C118.597 236.171 119.344 236.971 119.92 237.888L116.912 239.808C116.507 239.189 115.984 238.635 115.344 238.144C114.704 237.653 114 237.28 113.232 237.024C112.485 236.747 111.717 236.608 110.928 236.608C109.392 236.608 108.027 236.96 106.832 237.664C105.659 238.368 104.731 239.339 104.048 240.576C103.365 241.792 103.024 243.211 103.024 244.832C103.024 246.411 103.355 247.819 104.016 249.056C104.699 250.293 105.637 251.264 106.832 251.968C108.048 252.672 109.445 253.024 111.024 253.024C112.261 253.024 113.371 252.768 114.352 252.256C115.333 251.744 116.101 251.029 116.656 250.112C117.232 249.195 117.52 248.139 117.52 246.944L121.072 246.496C121.072 248.523 120.635 250.283 119.76 251.776C118.907 253.248 117.712 254.389 116.176 255.2C114.661 255.989 112.912 256.384 110.928 256.384ZM112.144 247.232V244.224H121.072V246.72L119.088 247.232H112.144ZM124.208 256V240H127.76V256H124.208ZM126 236.96C125.424 236.96 124.923 236.757 124.496 236.352C124.091 235.925 123.888 235.424 123.888 234.848C123.888 234.272 124.091 233.781 124.496 233.376C124.923 232.971 125.424 232.768 126 232.768C126.576 232.768 127.067 232.971 127.472 233.376C127.899 233.781 128.112 234.272 128.112 234.848C128.112 235.424 127.899 235.925 127.472 236.352C127.067 236.757 126.576 236.96 126 236.96ZM137.136 256L143.376 240H147.088L140.496 256H137.136ZM136.88 256L130.256 240H133.936L140.208 256H136.88ZM156.026 256.384C154.469 256.384 153.082 256.032 151.866 255.328C150.672 254.603 149.722 253.611 149.018 252.352C148.336 251.093 147.994 249.643 147.994 248C147.994 246.357 148.346 244.907 149.05 243.648C149.754 242.389 150.714 241.408 151.93 240.704C153.168 239.979 154.576 239.616 156.154 239.616C157.584 239.616 158.874 239.989 160.026 240.736C161.178 241.461 162.085 242.517 162.746 243.904C163.429 245.291 163.77 246.944 163.77 248.864H151.194L151.674 248.416C151.674 249.397 151.888 250.251 152.314 250.976C152.741 251.68 153.306 252.224 154.01 252.608C154.714 252.992 155.493 253.184 156.346 253.184C157.328 253.184 158.138 252.971 158.778 252.544C159.418 252.096 159.92 251.52 160.282 250.816L163.45 252.16C163.002 253.013 162.426 253.76 161.722 254.4C161.04 255.04 160.218 255.531 159.258 255.872C158.32 256.213 157.242 256.384 156.026 256.384ZM151.898 246.56L151.386 246.112H160.41L159.93 246.56C159.93 245.685 159.738 244.971 159.354 244.416C158.97 243.84 158.48 243.413 157.882 243.136C157.306 242.837 156.698 242.688 156.058 242.688C155.418 242.688 154.778 242.837 154.138 243.136C153.498 243.413 152.965 243.84 152.538 244.416C152.112 244.971 151.898 245.685 151.898 246.56ZM184.954 256L184.762 253.056V240H188.314V256H184.954ZM173.882 248.192V240H177.466V248.192H173.882ZM177.466 248.192C177.466 249.451 177.615 250.432 177.914 251.136C178.213 251.84 178.618 252.331 179.13 252.608C179.663 252.885 180.271 253.024 180.954 253.024C182.17 253.045 183.109 252.651 183.77 251.84C184.431 251.029 184.762 249.867 184.762 248.352H186.106C186.106 250.037 185.85 251.488 185.338 252.704C184.847 253.899 184.143 254.816 183.226 255.456C182.33 256.075 181.242 256.384 179.962 256.384C178.703 256.384 177.615 256.128 176.698 255.616C175.802 255.104 175.109 254.304 174.618 253.216C174.127 252.128 173.882 250.731 173.882 249.024V248.192H177.466ZM198.121 256.384C197.054 256.384 196.073 256.224 195.177 255.904C194.281 255.584 193.513 255.136 192.873 254.56C192.233 253.963 191.742 253.269 191.401 252.48L194.505 251.104C194.825 251.701 195.294 252.203 195.913 252.608C196.553 253.013 197.257 253.216 198.025 253.216C198.857 253.216 199.518 253.077 200.009 252.8C200.521 252.501 200.777 252.096 200.777 251.584C200.777 251.093 200.585 250.72 200.201 250.464C199.817 250.187 199.273 249.963 198.569 249.792L197.065 249.376C195.55 248.992 194.366 248.384 193.513 247.552C192.659 246.699 192.233 245.728 192.233 244.64C192.233 243.04 192.745 241.803 193.769 240.928C194.814 240.053 196.307 239.616 198.249 239.616C199.23 239.616 200.126 239.765 200.937 240.064C201.769 240.341 202.483 240.747 203.081 241.28C203.678 241.792 204.094 242.4 204.329 243.104L201.353 244.448C201.139 243.915 200.734 243.509 200.137 243.232C199.539 242.933 198.878 242.784 198.153 242.784C197.427 242.784 196.862 242.944 196.457 243.264C196.051 243.563 195.849 243.989 195.849 244.544C195.849 244.864 196.03 245.163 196.393 245.44C196.755 245.696 197.278 245.909 197.961 246.08L199.849 246.528C200.894 246.784 201.747 247.189 202.409 247.744C203.07 248.277 203.561 248.885 203.881 249.568C204.201 250.229 204.361 250.901 204.361 251.584C204.361 252.544 204.083 253.387 203.529 254.112C202.995 254.837 202.259 255.403 201.321 255.808C200.382 256.192 199.315 256.384 198.121 256.384ZM217.45 262.784C216.938 262.784 216.362 262.688 215.722 262.496C215.103 262.304 214.506 262.059 213.93 261.76L215.274 258.848C215.679 259.04 216.052 259.189 216.394 259.296C216.735 259.424 217.012 259.488 217.226 259.488C217.738 259.488 218.164 259.349 218.506 259.072C218.868 258.816 219.156 258.432 219.37 257.92L221.258 253.504L226.666 240H230.569L223.146 257.696C222.698 258.72 222.239 259.616 221.77 260.384C221.322 261.152 220.756 261.739 220.074 262.144C219.391 262.571 218.516 262.784 217.45 262.784ZM220.298 256L213.13 240H217.034L222.602 253.472L223.754 256H220.298ZM239.625 256.384C238.025 256.384 236.596 256.032 235.337 255.328C234.1 254.603 233.129 253.611 232.425 252.352C231.721 251.093 231.369 249.643 231.369 248C231.369 246.357 231.711 244.907 232.393 243.648C233.097 242.389 234.068 241.408 235.305 240.704C236.543 239.979 237.961 239.616 239.561 239.616C241.161 239.616 242.58 239.979 243.817 240.704C245.055 241.408 246.015 242.389 246.697 243.648C247.401 244.907 247.753 246.357 247.753 248C247.753 249.643 247.412 251.093 246.729 252.352C246.047 253.611 245.087 254.603 243.849 255.328C242.612 256.032 241.204 256.384 239.625 256.384ZM239.625 253.088C240.5 253.088 241.279 252.875 241.961 252.448C242.644 252 243.177 251.403 243.561 250.656C243.945 249.888 244.137 249.003 244.137 248C244.137 246.997 243.935 246.123 243.529 245.376C243.145 244.608 242.612 244.011 241.929 243.584C241.247 243.136 240.457 242.912 239.561 242.912C238.665 242.912 237.876 243.125 237.193 243.552C236.511 243.979 235.977 244.576 235.593 245.344C235.209 246.112 235.017 246.997 235.017 248C235.017 249.003 235.209 249.888 235.593 250.656C235.999 251.403 236.543 252 237.225 252.448C237.929 252.875 238.729 253.088 239.625 253.088ZM261.579 256L261.387 253.056V240H264.939V256H261.579ZM250.507 248.192V240H254.091V248.192H250.507ZM254.091 248.192C254.091 249.451 254.24 250.432 254.539 251.136C254.838 251.84 255.243 252.331 255.755 252.608C256.288 252.885 256.896 253.024 257.579 253.024C258.795 253.045 259.734 252.651 260.395 251.84C261.056 251.029 261.387 249.867 261.387 248.352H262.731C262.731 250.037 262.475 251.488 261.963 252.704C261.472 253.899 260.768 254.816 259.851 255.456C258.955 256.075 257.867 256.384 256.587 256.384C255.328 256.384 254.24 256.128 253.323 255.616C252.427 255.104 251.734 254.304 251.243 253.216C250.752 252.128 250.507 250.731 250.507 249.024V248.192H254.091ZM271.29 247.488C271.29 245.76 271.62 244.341 272.282 243.232C272.943 242.123 273.796 241.301 274.842 240.768C275.908 240.213 277.018 239.936 278.17 239.936V243.36C277.188 243.36 276.26 243.499 275.385 243.776C274.532 244.032 273.839 244.459 273.306 245.056C272.772 245.653 272.506 246.443 272.506 247.424L271.29 247.488ZM268.922 256V240H272.506V256H268.922ZM289.865 256V238.304C289.865 236.619 290.281 235.328 291.113 234.432C291.967 233.515 293.247 233.056 294.953 233.056C295.508 233.056 296.095 233.152 296.713 233.344C297.353 233.515 297.961 233.749 298.537 234.048L297.225 236.704C296.82 236.512 296.457 236.373 296.137 236.288C295.839 236.203 295.572 236.16 295.337 236.16C294.697 236.16 294.217 236.373 293.897 236.8C293.599 237.205 293.449 237.877 293.449 238.816V256H289.865ZM287.113 242.944V240H297.641V242.944H287.113ZM307.401 256.384C305.844 256.384 304.457 256.032 303.241 255.328C302.047 254.603 301.097 253.611 300.393 252.352C299.711 251.093 299.369 249.643 299.369 248C299.369 246.357 299.721 244.907 300.425 243.648C301.129 242.389 302.089 241.408 303.305 240.704C304.543 239.979 305.951 239.616 307.529 239.616C308.959 239.616 310.249 239.989 311.401 240.736C312.553 241.461 313.46 242.517 314.121 243.904C314.804 245.291 315.145 246.944 315.145 248.864H302.569L303.049 248.416C303.049 249.397 303.263 250.251 303.689 250.976C304.116 251.68 304.681 252.224 305.385 252.608C306.089 252.992 306.868 253.184 307.721 253.184C308.703 253.184 309.513 252.971 310.153 252.544C310.793 252.096 311.295 251.52 311.657 250.816L314.825 252.16C314.377 253.013 313.801 253.76 313.097 254.4C312.415 255.04 311.593 255.531 310.633 255.872C309.695 256.213 308.617 256.384 307.401 256.384ZM303.273 246.56L302.761 246.112H311.785L311.305 246.56C311.305 245.685 311.113 244.971 310.729 244.416C310.345 243.84 309.855 243.413 309.257 243.136C308.681 242.837 308.073 242.688 307.433 242.688C306.793 242.688 306.153 242.837 305.513 243.136C304.873 243.413 304.34 243.84 303.913 244.416C303.487 244.971 303.273 245.685 303.273 246.56ZM325.026 256.384C323.469 256.384 322.082 256.032 320.866 255.328C319.672 254.603 318.722 253.611 318.018 252.352C317.336 251.093 316.994 249.643 316.994 248C316.994 246.357 317.346 244.907 318.05 243.648C318.754 242.389 319.714 241.408 320.93 240.704C322.168 239.979 323.576 239.616 325.154 239.616C326.584 239.616 327.874 239.989 329.026 240.736C330.178 241.461 331.085 242.517 331.746 243.904C332.429 245.291 332.77 246.944 332.77 248.864H320.194L320.674 248.416C320.674 249.397 320.888 250.251 321.314 250.976C321.741 251.68 322.306 252.224 323.01 252.608C323.714 252.992 324.493 253.184 325.346 253.184C326.328 253.184 327.138 252.971 327.778 252.544C328.418 252.096 328.92 251.52 329.282 250.816L332.45 252.16C332.002 253.013 331.426 253.76 330.722 254.4C330.04 255.04 329.218 255.531 328.258 255.872C327.32 256.213 326.242 256.384 325.026 256.384ZM320.898 246.56L320.386 246.112H329.41L328.93 246.56C328.93 245.685 328.738 244.971 328.354 244.416C327.97 243.84 327.48 243.413 326.882 243.136C326.306 242.837 325.698 242.688 325.058 242.688C324.418 242.688 323.778 242.837 323.138 243.136C322.498 243.413 321.965 243.84 321.538 244.416C321.112 244.971 320.898 245.685 320.898 246.56ZM347.067 256L346.907 253.024V233.6H350.459V256H347.067ZM341.851 256.384C340.401 256.384 339.131 256.043 338.043 255.36C336.977 254.656 336.134 253.675 335.515 252.416C334.918 251.157 334.619 249.685 334.619 248C334.619 246.293 334.918 244.821 335.515 243.584C336.134 242.325 336.977 241.355 338.043 240.672C339.131 239.968 340.401 239.616 341.851 239.616C343.195 239.616 344.347 239.968 345.307 240.672C346.289 241.355 347.035 242.325 347.547 243.584C348.059 244.821 348.315 246.293 348.315 248C348.315 249.685 348.059 251.157 347.547 252.416C347.035 253.675 346.289 254.656 345.307 255.36C344.347 256.043 343.195 256.384 341.851 256.384ZM342.747 253.12C343.558 253.12 344.273 252.907 344.891 252.48C345.531 252.032 346.022 251.424 346.363 250.656C346.726 249.888 346.907 249.003 346.907 248C346.907 246.997 346.726 246.112 346.363 245.344C346.022 244.576 345.531 243.979 344.891 243.552C344.273 243.125 343.547 242.912 342.715 242.912C341.862 242.912 341.105 243.125 340.443 243.552C339.782 243.979 339.259 244.576 338.875 245.344C338.513 246.112 338.321 246.997 338.299 248C338.321 249.003 338.513 249.888 338.875 250.656C339.259 251.424 339.782 252.032 340.443 252.48C341.126 252.907 341.894 253.12 342.747 253.12ZM354.422 256V233.6H358.006V253.024L357.814 256H354.422ZM363.062 256.384C361.718 256.384 360.555 256.043 359.574 255.36C358.614 254.656 357.878 253.675 357.366 252.416C356.854 251.157 356.598 249.685 356.598 248C356.598 246.293 356.854 244.821 357.366 243.584C357.878 242.325 358.614 241.355 359.574 240.672C360.555 239.968 361.718 239.616 363.062 239.616C364.512 239.616 365.771 239.968 366.838 240.672C367.926 241.355 368.768 242.325 369.366 243.584C369.984 244.821 370.294 246.293 370.294 248C370.294 249.685 369.984 251.157 369.366 252.416C368.768 253.675 367.926 254.656 366.838 255.36C365.771 256.043 364.512 256.384 363.062 256.384ZM362.166 253.12C363.019 253.12 363.776 252.907 364.438 252.48C365.099 252.032 365.622 251.424 366.006 250.656C366.411 249.888 366.614 249.003 366.614 248C366.614 246.997 366.422 246.112 366.038 245.344C365.675 244.576 365.163 243.979 364.502 243.552C363.84 243.125 363.072 242.912 362.198 242.912C361.387 242.912 360.662 243.125 360.022 243.552C359.382 243.979 358.88 244.576 358.518 245.344C358.176 246.112 358.006 246.997 358.006 248C358.006 249.003 358.176 249.888 358.518 250.656C358.88 251.424 359.371 252.032 359.99 252.48C360.63 252.907 361.355 253.12 362.166 253.12ZM383.119 256L382.959 252.992V247.776C382.959 246.688 382.842 245.781 382.607 245.056C382.394 244.309 382.031 243.744 381.519 243.36C381.028 242.955 380.367 242.752 379.535 242.752C378.767 242.752 378.095 242.912 377.519 243.232C376.943 243.552 376.452 244.053 376.047 244.736L372.911 243.584C373.252 242.88 373.7 242.229 374.255 241.632C374.831 241.013 375.546 240.523 376.399 240.16C377.274 239.797 378.319 239.616 379.535 239.616C381.092 239.616 382.394 239.925 383.439 240.544C384.484 241.141 385.252 242.005 385.743 243.136C386.255 244.267 386.511 245.632 386.511 247.232L386.415 256H383.119ZM378.511 256.384C376.591 256.384 375.098 255.957 374.031 255.104C372.986 254.251 372.463 253.045 372.463 251.488C372.463 249.824 373.018 248.555 374.127 247.68C375.258 246.805 376.826 246.368 378.831 246.368H383.119V249.12H379.983C378.554 249.12 377.551 249.323 376.975 249.728C376.399 250.112 376.111 250.667 376.111 251.392C376.111 252.011 376.356 252.501 376.847 252.864C377.359 253.205 378.063 253.376 378.959 253.376C379.77 253.376 380.474 253.195 381.071 252.832C381.668 252.469 382.127 251.989 382.447 251.392C382.788 250.795 382.959 250.123 382.959 249.376H384.015C384.015 251.552 383.578 253.269 382.703 254.528C381.828 255.765 380.431 256.384 378.511 256.384ZM397.628 256.384C395.986 256.384 394.535 256.032 393.276 255.328C392.018 254.603 391.026 253.611 390.3 252.352C389.596 251.093 389.244 249.643 389.244 248C389.244 246.357 389.596 244.907 390.3 243.648C391.026 242.389 392.007 241.408 393.244 240.704C394.503 239.979 395.943 239.616 397.564 239.616C399.143 239.616 400.572 240 401.852 240.768C403.132 241.515 404.082 242.592 404.7 244L401.372 245.28C401.031 244.576 400.508 244.011 399.804 243.584C399.1 243.157 398.3 242.944 397.404 242.944C396.53 242.944 395.751 243.168 395.068 243.616C394.386 244.043 393.852 244.64 393.468 245.408C393.084 246.155 392.892 247.019 392.892 248C392.892 248.981 393.084 249.856 393.468 250.624C393.874 251.371 394.418 251.968 395.1 252.416C395.804 252.843 396.594 253.056 397.468 253.056C398.364 253.056 399.164 252.832 399.868 252.384C400.572 251.915 401.095 251.285 401.436 250.496L404.764 251.776C404.146 253.227 403.196 254.357 401.916 255.168C400.658 255.979 399.228 256.384 397.628 256.384ZM410.971 251.52L408.795 249.056L417.115 240H421.435L410.971 251.52ZM407.547 256V233.6H411.131V256H407.547ZM417.723 256L412.091 247.712L414.427 245.216L421.979 256H417.723ZM439.157 256.384C437.557 256.384 436.127 256.032 434.869 255.328C433.631 254.603 432.661 253.611 431.957 252.352C431.253 251.093 430.901 249.643 430.901 248C430.901 246.357 431.242 244.907 431.924 243.648C432.629 242.389 433.599 241.408 434.837 240.704C436.074 239.979 437.493 239.616 439.093 239.616C440.693 239.616 442.111 239.979 443.349 240.704C444.586 241.408 445.546 242.389 446.229 243.648C446.933 244.907 447.285 246.357 447.285 248C447.285 249.643 446.943 251.093 446.26 252.352C445.578 253.611 444.618 254.603 443.381 255.328C442.143 256.032 440.735 256.384 439.157 256.384ZM439.157 253.088C440.031 253.088 440.81 252.875 441.493 252.448C442.175 252 442.709 251.403 443.093 250.656C443.477 249.888 443.669 249.003 443.669 248C443.669 246.997 443.466 246.123 443.061 245.376C442.677 244.608 442.143 244.011 441.461 243.584C440.778 243.136 439.989 242.912 439.093 242.912C438.197 242.912 437.407 243.125 436.725 243.552C436.042 243.979 435.509 244.576 435.125 245.344C434.741 246.112 434.549 246.997 434.549 248C434.549 249.003 434.741 249.888 435.125 250.656C435.53 251.403 436.074 252 436.757 252.448C437.461 252.875 438.261 253.088 439.157 253.088ZM450.39 256V240H453.75L453.974 242.944V256H450.39ZM461.238 256V247.808H464.822V256H461.238ZM461.238 247.808C461.238 246.528 461.089 245.547 460.79 244.864C460.513 244.16 460.108 243.669 459.574 243.392C459.062 243.115 458.454 242.976 457.75 242.976C456.556 242.955 455.628 243.349 454.966 244.16C454.305 244.971 453.974 246.133 453.974 247.648H452.63C452.63 245.963 452.876 244.523 453.366 243.328C453.857 242.112 454.561 241.195 455.478 240.576C456.396 239.936 457.484 239.616 458.742 239.616C460.022 239.616 461.11 239.872 462.006 240.384C462.924 240.896 463.617 241.696 464.086 242.784C464.577 243.851 464.822 245.248 464.822 246.976V247.808H461.238ZM478.7 262.784C478.188 262.784 477.612 262.688 476.972 262.496C476.353 262.304 475.756 262.059 475.18 261.76L476.524 258.848C476.929 259.04 477.302 259.189 477.644 259.296C477.985 259.424 478.262 259.488 478.476 259.488C478.988 259.488 479.414 259.349 479.756 259.072C480.118 258.816 480.406 258.432 480.62 257.92L482.508 253.504L487.916 240H491.819L484.396 257.696C483.948 258.72 483.489 259.616 483.02 260.384C482.572 261.152 482.006 261.739 481.324 262.144C480.641 262.571 479.766 262.784 478.7 262.784ZM481.548 256L474.38 240H478.284L483.852 253.472L485.004 256H481.548ZM500.875 256.384C499.275 256.384 497.846 256.032 496.587 255.328C495.35 254.603 494.379 253.611 493.675 252.352C492.971 251.093 492.619 249.643 492.619 248C492.619 246.357 492.961 244.907 493.643 243.648C494.347 242.389 495.318 241.408 496.555 240.704C497.793 239.979 499.211 239.616 500.811 239.616C502.411 239.616 503.83 239.979 505.067 240.704C506.305 241.408 507.265 242.389 507.947 243.648C508.651 244.907 509.003 246.357 509.003 248C509.003 249.643 508.662 251.093 507.979 252.352C507.297 253.611 506.337 254.603 505.099 255.328C503.862 256.032 502.454 256.384 500.875 256.384ZM500.875 253.088C501.75 253.088 502.529 252.875 503.211 252.448C503.894 252 504.427 251.403 504.811 250.656C505.195 249.888 505.387 249.003 505.387 248C505.387 246.997 505.185 246.123 504.779 245.376C504.395 244.608 503.862 244.011 503.179 243.584C502.497 243.136 501.707 242.912 500.811 242.912C499.915 242.912 499.126 243.125 498.443 243.552C497.761 243.979 497.227 244.576 496.843 245.344C496.459 246.112 496.267 246.997 496.267 248C496.267 249.003 496.459 249.888 496.843 250.656C497.249 251.403 497.793 252 498.475 252.448C499.179 252.875 499.979 253.088 500.875 253.088ZM522.829 256L522.637 253.056V240H526.189V256H522.829ZM511.757 248.192V240H515.341V248.192H511.757ZM515.341 248.192C515.341 249.451 515.49 250.432 515.789 251.136C516.088 251.84 516.493 252.331 517.005 252.608C517.538 252.885 518.146 253.024 518.829 253.024C520.045 253.045 520.984 252.651 521.645 251.84C522.306 251.029 522.637 249.867 522.637 248.352H523.981C523.981 250.037 523.725 251.488 523.213 252.704C522.722 253.899 522.018 254.816 521.101 255.456C520.205 256.075 519.117 256.384 517.837 256.384C516.578 256.384 515.49 256.128 514.573 255.616C513.677 255.104 512.984 254.304 512.493 253.216C512.002 252.128 511.757 250.731 511.757 249.024V248.192H515.341ZM532.54 247.488C532.54 245.76 532.87 244.341 533.532 243.232C534.193 242.123 535.046 241.301 536.092 240.768C537.158 240.213 538.268 239.936 539.42 239.936V243.36C538.438 243.36 537.51 243.499 536.635 243.776C535.782 244.032 535.089 244.459 534.556 245.056C534.022 245.653 533.756 246.443 533.756 247.424L532.54 247.488ZM530.172 256V240H533.756V256H530.172ZM107.12 294.384C105.563 294.384 104.176 294.032 102.96 293.328C101.765 292.603 100.816 291.611 100.112 290.352C99.4293 289.093 99.088 287.643 99.088 286C99.088 284.357 99.44 282.907 100.144 281.648C100.848 280.389 101.808 279.408 103.024 278.704C104.261 277.979 105.669 277.616 107.248 277.616C108.677 277.616 109.968 277.989 111.12 278.736C112.272 279.461 113.179 280.517 113.84 281.904C114.523 283.291 114.864 284.944 114.864 286.864H102.288L102.768 286.416C102.768 287.397 102.981 288.251 103.408 288.976C103.835 289.68 104.4 290.224 105.104 290.608C105.808 290.992 106.587 291.184 107.44 291.184C108.421 291.184 109.232 290.971 109.872 290.544C110.512 290.096 111.013 289.52 111.376 288.816L114.544 290.16C114.096 291.013 113.52 291.76 112.816 292.4C112.133 293.04 111.312 293.531 110.352 293.872C109.413 294.213 108.336 294.384 107.12 294.384ZM102.992 284.56L102.48 284.112H111.504L111.024 284.56C111.024 283.685 110.832 282.971 110.448 282.416C110.064 281.84 109.573 281.413 108.976 281.136C108.4 280.837 107.792 280.688 107.152 280.688C106.512 280.688 105.872 280.837 105.232 281.136C104.592 281.413 104.059 281.84 103.632 282.416C103.205 282.971 102.992 283.685 102.992 284.56ZM115.539 294L122.099 284.848L126.675 278H130.899L124.659 286.832L119.827 294H115.539ZM127.027 294L122.291 286.832L115.955 278H120.179L124.787 284.848L131.283 294H127.027ZM133.738 300.4V278H137.098L137.322 280.944V300.4H133.738ZM142.378 294.384C141.034 294.384 139.871 294.043 138.89 293.36C137.93 292.656 137.194 291.675 136.682 290.416C136.17 289.157 135.914 287.685 135.914 286C135.914 284.293 136.17 282.821 136.682 281.584C137.194 280.325 137.93 279.355 138.89 278.672C139.871 277.968 141.034 277.616 142.378 277.616C143.828 277.616 145.087 277.968 146.154 278.672C147.242 279.355 148.084 280.325 148.682 281.584C149.3 282.821 149.61 284.293 149.61 286C149.61 287.685 149.3 289.157 148.682 290.416C148.084 291.675 147.242 292.656 146.154 293.36C145.087 294.043 143.828 294.384 142.378 294.384ZM141.482 291.12C142.335 291.12 143.092 290.907 143.754 290.48C144.415 290.032 144.938 289.424 145.322 288.656C145.727 287.888 145.93 287.003 145.93 286C145.93 284.997 145.738 284.112 145.354 283.344C144.991 282.576 144.479 281.979 143.818 281.552C143.156 281.125 142.388 280.912 141.514 280.912C140.703 280.912 139.978 281.125 139.338 281.552C138.698 281.979 138.196 282.576 137.834 283.344C137.492 284.112 137.322 284.997 137.322 286C137.322 287.003 137.492 287.888 137.834 288.656C138.196 289.424 138.687 290.032 139.306 290.48C139.946 290.907 140.671 291.12 141.482 291.12ZM159.808 294.384C158.25 294.384 156.864 294.032 155.648 293.328C154.453 292.603 153.504 291.611 152.799 290.352C152.117 289.093 151.776 287.643 151.776 286C151.776 284.357 152.128 282.907 152.832 281.648C153.536 280.389 154.496 279.408 155.712 278.704C156.949 277.979 158.357 277.616 159.936 277.616C161.365 277.616 162.656 277.989 163.808 278.736C164.96 279.461 165.866 280.517 166.528 281.904C167.21 283.291 167.552 284.944 167.552 286.864H154.976L155.456 286.416C155.456 287.397 155.669 288.251 156.096 288.976C156.522 289.68 157.088 290.224 157.792 290.608C158.496 290.992 159.274 291.184 160.128 291.184C161.109 291.184 161.92 290.971 162.56 290.544C163.2 290.096 163.701 289.52 164.064 288.816L167.232 290.16C166.784 291.013 166.208 291.76 165.504 292.4C164.821 293.04 164 293.531 163.04 293.872C162.101 294.213 161.024 294.384 159.808 294.384ZM155.68 284.56L155.168 284.112H164.192L163.712 284.56C163.712 283.685 163.52 282.971 163.136 282.416C162.752 281.84 162.261 281.413 161.664 281.136C161.088 280.837 160.48 280.688 159.84 280.688C159.2 280.688 158.56 280.837 157.92 281.136C157.28 281.413 156.746 281.84 156.32 282.416C155.893 282.971 155.68 283.685 155.68 284.56ZM172.665 285.488C172.665 283.76 172.995 282.341 173.657 281.232C174.318 280.123 175.171 279.301 176.217 278.768C177.283 278.213 178.393 277.936 179.545 277.936V281.36C178.563 281.36 177.635 281.499 176.76 281.776C175.907 282.032 175.214 282.459 174.681 283.056C174.147 283.653 173.881 284.443 173.881 285.424L172.665 285.488ZM170.297 294V278H173.881V294H170.297ZM182.146 294V278H185.698V294H182.146ZM183.938 274.96C183.362 274.96 182.86 274.757 182.434 274.352C182.028 273.925 181.826 273.424 181.826 272.848C181.826 272.272 182.028 271.781 182.434 271.376C182.86 270.971 183.362 270.768 183.938 270.768C184.514 270.768 185.004 270.971 185.41 271.376C185.836 271.781 186.05 272.272 186.05 272.848C186.05 273.424 185.836 273.925 185.41 274.352C185.004 274.757 184.514 274.96 183.938 274.96ZM197.058 294.384C195.5 294.384 194.114 294.032 192.898 293.328C191.703 292.603 190.754 291.611 190.049 290.352C189.367 289.093 189.026 287.643 189.026 286C189.026 284.357 189.378 282.907 190.082 281.648C190.786 280.389 191.746 279.408 192.962 278.704C194.199 277.979 195.607 277.616 197.186 277.616C198.615 277.616 199.906 277.989 201.058 278.736C202.21 279.461 203.116 280.517 203.778 281.904C204.46 283.291 204.802 284.944 204.802 286.864H192.226L192.706 286.416C192.706 287.397 192.919 288.251 193.346 288.976C193.772 289.68 194.338 290.224 195.042 290.608C195.746 290.992 196.524 291.184 197.378 291.184C198.359 291.184 199.17 290.971 199.81 290.544C200.45 290.096 200.951 289.52 201.314 288.816L204.482 290.16C204.034 291.013 203.458 291.76 202.754 292.4C202.071 293.04 201.25 293.531 200.29 293.872C199.351 294.213 198.274 294.384 197.058 294.384ZM192.93 284.56L192.418 284.112H201.442L200.962 284.56C200.962 283.685 200.77 282.971 200.386 282.416C200.002 281.84 199.511 281.413 198.914 281.136C198.338 280.837 197.73 280.688 197.09 280.688C196.45 280.688 195.81 280.837 195.17 281.136C194.53 281.413 193.996 281.84 193.57 282.416C193.143 282.971 192.93 283.685 192.93 284.56ZM207.547 294V278H210.907L211.131 280.944V294H207.547ZM218.395 294V285.808H221.979V294H218.395ZM218.395 285.808C218.395 284.528 218.245 283.547 217.947 282.864C217.669 282.16 217.264 281.669 216.731 281.392C216.219 281.115 215.611 280.976 214.907 280.976C213.712 280.955 212.784 281.349 212.123 282.16C211.461 282.971 211.131 284.133 211.131 285.648H209.786C209.786 283.963 210.032 282.523 210.523 281.328C211.013 280.112 211.717 279.195 212.635 278.576C213.552 277.936 214.64 277.616 215.899 277.616C217.179 277.616 218.267 277.872 219.163 278.384C220.08 278.896 220.773 279.696 221.243 280.784C221.733 281.851 221.979 283.248 221.979 284.976V285.808H218.395ZM233.097 294.384C231.454 294.384 230.004 294.032 228.745 293.328C227.486 292.603 226.494 291.611 225.769 290.352C225.065 289.093 224.713 287.643 224.713 286C224.713 284.357 225.065 282.907 225.769 281.648C226.494 280.389 227.476 279.408 228.713 278.704C229.972 277.979 231.412 277.616 233.033 277.616C234.612 277.616 236.041 278 237.321 278.768C238.601 279.515 239.55 280.592 240.169 282L236.841 283.28C236.5 282.576 235.977 282.011 235.273 281.584C234.569 281.157 233.769 280.944 232.873 280.944C231.998 280.944 231.22 281.168 230.537 281.616C229.854 282.043 229.321 282.64 228.937 283.408C228.553 284.155 228.361 285.019 228.361 286C228.361 286.981 228.553 287.856 228.937 288.624C229.342 289.371 229.886 289.968 230.569 290.416C231.273 290.843 232.062 291.056 232.937 291.056C233.833 291.056 234.633 290.832 235.337 290.384C236.041 289.915 236.564 289.285 236.905 288.496L240.233 289.776C239.614 291.227 238.665 292.357 237.385 293.168C236.126 293.979 234.697 294.384 233.097 294.384ZM250.151 294.384C248.594 294.384 247.207 294.032 245.991 293.328C244.797 292.603 243.847 291.611 243.143 290.352C242.461 289.093 242.119 287.643 242.119 286C242.119 284.357 242.471 282.907 243.175 281.648C243.879 280.389 244.839 279.408 246.055 278.704C247.293 277.979 248.701 277.616 250.279 277.616C251.709 277.616 252.999 277.989 254.151 278.736C255.303 279.461 256.21 280.517 256.871 281.904C257.554 283.291 257.895 284.944 257.895 286.864H245.319L245.799 286.416C245.799 287.397 246.013 288.251 246.439 288.976C246.866 289.68 247.431 290.224 248.135 290.608C248.839 290.992 249.618 291.184 250.471 291.184C251.453 291.184 252.263 290.971 252.903 290.544C253.543 290.096 254.045 289.52 254.407 288.816L257.575 290.16C257.127 291.013 256.551 291.76 255.847 292.4C255.165 293.04 254.343 293.531 253.383 293.872C252.445 294.213 251.367 294.384 250.151 294.384ZM246.023 284.56L245.511 284.112H254.535L254.055 284.56C254.055 283.685 253.863 282.971 253.479 282.416C253.095 281.84 252.605 281.413 252.007 281.136C251.431 280.837 250.823 280.688 250.183 280.688C249.543 280.688 248.903 280.837 248.263 281.136C247.623 281.413 247.09 281.84 246.663 282.416C246.237 282.971 246.023 283.685 246.023 284.56ZM283.175 294L288.519 278H292.135L286.695 294H283.175ZM272.455 294L277.671 278H280.839L275.687 294H272.455ZM272.135 294L266.695 278H270.311L275.527 294H272.135ZM283.143 294L278.023 278H281.191L286.407 294H283.143ZM294.677 294V278H298.229V294H294.677ZM296.469 274.96C295.893 274.96 295.391 274.757 294.965 274.352C294.559 273.925 294.357 273.424 294.357 272.848C294.357 272.272 294.559 271.781 294.965 271.376C295.391 270.971 295.893 270.768 296.469 270.768C297.045 270.768 297.535 270.971 297.941 271.376C298.367 271.781 298.581 272.272 298.581 272.848C298.581 273.424 298.367 273.925 297.941 274.352C297.535 274.757 297.045 274.96 296.469 274.96ZM308.821 294.384C307.135 294.384 305.845 293.968 304.949 293.136C304.074 292.283 303.637 291.067 303.637 289.488V273.008H307.189V288.816C307.189 289.563 307.359 290.128 307.701 290.512C308.063 290.896 308.586 291.088 309.269 291.088C309.482 291.088 309.717 291.045 309.973 290.96C310.229 290.875 310.517 290.715 310.837 290.48L312.149 293.2C311.594 293.584 311.039 293.872 310.485 294.064C309.93 294.277 309.375 294.384 308.821 294.384ZM300.981 281.072V278H311.509V281.072H300.981ZM315.047 294V271.6H318.631V294H315.047ZM325.895 294V285.808H329.479V294H325.895ZM325.895 285.808C325.895 284.528 325.746 283.547 325.447 282.864C325.149 282.16 324.733 281.669 324.199 281.392C323.687 281.115 323.09 280.976 322.407 280.976C321.191 280.955 320.253 281.349 319.591 282.16C318.951 282.971 318.631 284.133 318.631 285.648H317.255C317.255 283.963 317.501 282.523 317.991 281.328C318.503 280.112 319.218 279.195 320.135 278.576C321.053 277.936 322.141 277.616 323.399 277.616C324.658 277.616 325.746 277.872 326.663 278.384C327.581 278.896 328.274 279.696 328.743 280.784C329.234 281.851 329.479 283.248 329.479 284.976V285.808H325.895ZM351.548 294L351.356 291.056V278H354.908V294H351.548ZM340.476 286.192V278H344.06V286.192H340.476ZM344.06 286.192C344.06 287.451 344.209 288.432 344.508 289.136C344.806 289.84 345.212 290.331 345.724 290.608C346.257 290.885 346.865 291.024 347.548 291.024C348.764 291.045 349.702 290.651 350.364 289.84C351.025 289.029 351.356 287.867 351.356 286.352H352.7C352.7 288.037 352.444 289.488 351.932 290.704C351.441 291.899 350.737 292.816 349.82 293.456C348.924 294.075 347.836 294.384 346.556 294.384C345.297 294.384 344.209 294.128 343.292 293.616C342.396 293.104 341.702 292.304 341.212 291.216C340.721 290.128 340.476 288.731 340.476 287.024V286.192H344.06ZM364.714 294.384C363.648 294.384 362.666 294.224 361.77 293.904C360.874 293.584 360.106 293.136 359.466 292.56C358.826 291.963 358.336 291.269 357.994 290.48L361.098 289.104C361.418 289.701 361.888 290.203 362.506 290.608C363.146 291.013 363.85 291.216 364.618 291.216C365.45 291.216 366.112 291.077 366.602 290.8C367.114 290.501 367.37 290.096 367.37 289.584C367.37 289.093 367.178 288.72 366.794 288.464C366.41 288.187 365.866 287.963 365.162 287.792L363.658 287.376C362.144 286.992 360.96 286.384 360.106 285.552C359.253 284.699 358.826 283.728 358.826 282.64C358.826 281.04 359.338 279.803 360.362 278.928C361.408 278.053 362.901 277.616 364.842 277.616C365.824 277.616 366.72 277.765 367.53 278.064C368.362 278.341 369.077 278.747 369.674 279.28C370.272 279.792 370.688 280.4 370.922 281.104L367.946 282.448C367.733 281.915 367.328 281.509 366.73 281.232C366.133 280.933 365.472 280.784 364.746 280.784C364.021 280.784 363.456 280.944 363.05 281.264C362.645 281.563 362.442 281.989 362.442 282.544C362.442 282.864 362.624 283.163 362.986 283.44C363.349 283.696 363.872 283.909 364.554 284.08L366.442 284.528C367.488 284.784 368.341 285.189 369.002 285.744C369.664 286.277 370.154 286.885 370.474 287.568C370.794 288.229 370.954 288.901 370.954 289.584C370.954 290.544 370.677 291.387 370.122 292.112C369.589 292.837 368.853 293.403 367.914 293.808C366.976 294.192 365.909 294.384 364.714 294.384ZM372.868 297.68L374.789 290.416H378.565L375.685 297.68H372.868ZM404.175 294L409.519 278H413.135L407.695 294H404.175ZM393.455 294L398.671 278H401.839L396.687 294H393.455ZM393.135 294L387.695 278H391.311L396.527 294H393.135ZM404.143 294L399.023 278H402.191L407.407 294H404.143ZM415.485 294V271.6H419.069V294H415.485ZM426.333 294V285.808H429.917V294H426.333ZM426.333 285.808C426.333 284.528 426.183 283.547 425.885 282.864C425.586 282.16 425.17 281.669 424.637 281.392C424.125 281.115 423.527 280.976 422.845 280.976C421.629 280.955 420.69 281.349 420.029 282.16C419.389 282.971 419.069 284.133 419.069 285.648H417.693C417.693 283.963 417.938 282.523 418.429 281.328C418.941 280.112 419.655 279.195 420.573 278.576C421.49 277.936 422.578 277.616 423.837 277.616C425.095 277.616 426.183 277.872 427.101 278.384C428.018 278.896 428.711 279.696 429.181 280.784C429.671 281.851 429.917 283.248 429.917 284.976V285.808H426.333ZM443.307 294L443.147 290.992V285.776C443.147 284.688 443.029 283.781 442.795 283.056C442.581 282.309 442.219 281.744 441.707 281.36C441.216 280.955 440.555 280.752 439.723 280.752C438.955 280.752 438.283 280.912 437.707 281.232C437.131 281.552 436.64 282.053 436.235 282.736L433.099 281.584C433.44 280.88 433.888 280.229 434.443 279.632C435.019 279.013 435.733 278.523 436.587 278.16C437.461 277.797 438.507 277.616 439.723 277.616C441.28 277.616 442.581 277.925 443.627 278.544C444.672 279.141 445.44 280.005 445.931 281.136C446.443 282.267 446.699 283.632 446.699 285.232L446.603 294H443.307ZM438.699 294.384C436.779 294.384 435.285 293.957 434.219 293.104C433.173 292.251 432.651 291.045 432.651 289.488C432.651 287.824 433.205 286.555 434.315 285.68C435.445 284.805 437.013 284.368 439.019 284.368H443.307V287.12H440.171C438.741 287.12 437.739 287.323 437.163 287.728C436.587 288.112 436.299 288.667 436.299 289.392C436.299 290.011 436.544 290.501 437.035 290.864C437.547 291.205 438.251 291.376 439.147 291.376C439.957 291.376 440.661 291.195 441.259 290.832C441.856 290.469 442.315 289.989 442.635 289.392C442.976 288.795 443.147 288.123 443.147 287.376H444.203C444.203 289.552 443.765 291.269 442.891 292.528C442.016 293.765 440.619 294.384 438.699 294.384ZM456.696 294.384C455.01 294.384 453.72 293.968 452.824 293.136C451.949 292.283 451.512 291.067 451.512 289.488V273.008H455.064V288.816C455.064 289.563 455.234 290.128 455.576 290.512C455.938 290.896 456.461 291.088 457.144 291.088C457.357 291.088 457.592 291.045 457.848 290.96C458.104 290.875 458.392 290.715 458.712 290.48L460.024 293.2C459.469 293.584 458.914 293.872 458.36 294.064C457.805 294.277 457.25 294.384 456.696 294.384ZM448.856 281.072V278H459.384V281.072H448.856ZM482.161 294L482.001 291.024V271.6H485.553V294H482.161ZM476.945 294.384C475.494 294.384 474.225 294.043 473.137 293.36C472.07 292.656 471.228 291.675 470.609 290.416C470.012 289.157 469.713 287.685 469.713 286C469.713 284.293 470.012 282.821 470.609 281.584C471.228 280.325 472.07 279.355 473.137 278.672C474.225 277.968 475.494 277.616 476.945 277.616C478.289 277.616 479.441 277.968 480.401 278.672C481.382 279.355 482.129 280.325 482.641 281.584C483.153 282.821 483.409 284.293 483.409 286C483.409 287.685 483.153 289.157 482.641 290.416C482.129 291.675 481.382 292.656 480.401 293.36C479.441 294.043 478.289 294.384 476.945 294.384ZM477.841 291.12C478.652 291.12 479.366 290.907 479.985 290.48C480.625 290.032 481.116 289.424 481.457 288.656C481.82 287.888 482.001 287.003 482.001 286C482.001 284.997 481.82 284.112 481.457 283.344C481.116 282.576 480.625 281.979 479.985 281.552C479.366 281.125 478.641 280.912 477.809 280.912C476.956 280.912 476.198 281.125 475.537 281.552C474.876 281.979 474.353 282.576 473.969 283.344C473.606 284.112 473.414 284.997 473.393 286C473.414 287.003 473.606 287.888 473.969 288.656C474.353 289.424 474.876 290.032 475.537 290.48C476.22 290.907 476.988 291.12 477.841 291.12ZM496.875 294.384C495.275 294.384 493.846 294.032 492.587 293.328C491.35 292.603 490.379 291.611 489.675 290.352C488.971 289.093 488.619 287.643 488.619 286C488.619 284.357 488.961 282.907 489.643 281.648C490.347 280.389 491.318 279.408 492.555 278.704C493.793 277.979 495.211 277.616 496.811 277.616C498.411 277.616 499.83 277.979 501.067 278.704C502.305 279.408 503.265 280.389 503.947 281.648C504.651 282.907 505.003 284.357 505.003 286C505.003 287.643 504.662 289.093 503.979 290.352C503.297 291.611 502.337 292.603 501.099 293.328C499.862 294.032 498.454 294.384 496.875 294.384ZM496.875 291.088C497.75 291.088 498.529 290.875 499.211 290.448C499.894 290 500.427 289.403 500.811 288.656C501.195 287.888 501.387 287.003 501.387 286C501.387 284.997 501.185 284.123 500.779 283.376C500.395 282.608 499.862 282.011 499.179 281.584C498.497 281.136 497.707 280.912 496.811 280.912C495.915 280.912 495.126 281.125 494.443 281.552C493.761 281.979 493.227 282.576 492.843 283.344C492.459 284.112 492.267 284.997 492.267 286C492.267 287.003 492.459 287.888 492.843 288.656C493.249 289.403 493.793 290 494.475 290.448C495.179 290.875 495.979 291.088 496.875 291.088ZM525.588 294L525.428 290.992V285.776C525.428 284.688 525.31 283.781 525.076 283.056C524.862 282.309 524.5 281.744 523.988 281.36C523.497 280.955 522.836 280.752 522.004 280.752C521.236 280.752 520.564 280.912 519.988 281.232C519.412 281.552 518.921 282.053 518.516 282.736L515.38 281.584C515.721 280.88 516.169 280.229 516.724 279.632C517.3 279.013 518.014 278.523 518.868 278.16C519.742 277.797 520.788 277.616 522.004 277.616C523.561 277.616 524.862 277.925 525.908 278.544C526.953 279.141 527.721 280.005 528.212 281.136C528.724 282.267 528.98 283.632 528.98 285.232L528.884 294H525.588ZM520.98 294.384C519.06 294.384 517.566 293.957 516.5 293.104C515.454 292.251 514.932 291.045 514.932 289.488C514.932 287.824 515.486 286.555 516.596 285.68C517.726 284.805 519.294 284.368 521.3 284.368H525.588V287.12H522.452C521.022 287.12 520.02 287.323 519.444 287.728C518.868 288.112 518.58 288.667 518.58 289.392C518.58 290.011 518.825 290.501 519.316 290.864C519.828 291.205 520.532 291.376 521.428 291.376C522.238 291.376 522.942 291.195 523.54 290.832C524.137 290.469 524.596 289.989 524.916 289.392C525.257 288.795 525.428 288.123 525.428 287.376H526.484C526.484 289.552 526.046 291.269 525.172 292.528C524.297 293.765 522.9 294.384 520.98 294.384ZM532.609 294V278H535.969L536.193 280.944V294H532.609ZM543.457 294V285.808H547.041V294H543.457ZM543.457 285.808C543.457 284.528 543.308 283.547 543.009 282.864C542.732 282.16 542.326 281.669 541.793 281.392C541.281 281.115 540.673 280.976 539.969 280.976C538.774 280.955 537.846 281.349 537.185 282.16C536.524 282.971 536.193 284.133 536.193 285.648H534.849C534.849 283.963 535.094 282.523 535.585 281.328C536.076 280.112 536.78 279.195 537.697 278.576C538.614 277.936 539.702 277.616 540.961 277.616C542.241 277.616 543.329 277.872 544.225 278.384C545.142 278.896 545.836 279.696 546.305 280.784C546.796 281.851 547.041 283.248 547.041 284.976V285.808H543.457ZM562.224 294L562.064 291.024V271.6H565.616V294H562.224ZM557.008 294.384C555.557 294.384 554.288 294.043 553.2 293.36C552.133 292.656 551.29 291.675 550.672 290.416C550.074 289.157 549.776 287.685 549.776 286C549.776 284.293 550.074 282.821 550.672 281.584C551.29 280.325 552.133 279.355 553.2 278.672C554.288 277.968 555.557 277.616 557.008 277.616C558.352 277.616 559.504 277.968 560.464 278.672C561.445 279.355 562.192 280.325 562.704 281.584C563.216 282.821 563.472 284.293 563.472 286C563.472 287.685 563.216 289.157 562.704 290.416C562.192 291.675 561.445 292.656 560.464 293.36C559.504 294.043 558.352 294.384 557.008 294.384ZM557.904 291.12C558.714 291.12 559.429 290.907 560.048 290.48C560.688 290.032 561.178 289.424 561.52 288.656C561.882 287.888 562.064 287.003 562.064 286C562.064 284.997 561.882 284.112 561.52 283.344C561.178 282.576 560.688 281.979 560.048 281.552C559.429 281.125 558.704 280.912 557.872 280.912C557.018 280.912 556.261 281.125 555.6 281.552C554.938 281.979 554.416 282.576 554.032 283.344C553.669 284.112 553.477 284.997 553.456 286C553.477 287.003 553.669 287.888 554.032 288.656C554.416 289.424 554.938 290.032 555.6 290.48C556.282 290.907 557.05 291.12 557.904 291.12ZM588.849 294L588.689 291.024V271.6H592.241V294H588.849ZM583.633 294.384C582.182 294.384 580.913 294.043 579.825 293.36C578.758 292.656 577.915 291.675 577.297 290.416C576.699 289.157 576.401 287.685 576.401 286C576.401 284.293 576.699 282.821 577.297 281.584C577.915 280.325 578.758 279.355 579.825 278.672C580.913 277.968 582.182 277.616 583.633 277.616C584.977 277.616 586.129 277.968 587.089 278.672C588.07 279.355 588.817 280.325 589.329 281.584C589.841 282.821 590.097 284.293 590.097 286C590.097 287.685 589.841 289.157 589.329 290.416C588.817 291.675 588.07 292.656 587.089 293.36C586.129 294.043 584.977 294.384 583.633 294.384ZM584.529 291.12C585.339 291.12 586.054 290.907 586.673 290.48C587.313 290.032 587.803 289.424 588.145 288.656C588.507 287.888 588.689 287.003 588.689 286C588.689 284.997 588.507 284.112 588.145 283.344C587.803 282.576 587.313 281.979 586.673 281.552C586.054 281.125 585.329 280.912 584.497 280.912C583.643 280.912 582.886 281.125 582.225 281.552C581.563 281.979 581.041 282.576 580.657 283.344C580.294 284.112 580.102 284.997 580.081 286C580.102 287.003 580.294 287.888 580.657 288.656C581.041 289.424 581.563 290.032 582.225 290.48C582.907 290.907 583.675 291.12 584.529 291.12ZM603.563 294.384C601.963 294.384 600.533 294.032 599.275 293.328C598.037 292.603 597.067 291.611 596.363 290.352C595.659 289.093 595.307 287.643 595.307 286C595.307 284.357 595.648 282.907 596.331 281.648C597.035 280.389 598.005 279.408 599.243 278.704C600.48 277.979 601.899 277.616 603.499 277.616C605.099 277.616 606.517 277.979 607.755 278.704C608.992 279.408 609.952 280.389 610.635 281.648C611.339 282.907 611.691 284.357 611.691 286C611.691 287.643 611.349 289.093 610.667 290.352C609.984 291.611 609.024 292.603 607.787 293.328C606.549 294.032 605.141 294.384 603.563 294.384ZM603.563 291.088C604.437 291.088 605.216 290.875 605.899 290.448C606.581 290 607.115 289.403 607.499 288.656C607.883 287.888 608.075 287.003 608.075 286C608.075 284.997 607.872 284.123 607.467 283.376C607.083 282.608 606.549 282.011 605.867 281.584C605.184 281.136 604.395 280.912 603.499 280.912C602.603 280.912 601.813 281.125 601.131 281.552C600.448 281.979 599.915 282.576 599.531 283.344C599.147 284.112 598.955 284.997 598.955 286C598.955 287.003 599.147 287.888 599.531 288.656C599.936 289.403 600.48 290 601.163 290.448C601.867 290.875 602.667 291.088 603.563 291.088ZM614.797 294V278H618.157L618.381 280.944V294H614.797ZM625.645 294V285.808H629.229V294H625.645ZM625.645 285.808C625.645 284.528 625.495 283.547 625.197 282.864C624.919 282.16 624.514 281.669 623.981 281.392C623.469 281.115 622.861 280.976 622.157 280.976C620.962 280.955 620.034 281.349 619.373 282.16C618.711 282.971 618.381 284.133 618.381 285.648H617.036C617.036 283.963 617.282 282.523 617.773 281.328C618.263 280.112 618.967 279.195 619.885 278.576C620.802 277.936 621.89 277.616 623.149 277.616C624.429 277.616 625.517 277.872 626.413 278.384C627.33 278.896 628.023 279.696 628.493 280.784C628.983 281.851 629.229 283.248 629.229 284.976V285.808H625.645ZM631.323 278.864L633.243 271.6H637.019L634.139 278.864H631.323ZM645.758 294.384C644.073 294.384 642.782 293.968 641.886 293.136C641.012 292.283 640.574 291.067 640.574 289.488V273.008H644.126V288.816C644.126 289.563 644.297 290.128 644.638 290.512C645.001 290.896 645.524 291.088 646.206 291.088C646.42 291.088 646.654 291.045 646.91 290.96C647.166 290.875 647.454 290.715 647.774 290.48L649.086 293.2C648.532 293.584 647.977 293.872 647.422 294.064C646.868 294.277 646.313 294.384 645.758 294.384ZM637.918 281.072V278H648.446V281.072H637.918ZM102.512 338.784C102 338.784 101.424 338.688 100.784 338.496C100.165 338.304 99.568 338.059 98.992 337.76L100.336 334.848C100.741 335.04 101.115 335.189 101.456 335.296C101.797 335.424 102.075 335.488 102.288 335.488C102.8 335.488 103.227 335.349 103.568 335.072C103.931 334.816 104.219 334.432 104.432 333.92L106.32 329.504L111.728 316H115.632L108.208 333.696C107.76 334.72 107.301 335.616 106.832 336.384C106.384 337.152 105.819 337.739 105.136 338.144C104.453 338.571 103.579 338.784 102.512 338.784ZM105.36 332L98.192 316H102.096L107.664 329.472L108.816 332H105.36ZM124.688 332.384C123.088 332.384 121.658 332.032 120.4 331.328C119.162 330.603 118.192 329.611 117.488 328.352C116.784 327.093 116.432 325.643 116.432 324C116.432 322.357 116.773 320.907 117.456 319.648C118.16 318.389 119.13 317.408 120.368 316.704C121.605 315.979 123.024 315.616 124.624 315.616C126.224 315.616 127.642 315.979 128.88 316.704C130.117 317.408 131.077 318.389 131.76 319.648C132.464 320.907 132.816 322.357 132.816 324C132.816 325.643 132.474 327.093 131.792 328.352C131.109 329.611 130.149 330.603 128.912 331.328C127.674 332.032 126.266 332.384 124.688 332.384ZM124.688 329.088C125.562 329.088 126.341 328.875 127.024 328.448C127.706 328 128.24 327.403 128.624 326.656C129.008 325.888 129.2 325.003 129.2 324C129.2 322.997 128.997 322.123 128.592 321.376C128.208 320.608 127.674 320.011 126.992 319.584C126.309 319.136 125.52 318.912 124.624 318.912C123.728 318.912 122.938 319.125 122.256 319.552C121.573 319.979 121.04 320.576 120.656 321.344C120.272 322.112 120.08 322.997 120.08 324C120.08 325.003 120.272 325.888 120.656 326.656C121.061 327.403 121.605 328 122.288 328.448C122.992 328.875 123.792 329.088 124.688 329.088ZM146.642 332L146.45 329.056V316H150.002V332H146.642ZM135.57 324.192V316H139.154V324.192H135.57ZM139.154 324.192C139.154 325.451 139.303 326.432 139.602 327.136C139.9 327.84 140.306 328.331 140.818 328.608C141.351 328.885 141.959 329.024 142.642 329.024C143.858 329.045 144.796 328.651 145.458 327.84C146.119 327.029 146.45 325.867 146.45 324.352H147.794C147.794 326.037 147.538 327.488 147.026 328.704C146.535 329.899 145.831 330.816 144.914 331.456C144.018 332.075 142.93 332.384 141.65 332.384C140.391 332.384 139.303 332.128 138.386 331.616C137.49 331.104 136.796 330.304 136.306 329.216C135.815 328.128 135.57 326.731 135.57 325.024V324.192H139.154ZM161.703 332V309.6H165.287V332H161.703ZM169.489 332V316H173.041V332H169.489ZM171.281 312.96C170.705 312.96 170.204 312.757 169.777 312.352C169.372 311.925 169.169 311.424 169.169 310.848C169.169 310.272 169.372 309.781 169.777 309.376C170.204 308.971 170.705 308.768 171.281 308.768C171.857 308.768 172.348 308.971 172.753 309.376C173.18 309.781 173.393 310.272 173.393 310.848C173.393 311.424 173.18 311.925 172.753 312.352C172.348 312.757 171.857 312.96 171.281 312.96ZM180.689 327.52L178.513 325.056L186.833 316H191.153L180.689 327.52ZM177.265 332V309.6H180.849V332H177.265ZM187.441 332L181.809 323.712L184.145 321.216L191.697 332H187.441ZM200.308 332.384C198.75 332.384 197.364 332.032 196.148 331.328C194.953 330.603 194.004 329.611 193.299 328.352C192.617 327.093 192.276 325.643 192.276 324C192.276 322.357 192.628 320.907 193.332 319.648C194.036 318.389 194.996 317.408 196.212 316.704C197.449 315.979 198.857 315.616 200.436 315.616C201.865 315.616 203.156 315.989 204.308 316.736C205.46 317.461 206.366 318.517 207.028 319.904C207.71 321.291 208.052 322.944 208.052 324.864H195.476L195.956 324.416C195.956 325.397 196.169 326.251 196.596 326.976C197.022 327.68 197.588 328.224 198.292 328.608C198.996 328.992 199.774 329.184 200.628 329.184C201.609 329.184 202.42 328.971 203.06 328.544C203.7 328.096 204.201 327.52 204.564 326.816L207.732 328.16C207.284 329.013 206.708 329.76 206.004 330.4C205.321 331.04 204.5 331.531 203.54 331.872C202.601 332.213 201.524 332.384 200.308 332.384ZM196.18 322.56L195.668 322.112H204.692L204.212 322.56C204.212 321.685 204.02 320.971 203.636 320.416C203.252 319.84 202.761 319.413 202.164 319.136C201.588 318.837 200.98 318.688 200.34 318.688C199.7 318.688 199.06 318.837 198.42 319.136C197.78 319.413 197.246 319.84 196.82 320.416C196.393 320.971 196.18 321.685 196.18 322.56ZM224.339 332.384C223.273 332.384 222.291 332.224 221.395 331.904C220.499 331.584 219.731 331.136 219.091 330.56C218.451 329.963 217.961 329.269 217.619 328.48L220.723 327.104C221.043 327.701 221.513 328.203 222.131 328.608C222.771 329.013 223.475 329.216 224.243 329.216C225.075 329.216 225.737 329.077 226.227 328.8C226.739 328.501 226.995 328.096 226.995 327.584C226.995 327.093 226.803 326.72 226.419 326.464C226.035 326.187 225.491 325.963 224.787 325.792L223.283 325.376C221.769 324.992 220.585 324.384 219.731 323.552C218.878 322.699 218.451 321.728 218.451 320.64C218.451 319.04 218.963 317.803 219.987 316.928C221.033 316.053 222.526 315.616 224.467 315.616C225.449 315.616 226.345 315.765 227.155 316.064C227.987 316.341 228.702 316.747 229.299 317.28C229.897 317.792 230.313 318.4 230.547 319.104L227.571 320.448C227.358 319.915 226.953 319.509 226.355 319.232C225.758 318.933 225.097 318.784 224.371 318.784C223.646 318.784 223.081 318.944 222.675 319.264C222.27 319.563 222.067 319.989 222.067 320.544C222.067 320.864 222.249 321.163 222.611 321.44C222.974 321.696 223.497 321.909 224.179 322.08L226.067 322.528C227.113 322.784 227.966 323.189 228.627 323.744C229.289 324.277 229.779 324.885 230.099 325.568C230.419 326.229 230.579 326.901 230.579 327.584C230.579 328.544 230.302 329.387 229.747 330.112C229.214 330.837 228.478 331.403 227.539 331.808C226.601 332.192 225.534 332.384 224.339 332.384ZM240.782 332.384C239.182 332.384 237.752 332.032 236.494 331.328C235.256 330.603 234.286 329.611 233.582 328.352C232.878 327.093 232.526 325.643 232.526 324C232.526 322.357 232.867 320.907 233.549 319.648C234.254 318.389 235.224 317.408 236.462 316.704C237.699 315.979 239.118 315.616 240.718 315.616C242.318 315.616 243.736 315.979 244.974 316.704C246.211 317.408 247.171 318.389 247.854 319.648C248.558 320.907 248.91 322.357 248.91 324C248.91 325.643 248.568 327.093 247.885 328.352C247.203 329.611 246.243 330.603 245.006 331.328C243.768 332.032 242.36 332.384 240.782 332.384ZM240.782 329.088C241.656 329.088 242.435 328.875 243.118 328.448C243.8 328 244.334 327.403 244.718 326.656C245.102 325.888 245.294 325.003 245.294 324C245.294 322.997 245.091 322.123 244.686 321.376C244.302 320.608 243.768 320.011 243.086 319.584C242.403 319.136 241.614 318.912 240.718 318.912C239.822 318.912 239.032 319.125 238.35 319.552C237.667 319.979 237.134 320.576 236.75 321.344C236.366 322.112 236.174 322.997 236.174 324C236.174 325.003 236.366 325.888 236.75 326.656C237.155 327.403 237.699 328 238.382 328.448C239.086 328.875 239.886 329.088 240.782 329.088ZM261.334 332V314.304C261.334 312.619 261.75 311.328 262.582 310.432C263.435 309.515 264.715 309.056 266.422 309.056C266.977 309.056 267.563 309.152 268.182 309.344C268.822 309.515 269.43 309.749 270.006 310.048L268.694 312.704C268.289 312.512 267.926 312.373 267.606 312.288C267.307 312.203 267.041 312.16 266.806 312.16C266.166 312.16 265.686 312.373 265.366 312.8C265.067 313.205 264.918 313.877 264.918 314.816V332H261.334ZM258.582 318.944V316H269.11V318.944H258.582ZM281.494 332L281.334 328.992V323.776C281.334 322.688 281.217 321.781 280.982 321.056C280.769 320.309 280.406 319.744 279.894 319.36C279.403 318.955 278.742 318.752 277.91 318.752C277.142 318.752 276.47 318.912 275.894 319.232C275.318 319.552 274.827 320.053 274.422 320.736L271.286 319.584C271.627 318.88 272.075 318.229 272.63 317.632C273.206 317.013 273.921 316.523 274.774 316.16C275.649 315.797 276.694 315.616 277.91 315.616C279.467 315.616 280.769 315.925 281.814 316.544C282.859 317.141 283.627 318.005 284.118 319.136C284.63 320.267 284.886 321.632 284.886 323.232L284.79 332H281.494ZM276.886 332.384C274.966 332.384 273.473 331.957 272.406 331.104C271.361 330.251 270.838 329.045 270.838 327.488C270.838 325.824 271.393 324.555 272.502 323.68C273.633 322.805 275.201 322.368 277.206 322.368H281.494V325.12H278.358C276.929 325.12 275.926 325.323 275.35 325.728C274.774 326.112 274.486 326.667 274.486 327.392C274.486 328.011 274.731 328.501 275.222 328.864C275.734 329.205 276.438 329.376 277.334 329.376C278.145 329.376 278.849 329.195 279.446 328.832C280.043 328.469 280.502 327.989 280.822 327.392C281.163 326.795 281.334 326.123 281.334 325.376H282.39C282.39 327.552 281.953 329.269 281.078 330.528C280.203 331.765 278.806 332.384 276.886 332.384ZM290.883 323.488C290.883 321.76 291.214 320.341 291.875 319.232C292.537 318.123 293.39 317.301 294.435 316.768C295.502 316.213 296.611 315.936 297.763 315.936V319.36C296.782 319.36 295.854 319.499 294.979 319.776C294.126 320.032 293.433 320.459 292.899 321.056C292.366 321.653 292.099 322.443 292.099 323.424L290.883 323.488ZM288.515 332V316H292.099V332H288.515ZM303.532 325.728L303.436 320.064L305.516 319.936C306.732 319.893 307.735 319.552 308.524 318.912C309.314 318.251 309.708 317.323 309.708 316.128C309.708 315.061 309.335 314.187 308.588 313.504C307.863 312.821 306.914 312.48 305.74 312.48C304.908 312.48 304.183 312.683 303.564 313.088C302.946 313.493 302.519 313.995 302.284 314.592L298.988 313.632C299.415 312.309 300.215 311.243 301.388 310.432C302.583 309.621 304.034 309.216 305.74 309.216C307.191 309.216 308.471 309.515 309.58 310.112C310.711 310.688 311.596 311.499 312.236 312.544C312.876 313.568 313.196 314.763 313.196 316.128C313.196 317.28 312.94 318.315 312.428 319.232C311.916 320.149 311.191 320.885 310.252 321.44C309.335 321.995 308.268 322.336 307.052 322.464L306.988 325.728H303.532ZM305.26 332.448C304.62 332.448 304.076 332.235 303.628 331.808C303.202 331.36 302.988 330.827 302.988 330.208C302.988 329.568 303.202 329.035 303.628 328.608C304.076 328.16 304.62 327.936 305.26 327.936C305.879 327.936 306.402 328.16 306.828 328.608C307.276 329.035 307.5 329.568 307.5 330.208C307.5 330.827 307.276 331.36 306.828 331.808C306.402 332.235 305.879 332.448 305.26 332.448Z" fill="black"/>
<g filter="url(#filter1_d_18_145)">
<rect x="275" y="412" width="200" height="200" rx="100" fill="#FAFCFF"/>
<rect x="277" y="414" width="196" height="196" rx="98" stroke="#CADEFF" stroke-width="4"/>
<path d="M375 527C378.977 526.996 382.79 525.414 385.602 522.602C388.414 519.79 389.996 515.977 390 512V492C390 488.022 388.42 484.206 385.607 481.393C382.794 478.58 378.978 477 375 477C371.022 477 367.206 478.58 364.393 481.393C361.58 484.206 360 488.022 360 492V512C360.004 515.977 361.586 519.79 364.398 522.602C367.21 525.414 371.023 526.996 375 527ZM365 492C365 489.348 366.054 486.804 367.929 484.929C369.804 483.054 372.348 482 375 482C377.652 482 380.196 483.054 382.071 484.929C383.946 486.804 385 489.348 385 492V512C385 514.652 383.946 517.196 382.071 519.071C380.196 520.946 377.652 522 375 522C372.348 522 369.804 520.946 367.929 519.071C366.054 517.196 365 514.652 365 512V492ZM377.5 536.875V544.5C377.5 545.163 377.237 545.799 376.768 546.268C376.299 546.737 375.663 547 375 547C374.337 547 373.701 546.737 373.232 546.268C372.763 545.799 372.5 545.163 372.5 544.5V536.875C366.336 536.248 360.624 533.357 356.468 528.763C352.312 524.168 350.008 518.195 350 512C350 511.337 350.263 510.701 350.732 510.232C351.201 509.763 351.837 509.5 352.5 509.5C353.163 509.5 353.799 509.763 354.268 510.232C354.737 510.701 355 511.337 355 512C355 517.304 357.107 522.391 360.858 526.142C364.609 529.893 369.696 532 375 532C380.304 532 385.391 529.893 389.142 526.142C392.893 522.391 395 517.304 395 512C395 511.337 395.263 510.701 395.732 510.232C396.201 509.763 396.837 509.5 397.5 509.5C398.163 509.5 398.799 509.763 399.268 510.232C399.737 510.701 400 511.337 400 512C399.992 518.195 397.688 524.168 393.532 528.763C389.376 533.357 383.664 536.248 377.5 536.875Z" fill="#0075FF"/>
</g>
<line x1="98" y1="185.5" x2="692" y2="185.5" stroke="#ECECEC"/>
<g clip-path="url(#clip1_18_145)">
<rect x="98" y="98" width="48" height="48" rx="24" fill="#323232"/>
<rect width="48" height="48" transform="translate(98 98)" fill="#181818"/>
<path fill-rule="evenodd" clip-rule="evenodd" d="M129.351 108.439L114.011 108.613L106.678 121.314L113.704 135.524L129.471 135.594L137.291 122.051L129.351 108.439ZM132.794 128.88L136.599 122.29L130.517 122.263L126.666 128.934L132.794 128.88ZM132.515 129.362L129.195 135.113L123.114 135.086L126.387 129.417L132.515 129.362ZM125.83 129.422L122.561 135.084L114.269 135.047L117.473 129.496L125.83 129.422ZM117.059 129.254L113.87 134.776L110.163 127.278L113.158 122.09L117.059 129.254ZM113.439 121.603L117.34 128.767L121.258 121.981L117.313 114.966L117.271 114.967L113.439 121.603ZM112.889 121.596L109.907 126.761L107.222 121.331L110.064 116.409L112.889 121.596ZM110.345 115.922L113.17 121.109L116.991 114.492L117.046 114.491L114.147 109.336L110.345 115.922ZM117.752 129.013L126.109 128.939L129.965 122.26L121.672 122.223L117.752 129.013ZM129.891 121.78L121.675 121.743L117.859 114.957L125.833 114.823L129.891 121.78ZM125.556 114.348L117.591 114.481L114.558 109.087L122.435 108.998L125.556 114.348ZM122.987 108.991L126.106 114.338L132.177 114.236L129.077 108.922L122.987 108.991ZM132.454 114.712L126.383 114.814L130.448 121.782L136.594 121.81L132.454 114.712Z" fill="url(#paint0_linear_18_145)"/>
</g>
<path d="M163.992 130V113.2H166.968L172.248 120.976L177.48 113.2H180.48V130H177.696V117.592L172.224 125.68L166.776 117.64V130H163.992ZM191.269 130L191.149 127.744V123.832C191.149 123.016 191.061 122.336 190.885 121.792C190.725 121.232 190.453 120.808 190.069 120.52C189.701 120.216 189.205 120.064 188.581 120.064C188.005 120.064 187.501 120.184 187.069 120.424C186.637 120.664 186.269 121.04 185.965 121.552L183.613 120.688C183.869 120.16 184.205 119.672 184.621 119.224C185.053 118.76 185.589 118.392 186.229 118.12C186.885 117.848 187.669 117.712 188.581 117.712C189.749 117.712 190.725 117.944 191.509 118.408C192.293 118.856 192.869 119.504 193.237 120.352C193.621 121.2 193.813 122.224 193.813 123.424L193.741 130H191.269ZM187.813 130.288C186.373 130.288 185.253 129.968 184.453 129.328C183.669 128.688 183.277 127.784 183.277 126.616C183.277 125.368 183.693 124.416 184.525 123.76C185.373 123.104 186.549 122.776 188.053 122.776H191.269V124.84H188.917C187.845 124.84 187.093 124.992 186.661 125.296C186.229 125.584 186.013 126 186.013 126.544C186.013 127.008 186.197 127.376 186.565 127.648C186.949 127.904 187.477 128.032 188.149 128.032C188.757 128.032 189.285 127.896 189.733 127.624C190.181 127.352 190.525 126.992 190.765 126.544C191.021 126.096 191.149 125.592 191.149 125.032H191.941C191.941 126.664 191.613 127.952 190.957 128.896C190.301 129.824 189.253 130.288 187.813 130.288ZM198.311 123.616C198.311 122.32 198.559 121.256 199.055 120.424C199.551 119.592 200.191 118.976 200.975 118.576C201.775 118.16 202.607 117.952 203.471 117.952V120.52C202.735 120.52 202.039 120.624 201.383 120.832C200.743 121.024 200.223 121.344 199.823 121.792C199.423 122.24 199.223 122.832 199.223 123.568L198.311 123.616ZM196.535 130V118H199.223V130H196.535ZM209.118 130L213.798 118H216.582L211.638 130H209.118ZM208.926 130L203.958 118H206.718L211.422 130H208.926ZM223.285 130.288C222.117 130.288 221.077 130.024 220.165 129.496C219.269 128.952 218.557 128.208 218.029 127.264C217.517 126.32 217.261 125.232 217.261 124C217.261 122.768 217.525 121.68 218.053 120.736C218.581 119.792 219.301 119.056 220.213 118.528C221.141 117.984 222.197 117.712 223.381 117.712C224.453 117.712 225.421 117.992 226.285 118.552C227.149 119.096 227.829 119.888 228.325 120.928C228.837 121.968 229.093 123.208 229.093 124.648H219.661L220.021 124.312C220.021 125.048 220.181 125.688 220.501 126.232C220.821 126.76 221.245 127.168 221.773 127.456C222.301 127.744 222.885 127.888 223.525 127.888C224.261 127.888 224.869 127.728 225.349 127.408C225.829 127.072 226.205 126.64 226.477 126.112L228.853 127.12C228.517 127.76 228.085 128.32 227.557 128.8C227.045 129.28 226.429 129.648 225.709 129.904C225.005 130.16 224.197 130.288 223.285 130.288ZM220.189 122.92L219.805 122.584H226.573L226.213 122.92C226.213 122.264 226.069 121.728 225.781 121.312C225.493 120.88 225.125 120.56 224.677 120.352C224.245 120.128 223.789 120.016 223.309 120.016C222.829 120.016 222.349 120.128 221.869 120.352C221.389 120.56 220.989 120.88 220.669 121.312C220.349 121.728 220.189 122.264 220.189 122.92ZM231.152 130V113.2H233.84V130H231.152ZM242.344 130.288C241.144 130.288 240.072 130.024 239.128 129.496C238.2 128.952 237.472 128.208 236.944 127.264C236.416 126.32 236.152 125.232 236.152 124C236.152 122.768 236.408 121.68 236.92 120.736C237.448 119.792 238.176 119.056 239.104 118.528C240.032 117.984 241.096 117.712 242.296 117.712C243.496 117.712 244.56 117.984 245.488 118.528C246.416 119.056 247.136 119.792 247.648 120.736C248.176 121.68 248.44 122.768 248.44 124C248.44 125.232 248.184 126.32 247.672 127.264C247.16 128.208 246.44 128.952 245.512 129.496C244.584 130.024 243.528 130.288 242.344 130.288ZM242.344 127.816C243 127.816 243.584 127.656 244.096 127.336C244.608 127 245.008 126.552 245.296 125.992C245.584 125.416 245.728 124.752 245.728 124C245.728 123.248 245.576 122.592 245.272 122.032C244.984 121.456 244.584 121.008 244.072 120.688C243.56 120.352 242.968 120.184 242.296 120.184C241.624 120.184 241.032 120.344 240.52 120.664C240.008 120.984 239.608 121.432 239.32 122.008C239.032 122.584 238.888 123.248 238.888 124C238.888 124.752 239.032 125.416 239.32 125.992C239.624 126.552 240.032 127 240.544 127.336C241.072 127.656 241.672 127.816 242.344 127.816ZM258.809 130L258.665 127.792V118H261.329V130H258.809ZM250.505 124.144V118H253.193V124.144H250.505ZM253.193 124.144C253.193 125.088 253.305 125.824 253.529 126.352C253.753 126.88 254.057 127.248 254.441 127.456C254.841 127.664 255.297 127.768 255.809 127.768C256.721 127.784 257.425 127.488 257.921 126.88C258.417 126.272 258.665 125.4 258.665 124.264H259.673C259.673 125.528 259.481 126.616 259.097 127.528C258.729 128.424 258.201 129.112 257.513 129.592C256.841 130.056 256.025 130.288 255.065 130.288C254.121 130.288 253.305 130.096 252.617 129.712C251.945 129.328 251.425 128.728 251.057 127.912C250.689 127.096 250.505 126.048 250.505 124.768V124.144H253.193ZM268.684 130.288C267.884 130.288 267.148 130.168 266.476 129.928C265.804 129.688 265.228 129.352 264.748 128.92C264.268 128.472 263.9 127.952 263.644 127.36L265.972 126.328C266.212 126.776 266.564 127.152 267.028 127.456C267.508 127.76 268.036 127.912 268.612 127.912C269.236 127.912 269.732 127.808 270.1 127.6C270.484 127.376 270.676 127.072 270.676 126.688C270.676 126.32 270.532 126.04 270.244 125.848C269.956 125.64 269.548 125.472 269.02 125.344L267.892 125.032C266.756 124.744 265.868 124.288 265.228 123.664C264.588 123.024 264.268 122.296 264.268 121.48C264.268 120.28 264.652 119.352 265.42 118.696C266.204 118.04 267.324 117.712 268.78 117.712C269.516 117.712 270.188 117.824 270.796 118.048C271.42 118.256 271.956 118.56 272.404 118.96C272.852 119.344 273.164 119.8 273.34 120.328L271.108 121.336C270.948 120.936 270.644 120.632 270.196 120.424C269.748 120.2 269.252 120.088 268.708 120.088C268.164 120.088 267.74 120.208 267.436 120.448C267.132 120.672 266.98 120.992 266.98 121.408C266.98 121.648 267.116 121.872 267.388 122.08C267.66 122.272 268.052 122.432 268.564 122.56L269.98 122.896C270.764 123.088 271.404 123.392 271.9 123.808C272.396 124.208 272.764 124.664 273.004 125.176C273.244 125.672 273.364 126.176 273.364 126.688C273.364 127.408 273.156 128.04 272.74 128.584C272.34 129.128 271.788 129.552 271.084 129.856C270.38 130.144 269.58 130.288 268.684 130.288ZM276.792 130.336C276.328 130.336 275.928 130.176 275.592 129.856C275.272 129.52 275.112 129.12 275.112 128.656C275.112 128.192 275.272 127.792 275.592 127.456C275.928 127.12 276.328 126.952 276.792 126.952C277.256 126.952 277.656 127.12 277.992 127.456C278.328 127.792 278.496 128.192 278.496 128.656C278.496 129.12 278.328 129.52 277.992 129.856C277.656 130.176 277.256 130.336 276.792 130.336ZM281.242 130V118H283.906V130H281.242ZM282.586 115.72C282.154 115.72 281.778 115.568 281.458 115.264C281.154 114.944 281.002 114.568 281.002 114.136C281.002 113.704 281.154 113.336 281.458 113.032C281.778 112.728 282.154 112.576 282.586 112.576C283.018 112.576 283.386 112.728 283.69 113.032C284.01 113.336 284.17 113.704 284.17 114.136C284.17 114.568 284.01 114.944 283.69 115.264C283.386 115.568 283.018 115.72 282.586 115.72ZM292.594 130.288C291.394 130.288 290.322 130.024 289.378 129.496C288.45 128.952 287.722 128.208 287.194 127.264C286.666 126.32 286.402 125.232 286.402 124C286.402 122.768 286.658 121.68 287.17 120.736C287.698 119.792 288.426 119.056 289.354 118.528C290.282 117.984 291.346 117.712 292.546 117.712C293.746 117.712 294.81 117.984 295.738 118.528C296.666 119.056 297.386 119.792 297.898 120.736C298.426 121.68 298.69 122.768 298.69 124C298.69 125.232 298.434 126.32 297.922 127.264C297.41 128.208 296.69 128.952 295.762 129.496C294.834 130.024 293.778 130.288 292.594 130.288ZM292.594 127.816C293.25 127.816 293.834 127.656 294.346 127.336C294.858 127 295.258 126.552 295.546 125.992C295.834 125.416 295.978 124.752 295.978 124C295.978 123.248 295.826 122.592 295.522 122.032C295.234 121.456 294.834 121.008 294.322 120.688C293.81 120.352 293.218 120.184 292.546 120.184C291.874 120.184 291.282 120.344 290.77 120.664C290.258 120.984 289.858 121.432 289.57 122.008C289.282 122.584 289.138 123.248 289.138 124C289.138 124.752 289.282 125.416 289.57 125.992C289.874 126.552 290.282 127 290.794 127.336C291.322 127.656 291.922 127.816 292.594 127.816Z" fill="black"/>
<rect x="98" y="758" width="594" height="64" rx="32" fill="#0075FF"/>
<path d="M312.512 799.288C311.632 799.288 310.824 799.184 310.088 798.976C309.368 798.768 308.728 798.48 308.168 798.112C307.624 797.744 307.168 797.336 306.8 796.888C306.448 796.424 306.2 795.944 306.056 795.448L308.792 794.608C309 795.2 309.408 795.72 310.016 796.168C310.624 796.616 311.376 796.848 312.272 796.864C313.312 796.864 314.136 796.648 314.744 796.216C315.352 795.784 315.656 795.216 315.656 794.512C315.656 793.872 315.4 793.352 314.888 792.952C314.376 792.536 313.688 792.216 312.824 791.992L310.76 791.464C309.976 791.256 309.264 790.952 308.624 790.552C308 790.152 307.504 789.648 307.136 789.04C306.784 788.432 306.608 787.712 306.608 786.88C306.608 785.312 307.12 784.096 308.144 783.232C309.168 782.352 310.632 781.912 312.536 781.912C313.608 781.912 314.544 782.08 315.344 782.416C316.16 782.736 316.832 783.184 317.36 783.76C317.888 784.32 318.28 784.96 318.536 785.68L315.848 786.544C315.608 785.904 315.192 785.376 314.6 784.96C314.008 784.544 313.272 784.336 312.392 784.336C311.48 784.336 310.76 784.552 310.232 784.984C309.72 785.416 309.464 786.016 309.464 786.784C309.464 787.408 309.664 787.896 310.064 788.248C310.48 788.584 311.04 788.84 311.744 789.016L313.808 789.52C315.312 789.888 316.48 790.52 317.312 791.416C318.144 792.312 318.56 793.304 318.56 794.392C318.56 795.352 318.328 796.2 317.864 796.936C317.4 797.672 316.712 798.248 315.8 798.664C314.904 799.08 313.808 799.288 312.512 799.288ZM328.456 799L328.336 796.744V792.832C328.336 792.016 328.248 791.336 328.072 790.792C327.912 790.232 327.64 789.808 327.256 789.52C326.888 789.216 326.392 789.064 325.768 789.064C325.192 789.064 324.688 789.184 324.256 789.424C323.824 789.664 323.456 790.04 323.152 790.552L320.8 789.688C321.056 789.16 321.392 788.672 321.808 788.224C322.24 787.76 322.776 787.392 323.416 787.12C324.072 786.848 324.856 786.712 325.768 786.712C326.936 786.712 327.912 786.944 328.696 787.408C329.48 787.856 330.056 788.504 330.424 789.352C330.808 790.2 331 791.224 331 792.424L330.928 799H328.456ZM325 799.288C323.56 799.288 322.44 798.968 321.64 798.328C320.856 797.688 320.464 796.784 320.464 795.616C320.464 794.368 320.88 793.416 321.712 792.76C322.56 792.104 323.736 791.776 325.24 791.776H328.456V793.84H326.104C325.032 793.84 324.28 793.992 323.848 794.296C323.416 794.584 323.2 795 323.2 795.544C323.2 796.008 323.384 796.376 323.752 796.648C324.136 796.904 324.664 797.032 325.336 797.032C325.944 797.032 326.472 796.896 326.92 796.624C327.368 796.352 327.712 795.992 327.952 795.544C328.208 795.096 328.336 794.592 328.336 794.032H329.128C329.128 795.664 328.8 796.952 328.144 797.896C327.488 798.824 326.44 799.288 325 799.288ZM337.305 799L341.985 787H344.769L339.825 799H337.305ZM337.113 799L332.145 787H334.905L339.609 799H337.113ZM351.473 799.288C350.305 799.288 349.265 799.024 348.353 798.496C347.457 797.952 346.745 797.208 346.217 796.264C345.705 795.32 345.449 794.232 345.449 793C345.449 791.768 345.713 790.68 346.241 789.736C346.769 788.792 347.489 788.056 348.401 787.528C349.329 786.984 350.385 786.712 351.569 786.712C352.641 786.712 353.609 786.992 354.473 787.552C355.337 788.096 356.017 788.888 356.513 789.928C357.025 790.968 357.281 792.208 357.281 793.648H347.849L348.209 793.312C348.209 794.048 348.369 794.688 348.689 795.232C349.009 795.76 349.433 796.168 349.961 796.456C350.489 796.744 351.073 796.888 351.713 796.888C352.449 796.888 353.057 796.728 353.537 796.408C354.017 796.072 354.393 795.64 354.665 795.112L357.041 796.12C356.705 796.76 356.273 797.32 355.745 797.8C355.233 798.28 354.617 798.648 353.897 798.904C353.193 799.16 352.385 799.288 351.473 799.288ZM348.377 791.92L347.993 791.584H354.761L354.401 791.92C354.401 791.264 354.257 790.728 353.969 790.312C353.681 789.88 353.313 789.56 352.865 789.352C352.433 789.128 351.977 789.016 351.497 789.016C351.017 789.016 350.537 789.128 350.057 789.352C349.577 789.56 349.177 789.88 348.857 790.312C348.537 790.728 348.377 791.264 348.377 791.92ZM372.449 799L372.329 796.744V792.832C372.329 792.016 372.241 791.336 372.065 790.792C371.905 790.232 371.633 789.808 371.249 789.52C370.881 789.216 370.385 789.064 369.761 789.064C369.185 789.064 368.681 789.184 368.249 789.424C367.817 789.664 367.449 790.04 367.145 790.552L364.793 789.688C365.049 789.16 365.385 788.672 365.801 788.224C366.233 787.76 366.769 787.392 367.409 787.12C368.065 786.848 368.849 786.712 369.761 786.712C370.929 786.712 371.905 786.944 372.689 787.408C373.473 787.856 374.049 788.504 374.417 789.352C374.801 790.2 374.993 791.224 374.993 792.424L374.921 799H372.449ZM368.993 799.288C367.553 799.288 366.433 798.968 365.633 798.328C364.849 797.688 364.457 796.784 364.457 795.616C364.457 794.368 364.873 793.416 365.705 792.76C366.553 792.104 367.729 791.776 369.233 791.776H372.449V793.84H370.097C369.025 793.84 368.273 793.992 367.841 794.296C367.409 794.584 367.193 795 367.193 795.544C367.193 796.008 367.377 796.376 367.745 796.648C368.129 796.904 368.657 797.032 369.329 797.032C369.937 797.032 370.465 796.896 370.913 796.624C371.361 796.352 371.705 795.992 371.945 795.544C372.201 795.096 372.329 794.592 372.329 794.032H373.121C373.121 795.664 372.793 796.952 372.137 797.896C371.481 798.824 370.433 799.288 368.993 799.288ZM377.715 799V787H380.235L380.403 789.208V799H377.715ZM385.851 799V792.856H388.539V799H385.851ZM385.851 792.856C385.851 791.896 385.739 791.16 385.515 790.648C385.307 790.12 385.003 789.752 384.603 789.544C384.219 789.336 383.763 789.232 383.235 789.232C382.339 789.216 381.643 789.512 381.147 790.12C380.651 790.728 380.403 791.6 380.403 792.736H379.395C379.395 791.472 379.579 790.392 379.947 789.496C380.315 788.584 380.843 787.896 381.531 787.432C382.219 786.952 383.035 786.712 383.979 786.712C384.939 786.712 385.755 786.904 386.427 787.288C387.115 787.672 387.635 788.272 387.987 789.088C388.355 789.888 388.539 790.936 388.539 792.232V792.856H385.851ZM399.925 799L399.805 796.768V782.2H402.469V799H399.925ZM396.013 799.288C394.925 799.288 393.973 799.032 393.157 798.52C392.357 797.992 391.725 797.256 391.261 796.312C390.813 795.368 390.589 794.264 390.589 793C390.589 791.72 390.813 790.616 391.261 789.688C391.725 788.744 392.357 788.016 393.157 787.504C393.973 786.976 394.925 786.712 396.013 786.712C397.021 786.712 397.885 786.976 398.605 787.504C399.341 788.016 399.901 788.744 400.285 789.688C400.669 790.616 400.861 791.72 400.861 793C400.861 794.264 400.669 795.368 400.285 796.312C399.901 797.256 399.341 797.992 398.605 798.52C397.885 799.032 397.021 799.288 396.013 799.288ZM396.685 796.84C397.293 796.84 397.829 796.68 398.293 796.36C398.773 796.024 399.141 795.568 399.397 794.992C399.669 794.416 399.805 793.752 399.805 793C399.805 792.248 399.669 791.584 399.397 791.008C399.141 790.432 398.773 789.984 398.293 789.664C397.829 789.344 397.285 789.184 396.661 789.184C396.021 789.184 395.453 789.344 394.957 789.664C394.461 789.984 394.069 790.432 393.781 791.008C393.509 791.584 393.365 792.248 393.349 793C393.365 793.752 393.509 794.416 393.781 794.992C394.069 795.568 394.461 796.024 394.957 796.36C395.469 796.68 396.045 796.84 396.685 796.84ZM415.598 799.288C414.798 799.288 414.062 799.168 413.39 798.928C412.718 798.688 412.142 798.352 411.662 797.92C411.182 797.472 410.814 796.952 410.558 796.36L412.886 795.328C413.126 795.776 413.478 796.152 413.942 796.456C414.422 796.76 414.95 796.912 415.526 796.912C416.15 796.912 416.646 796.808 417.014 796.6C417.398 796.376 417.59 796.072 417.59 795.688C417.59 795.32 417.446 795.04 417.158 794.848C416.87 794.64 416.462 794.472 415.934 794.344L414.806 794.032C413.67 793.744 412.782 793.288 412.142 792.664C411.502 792.024 411.182 791.296 411.182 790.48C411.182 789.28 411.566 788.352 412.334 787.696C413.118 787.04 414.238 786.712 415.694 786.712C416.43 786.712 417.102 786.824 417.71 787.048C418.334 787.256 418.87 787.56 419.318 787.96C419.766 788.344 420.078 788.8 420.254 789.328L418.022 790.336C417.862 789.936 417.558 789.632 417.11 789.424C416.662 789.2 416.166 789.088 415.622 789.088C415.078 789.088 414.654 789.208 414.35 789.448C414.046 789.672 413.894 789.992 413.894 790.408C413.894 790.648 414.03 790.872 414.302 791.08C414.574 791.272 414.966 791.432 415.478 791.56L416.894 791.896C417.678 792.088 418.318 792.392 418.814 792.808C419.31 793.208 419.678 793.664 419.918 794.176C420.158 794.672 420.278 795.176 420.278 795.688C420.278 796.408 420.07 797.04 419.654 797.584C419.254 798.128 418.702 798.552 417.998 798.856C417.294 799.144 416.494 799.288 415.598 799.288ZM430.45 799L430.306 796.792V787H432.97V799H430.45ZM422.146 793.144V787H424.834V793.144H422.146ZM424.834 793.144C424.834 794.088 424.946 794.824 425.17 795.352C425.394 795.88 425.698 796.248 426.082 796.456C426.482 796.664 426.938 796.768 427.45 796.768C428.362 796.784 429.066 796.488 429.562 795.88C430.058 795.272 430.306 794.4 430.306 793.264H431.314C431.314 794.528 431.122 795.616 430.738 796.528C430.37 797.424 429.842 798.112 429.154 798.592C428.482 799.056 427.666 799.288 426.706 799.288C425.762 799.288 424.946 799.096 424.258 798.712C423.586 798.328 423.066 797.728 422.698 796.912C422.33 796.096 422.146 795.048 422.146 793.768V793.144H424.834ZM435.957 799V782.2H438.645V796.768L438.501 799H435.957ZM442.437 799.288C441.429 799.288 440.557 799.032 439.821 798.52C439.101 797.992 438.549 797.256 438.165 796.312C437.781 795.368 437.589 794.264 437.589 793C437.589 791.72 437.781 790.616 438.165 789.688C438.549 788.744 439.101 788.016 439.821 787.504C440.557 786.976 441.429 786.712 442.437 786.712C443.525 786.712 444.469 786.976 445.269 787.504C446.085 788.016 446.717 788.744 447.165 789.688C447.629 790.616 447.861 791.72 447.861 793C447.861 794.264 447.629 795.368 447.165 796.312C446.717 797.256 446.085 797.992 445.269 798.52C444.469 799.032 443.525 799.288 442.437 799.288ZM441.765 796.84C442.405 796.84 442.973 796.68 443.469 796.36C443.965 796.024 444.357 795.568 444.645 794.992C444.949 794.416 445.101 793.752 445.101 793C445.101 792.248 444.957 791.584 444.669 791.008C444.397 790.432 444.013 789.984 443.517 789.664C443.021 789.344 442.445 789.184 441.789 789.184C441.181 789.184 440.637 789.344 440.157 789.664C439.677 789.984 439.301 790.432 439.029 791.008C438.773 791.584 438.645 792.248 438.645 793C438.645 793.752 438.773 794.416 439.029 794.992C439.301 795.568 439.669 796.024 440.133 796.36C440.613 796.68 441.157 796.84 441.765 796.84ZM450.16 799V787H452.68L452.8 788.608C453.168 787.984 453.64 787.512 454.216 787.192C454.792 786.872 455.448 786.712 456.184 786.712C457.144 786.712 457.96 786.928 458.632 787.36C459.304 787.792 459.792 788.448 460.096 789.328C460.448 788.48 460.944 787.832 461.584 787.384C462.224 786.936 462.976 786.712 463.84 786.712C465.232 786.712 466.304 787.16 467.056 788.056C467.808 788.936 468.176 790.296 468.16 792.136V799H465.496V792.856C465.496 791.896 465.392 791.16 465.184 790.648C464.976 790.12 464.696 789.752 464.344 789.544C463.992 789.336 463.584 789.232 463.12 789.232C462.288 789.216 461.64 789.512 461.176 790.12C460.728 790.728 460.504 791.6 460.504 792.736V799H457.816V792.856C457.816 791.896 457.712 791.16 457.504 790.648C457.312 790.12 457.04 789.752 456.688 789.544C456.336 789.336 455.928 789.232 455.464 789.232C454.632 789.216 453.984 789.512 453.52 790.12C453.072 790.728 452.848 791.6 452.848 792.736V799H450.16ZM471.07 799V787H473.734V799H471.07ZM472.414 784.72C471.982 784.72 471.606 784.568 471.286 784.264C470.982 783.944 470.83 783.568 470.83 783.136C470.83 782.704 470.982 782.336 471.286 782.032C471.606 781.728 471.982 781.576 472.414 781.576C472.846 781.576 473.214 781.728 473.518 782.032C473.838 782.336 473.998 782.704 473.998 783.136C473.998 783.568 473.838 783.944 473.518 784.264C473.214 784.568 472.846 784.72 472.414 784.72ZM481.678 799.288C480.414 799.288 479.446 798.976 478.774 798.352C478.118 797.712 477.79 796.8 477.79 795.616V783.256H480.454V795.112C480.454 795.672 480.582 796.096 480.838 796.384C481.11 796.672 481.502 796.816 482.014 796.816C482.174 796.816 482.35 796.784 482.542 796.72C482.734 796.656 482.95 796.536 483.19 796.36L484.174 798.4C483.758 798.688 483.342 798.904 482.926 799.048C482.51 799.208 482.094 799.288 481.678 799.288ZM475.798 789.304V787H483.694V789.304H475.798Z" fill="white"/>
<rect x="99" y="679" width="592" height="62" rx="31" stroke="#0075FF" stroke-width="2"/>
<path d="M324.992 719V702.2H330.92C332.072 702.2 333.088 702.424 333.968 702.872C334.848 703.32 335.536 703.944 336.032 704.744C336.528 705.528 336.776 706.44 336.776 707.48C336.776 708.52 336.512 709.44 335.984 710.24C335.472 711.04 334.76 711.672 333.848 712.136C332.936 712.584 331.904 712.808 330.752 712.808H327.776V719H324.992ZM334.304 719L330.368 712.184L332.528 710.696L337.448 719H334.304ZM327.776 710.24H331.04C331.584 710.24 332.064 710.12 332.48 709.88C332.912 709.64 333.256 709.312 333.512 708.896C333.784 708.48 333.92 708.008 333.92 707.48C333.92 706.68 333.632 706.024 333.056 705.512C332.48 705 331.736 704.744 330.824 704.744H327.776V710.24ZM345.121 719.288C343.953 719.288 342.913 719.024 342.001 718.496C341.105 717.952 340.393 717.208 339.865 716.264C339.353 715.32 339.097 714.232 339.097 713C339.097 711.768 339.361 710.68 339.889 709.736C340.417 708.792 341.137 708.056 342.049 707.528C342.977 706.984 344.033 706.712 345.217 706.712C346.289 706.712 347.257 706.992 348.121 707.552C348.985 708.096 349.665 708.888 350.161 709.928C350.673 710.968 350.929 712.208 350.929 713.648H341.497L341.857 713.312C341.857 714.048 342.017 714.688 342.337 715.232C342.657 715.76 343.081 716.168 343.609 716.456C344.137 716.744 344.721 716.888 345.361 716.888C346.097 716.888 346.705 716.728 347.185 716.408C347.665 716.072 348.041 715.64 348.313 715.112L350.689 716.12C350.353 716.76 349.921 717.32 349.393 717.8C348.881 718.28 348.265 718.648 347.545 718.904C346.841 719.16 346.033 719.288 345.121 719.288ZM342.025 711.92L341.641 711.584H348.409L348.049 711.92C348.049 711.264 347.905 710.728 347.617 710.312C347.329 709.88 346.961 709.56 346.513 709.352C346.081 709.128 345.625 709.016 345.145 709.016C344.665 709.016 344.185 709.128 343.705 709.352C343.225 709.56 342.825 709.88 342.505 710.312C342.185 710.728 342.025 711.264 342.025 711.92ZM358.604 719.288C357.372 719.288 356.284 719.024 355.34 718.496C354.396 717.952 353.652 717.208 353.108 716.264C352.58 715.32 352.316 714.232 352.316 713C352.316 711.768 352.58 710.68 353.108 709.736C353.652 708.792 354.388 708.056 355.316 707.528C356.26 706.984 357.34 706.712 358.556 706.712C359.74 706.712 360.812 707 361.772 707.576C362.732 708.136 363.444 708.944 363.908 710L361.412 710.96C361.156 710.432 360.764 710.008 360.236 709.688C359.708 709.368 359.108 709.208 358.436 709.208C357.78 709.208 357.196 709.376 356.684 709.712C356.172 710.032 355.772 710.48 355.484 711.056C355.196 711.616 355.052 712.264 355.052 713C355.052 713.736 355.196 714.392 355.484 714.968C355.788 715.528 356.196 715.976 356.708 716.312C357.236 716.632 357.828 716.792 358.484 716.792C359.156 716.792 359.756 716.624 360.284 716.288C360.812 715.936 361.204 715.464 361.46 714.872L363.956 715.832C363.492 716.92 362.78 717.768 361.82 718.376C360.876 718.984 359.804 719.288 358.604 719.288ZM371.563 719.288C370.363 719.288 369.291 719.024 368.347 718.496C367.419 717.952 366.691 717.208 366.163 716.264C365.635 715.32 365.371 714.232 365.371 713C365.371 711.768 365.627 710.68 366.139 709.736C366.667 708.792 367.395 708.056 368.323 707.528C369.251 706.984 370.315 706.712 371.515 706.712C372.715 706.712 373.779 706.984 374.707 707.528C375.635 708.056 376.355 708.792 376.867 709.736C377.395 710.68 377.659 711.768 377.659 713C377.659 714.232 377.403 715.32 376.891 716.264C376.379 717.208 375.659 717.952 374.731 718.496C373.803 719.024 372.747 719.288 371.563 719.288ZM371.563 716.816C372.219 716.816 372.803 716.656 373.315 716.336C373.827 716 374.227 715.552 374.515 714.992C374.803 714.416 374.947 713.752 374.947 713C374.947 712.248 374.795 711.592 374.491 711.032C374.203 710.456 373.803 710.008 373.291 709.688C372.779 709.352 372.187 709.184 371.515 709.184C370.843 709.184 370.251 709.344 369.739 709.664C369.227 709.984 368.827 710.432 368.539 711.008C368.251 711.584 368.107 712.248 368.107 713C368.107 713.752 368.251 714.416 368.539 714.992C368.843 715.552 369.251 716 369.763 716.336C370.291 716.656 370.891 716.816 371.563 716.816ZM381.764 712.616C381.764 711.32 382.012 710.256 382.508 709.424C383.004 708.592 383.644 707.976 384.428 707.576C385.228 707.16 386.06 706.952 386.924 706.952V709.52C386.188 709.52 385.492 709.624 384.836 709.832C384.196 710.024 383.676 710.344 383.276 710.792C382.876 711.24 382.676 711.832 382.676 712.568L381.764 712.616ZM379.988 719V707H382.676V719H379.988ZM397.371 719L397.251 716.768V702.2H399.915V719H397.371ZM393.459 719.288C392.371 719.288 391.419 719.032 390.603 718.52C389.803 717.992 389.171 717.256 388.707 716.312C388.259 715.368 388.035 714.264 388.035 713C388.035 711.72 388.259 710.616 388.707 709.688C389.171 708.744 389.803 708.016 390.603 707.504C391.419 706.976 392.371 706.712 393.459 706.712C394.467 706.712 395.331 706.976 396.051 707.504C396.787 708.016 397.347 708.744 397.731 709.688C398.115 710.616 398.307 711.72 398.307 713C398.307 714.264 398.115 715.368 397.731 716.312C397.347 717.256 396.787 717.992 396.051 718.52C395.331 719.032 394.467 719.288 393.459 719.288ZM394.131 716.84C394.739 716.84 395.275 716.68 395.739 716.36C396.219 716.024 396.587 715.568 396.843 714.992C397.115 714.416 397.251 713.752 397.251 713C397.251 712.248 397.115 711.584 396.843 711.008C396.587 710.432 396.219 709.984 395.739 709.664C395.275 709.344 394.731 709.184 394.107 709.184C393.467 709.184 392.899 709.344 392.403 709.664C391.907 709.984 391.515 710.432 391.227 711.008C390.955 711.584 390.811 712.248 390.795 713C390.811 713.752 390.955 714.416 391.227 714.992C391.515 715.568 391.907 716.024 392.403 716.36C392.915 716.68 393.491 716.84 394.131 716.84ZM415.996 719L415.876 716.744V712.832C415.876 712.016 415.788 711.336 415.612 710.792C415.452 710.232 415.18 709.808 414.796 709.52C414.428 709.216 413.932 709.064 413.308 709.064C412.732 709.064 412.228 709.184 411.796 709.424C411.364 709.664 410.996 710.04 410.692 710.552L408.34 709.688C408.596 709.16 408.932 708.672 409.348 708.224C409.78 707.76 410.316 707.392 410.956 707.12C411.612 706.848 412.396 706.712 413.308 706.712C414.476 706.712 415.452 706.944 416.236 707.408C417.02 707.856 417.596 708.504 417.964 709.352C418.348 710.2 418.54 711.224 418.54 712.424L418.468 719H415.996ZM412.54 719.288C411.1 719.288 409.98 718.968 409.18 718.328C408.396 717.688 408.004 716.784 408.004 715.616C408.004 714.368 408.42 713.416 409.252 712.76C410.1 712.104 411.276 711.776 412.78 711.776H415.996V713.84H413.644C412.572 713.84 411.82 713.992 411.388 714.296C410.956 714.584 410.74 715 410.74 715.544C410.74 716.008 410.924 716.376 411.292 716.648C411.676 716.904 412.204 717.032 412.876 717.032C413.484 717.032 414.012 716.896 414.46 716.624C414.908 716.352 415.252 715.992 415.492 715.544C415.748 715.096 415.876 714.592 415.876 714.032H416.668C416.668 715.664 416.34 716.952 415.684 717.896C415.028 718.824 413.98 719.288 412.54 719.288ZM426.421 724.112C425.573 724.112 424.805 724.04 424.117 723.896C423.445 723.752 422.877 723.584 422.413 723.392C421.949 723.2 421.589 723.016 421.333 722.84L422.365 720.68C422.589 720.792 422.885 720.928 423.253 721.088C423.637 721.264 424.085 721.416 424.597 721.544C425.109 721.672 425.685 721.736 426.325 721.736C427.013 721.736 427.629 721.592 428.173 721.304C428.717 721.032 429.141 720.608 429.445 720.032C429.749 719.456 429.901 718.72 429.901 717.824V707H432.589V717.752C432.589 719.112 432.333 720.264 431.821 721.208C431.309 722.168 430.589 722.888 429.661 723.368C428.733 723.864 427.653 724.112 426.421 724.112ZM426.013 718.76C424.925 718.76 423.973 718.512 423.157 718.016C422.357 717.52 421.725 716.832 421.261 715.952C420.813 715.056 420.589 714.024 420.589 712.856C420.589 711.608 420.813 710.528 421.261 709.616C421.725 708.704 422.357 707.992 423.157 707.48C423.973 706.968 424.925 706.712 426.013 706.712C426.989 706.712 427.837 706.968 428.557 707.48C429.293 707.992 429.861 708.712 430.261 709.64C430.661 710.552 430.861 711.632 430.861 712.88C430.861 714.064 430.661 715.096 430.261 715.976C429.861 716.856 429.293 717.544 428.557 718.04C427.837 718.52 426.989 718.76 426.013 718.76ZM426.757 716.48C427.365 716.48 427.893 716.32 428.341 716C428.805 715.68 429.165 715.248 429.421 714.704C429.677 714.144 429.805 713.504 429.805 712.784C429.805 712.048 429.677 711.408 429.421 710.864C429.165 710.304 428.805 709.872 428.341 709.568C427.877 709.248 427.341 709.088 426.733 709.088C426.093 709.088 425.525 709.248 425.029 709.568C424.549 709.872 424.165 710.304 423.877 710.864C423.605 711.408 423.469 712.048 423.469 712.784C423.469 713.504 423.605 714.144 423.877 714.704C424.165 715.248 424.557 715.68 425.053 716C425.549 716.32 426.117 716.48 426.757 716.48ZM442.878 719L442.758 716.744V712.832C442.758 712.016 442.67 711.336 442.494 710.792C442.334 710.232 442.062 709.808 441.678 709.52C441.31 709.216 440.814 709.064 440.19 709.064C439.614 709.064 439.11 709.184 438.678 709.424C438.246 709.664 437.878 710.04 437.574 710.552L435.222 709.688C435.478 709.16 435.814 708.672 436.23 708.224C436.662 707.76 437.198 707.392 437.838 707.12C438.494 706.848 439.278 706.712 440.19 706.712C441.358 706.712 442.334 706.944 443.118 707.408C443.902 707.856 444.478 708.504 444.846 709.352C445.23 710.2 445.422 711.224 445.422 712.424L445.35 719H442.878ZM439.422 719.288C437.982 719.288 436.862 718.968 436.062 718.328C435.278 717.688 434.886 716.784 434.886 715.616C434.886 714.368 435.302 713.416 436.134 712.76C436.982 712.104 438.158 711.776 439.662 711.776H442.878V713.84H440.526C439.454 713.84 438.702 713.992 438.27 714.296C437.838 714.584 437.622 715 437.622 715.544C437.622 716.008 437.806 716.376 438.174 716.648C438.558 716.904 439.086 717.032 439.758 717.032C440.366 717.032 440.894 716.896 441.342 716.624C441.79 716.352 442.134 715.992 442.374 715.544C442.63 715.096 442.758 714.592 442.758 714.032H443.55C443.55 715.664 443.222 716.952 442.566 717.896C441.91 718.824 440.862 719.288 439.422 719.288ZM448.312 719V707H450.976V719H448.312ZM449.656 704.72C449.224 704.72 448.848 704.568 448.528 704.264C448.224 703.944 448.072 703.568 448.072 703.136C448.072 702.704 448.224 702.336 448.528 702.032C448.848 701.728 449.224 701.576 449.656 701.576C450.088 701.576 450.456 701.728 450.76 702.032C451.08 702.336 451.24 702.704 451.24 703.136C451.24 703.568 451.08 703.944 450.76 704.264C450.456 704.568 450.088 704.72 449.656 704.72ZM454.144 719V707H456.664L456.832 709.208V719H454.144ZM462.28 719V712.856H464.968V719H462.28ZM462.28 712.856C462.28 711.896 462.168 711.16 461.944 710.648C461.736 710.12 461.432 709.752 461.032 709.544C460.648 709.336 460.192 709.232 459.664 709.232C458.768 709.216 458.072 709.512 457.576 710.12C457.08 710.728 456.832 711.6 456.832 712.736H455.824C455.824 711.472 456.008 710.392 456.376 709.496C456.744 708.584 457.272 707.896 457.96 707.432C458.648 706.952 459.464 706.712 460.408 706.712C461.368 706.712 462.184 706.904 462.856 707.288C463.544 707.672 464.064 708.272 464.416 709.088C464.784 709.888 464.968 710.936 464.968 712.232V712.856H462.28Z" fill="#0075FF"/>
</g>
</g>
<defs>
<filter id="filter0_d_18_145" x="-4" y="0" width="798" height="928" filterUnits="userSpaceOnUse" color-interpolation-filters="sRGB">
<feFlood flood-opacity="0" result="BackgroundImageFix"/>
<feColorMatrix in="SourceAlpha" type="matrix" values="0 0 0 0 0 0 0 0 0 0 0 0 0 0 0 0 0 0 127 0" result="hardAlpha"/>
<feOffset dy="4"/>
<feGaussianBlur stdDeviation="27"/>
<feComposite in2="hardAlpha" operator="out"/>
<feColorMatrix type="matrix" values="0 0 0 0 0 0 0 0 0 0 0 0 0 0 0 0 0 0 0.12 0"/>
<feBlend mode="normal" in2="BackgroundImageFix" result="effect1_dropShadow_18_145"/>
<feBlend mode="normal" in="SourceGraphic" in2="effect1_dropShadow_18_145" result="shape"/>
</filter>
<filter id="filter1_d_18_145" x="211" y="352" width="328" height="328" filterUnits="userSpaceOnUse" color-interpolation-filters="sRGB">
<feFlood flood-opacity="0" result="BackgroundImageFix"/>
<feColorMatrix in="SourceAlpha" type="matrix" values="0 0 0 0 0 0 0 0 0 0 0 0 0 0 0 0 0 0 127 0" result="hardAlpha"/>
<feOffset dy="4"/>
<feGaussianBlur stdDeviation="32"/>
<feComposite in2="hardAlpha" operator="out"/>
<feColorMatrix type="matrix" values="0 0 0 0 0 0 0 0 0 0.44826 0 0 0 0 0.974479 0 0 0 0.2 0"/>
<feBlend mode="normal" in2="BackgroundImageFix" result="effect1_dropShadow_18_145"/>
<feBlend mode="normal" in="SourceGraphic" in2="effect1_dropShadow_18_145" result="shape"/>
</filter>
<linearGradient id="paint0_linear_18_145" x1="113.6" y1="108.56" x2="129.2" y2="136.4" gradientUnits="userSpaceOnUse">
<stop stop-color="#4FFF80"/>
<stop offset="1" stop-color="#FBFF33"/>
</linearGradient>
<clipPath id="clip0_18_145">
<rect width="960" height="1090" fill="white"/>
</clipPath>
<clipPath id="clip1_18_145">
<rect x="98" y="98" width="48" height="48" rx="24" fill="white"/>
</clipPath>
</defs>
</svg>
