<svg width="87" height="30" viewBox="0 0 87 30" fill="none" xmlns="http://www.w3.org/2000/svg">
<path d="M15 15C15 10.8579 12.4816 7.5 9.375 7.5C12.4816 7.5 15 4.14214 15 0C15 4.14214 17.5184 7.5 20.625 7.5C17.5184 7.5 15 10.8579 15 15Z" fill="url(#paint0_linear_9_31)"/>
<path d="M15 15C15 19.1421 12.4816 22.5 9.375 22.5C12.4816 22.5 15 25.8579 15 30C15 25.8579 17.5184 22.5 20.625 22.5C17.5184 22.5 15 19.1421 15 15Z" fill="url(#paint1_linear_9_31)"/>
<path d="M15 15.0002C10.8579 15.0002 7.5 17.5186 7.5 20.6252C7.5 17.5186 4.14214 15.0002 0 15.0002C4.14214 15.0002 7.5 12.4818 7.5 9.37517C7.5 12.4818 10.8579 15.0002 15 15.0002Z" fill="url(#paint2_linear_9_31)"/>
<path d="M15 15.0002C19.1421 15.0002 22.5 17.5186 22.5 20.6252C22.5 17.5186 25.8579 15.0002 30 15.0002C25.8579 15.0002 22.5 12.4818 22.5 9.37517C22.5 12.4818 19.1421 15.0002 15 15.0002Z" fill="url(#paint3_linear_9_31)"/>
<path d="M43.326 21.216C42.054 21.216 40.92 20.94 39.924 20.388C38.94 19.824 38.166 19.056 37.602 18.084C37.05 17.1 36.774 15.978 36.774 14.718C36.774 13.434 37.05 12.306 37.602 11.334C38.166 10.35 38.94 9.582 39.924 9.03C40.92 8.466 42.054 8.184 43.326 8.184C44.022 8.184 44.688 8.298 45.324 8.526C45.972 8.742 46.554 9.048 47.07 9.444C47.598 9.828 48.024 10.272 48.348 10.776L46.926 11.712C46.686 11.34 46.374 11.01 45.99 10.722C45.606 10.434 45.18 10.212 44.712 10.056C44.256 9.888 43.794 9.804 43.326 9.804C42.402 9.804 41.58 10.014 40.86 10.434C40.152 10.854 39.594 11.43 39.186 12.162C38.778 12.894 38.574 13.746 38.574 14.718C38.574 15.666 38.772 16.506 39.168 17.238C39.576 17.97 40.14 18.546 40.86 18.966C41.592 19.386 42.426 19.596 43.362 19.596C44.118 19.596 44.79 19.44 45.378 19.128C45.978 18.816 46.446 18.378 46.782 17.814C47.13 17.25 47.304 16.596 47.304 15.852L49.014 15.69C49.014 16.806 48.768 17.778 48.276 18.606C47.796 19.434 47.13 20.076 46.278 20.532C45.426 20.988 44.442 21.216 43.326 21.216ZM44.244 15.96V14.484H49.014V15.78L48.114 15.96H44.244ZM56.9135 21L56.8055 19.344V12H58.4975V21H56.9135ZM50.5775 16.608V12H52.2875V16.608H50.5775ZM52.2875 16.608C52.2875 17.412 52.3775 18.03 52.5575 18.462C52.7495 18.894 53.0135 19.194 53.3495 19.362C53.6855 19.53 54.0635 19.62 54.4835 19.632C55.2155 19.632 55.7855 19.374 56.1935 18.858C56.6015 18.342 56.8055 17.616 56.8055 16.68H57.5435C57.5435 17.628 57.3995 18.444 57.1115 19.128C56.8355 19.8 56.4395 20.316 55.9235 20.676C55.4075 21.036 54.7775 21.216 54.0335 21.216C53.3375 21.216 52.7255 21.072 52.1975 20.784C51.6815 20.496 51.2795 20.046 50.9915 19.434C50.7155 18.822 50.5775 18.03 50.5775 17.058V16.608H52.2875ZM64.8613 21.216C63.9853 21.216 63.2113 21.018 62.5393 20.622C61.8673 20.214 61.3393 19.656 60.9553 18.948C60.5713 18.24 60.3793 17.424 60.3793 16.5C60.3793 15.576 60.5713 14.76 60.9553 14.052C61.3393 13.344 61.8673 12.792 62.5393 12.396C63.2233 11.988 64.0033 11.784 64.8793 11.784C65.7073 11.784 66.4333 11.994 67.0573 12.414C67.6813 12.822 68.1673 13.41 68.5153 14.178C68.8753 14.934 69.0553 15.828 69.0553 16.86H61.7833L62.1073 16.59C62.1073 17.226 62.2333 17.778 62.4853 18.246C62.7373 18.714 63.0793 19.074 63.5113 19.326C63.9433 19.566 64.4353 19.686 64.9873 19.686C65.5873 19.686 66.0853 19.548 66.4813 19.272C66.8893 18.984 67.2073 18.624 67.4353 18.192L68.9113 18.876C68.6713 19.344 68.3593 19.758 67.9753 20.118C67.5913 20.466 67.1353 20.736 66.6073 20.928C66.0913 21.12 65.5093 21.216 64.8613 21.216ZM62.2153 15.78L61.8733 15.51H67.5613L67.2373 15.78C67.2373 15.252 67.1293 14.802 66.9133 14.43C66.6973 14.046 66.4093 13.758 66.0493 13.566C65.6893 13.362 65.2873 13.26 64.8433 13.26C64.4113 13.26 63.9913 13.362 63.5833 13.566C63.1873 13.758 62.8573 14.04 62.5933 14.412C62.3413 14.784 62.2153 15.24 62.2153 15.78ZM73.9666 21.216C73.3306 21.216 72.7606 21.12 72.2566 20.928C71.7646 20.736 71.3446 20.478 70.9966 20.154C70.6606 19.83 70.4086 19.464 70.2406 19.056L71.7166 18.408C71.9086 18.78 72.1966 19.086 72.5806 19.326C72.9646 19.566 73.3906 19.686 73.8586 19.686C74.3746 19.686 74.8006 19.59 75.1366 19.398C75.4726 19.206 75.6406 18.936 75.6406 18.588C75.6406 18.252 75.5146 17.988 75.2626 17.796C75.0106 17.604 74.6446 17.448 74.1646 17.328L73.3186 17.112C72.4786 16.884 71.8246 16.542 71.3566 16.086C70.9006 15.63 70.6726 15.114 70.6726 14.538C70.6726 13.662 70.9546 12.984 71.5186 12.504C72.0826 12.024 72.9166 11.784 74.0206 11.784C74.5606 11.784 75.0526 11.862 75.4966 12.018C75.9526 12.174 76.3366 12.396 76.6486 12.684C76.9726 12.972 77.2006 13.314 77.3326 13.71L75.8926 14.358C75.7486 13.998 75.5026 13.734 75.1546 13.566C74.8066 13.386 74.3986 13.296 73.9306 13.296C73.4506 13.296 73.0726 13.404 72.7966 13.62C72.5206 13.824 72.3826 14.112 72.3826 14.484C72.3826 14.688 72.4966 14.886 72.7246 15.078C72.9646 15.258 73.3126 15.408 73.7686 15.528L74.7406 15.762C75.3286 15.906 75.8146 16.128 76.1986 16.428C76.5826 16.716 76.8706 17.046 77.0626 17.418C77.2546 17.778 77.3506 18.156 77.3506 18.552C77.3506 19.092 77.2006 19.566 76.9006 19.974C76.6126 20.37 76.2106 20.676 75.6946 20.892C75.1906 21.108 74.6146 21.216 73.9666 21.216ZM82.3338 21.216C81.6978 21.216 81.1278 21.12 80.6238 20.928C80.1318 20.736 79.7118 20.478 79.3638 20.154C79.0278 19.83 78.7758 19.464 78.6078 19.056L80.0838 18.408C80.2758 18.78 80.5638 19.086 80.9478 19.326C81.3318 19.566 81.7578 19.686 82.2258 19.686C82.7418 19.686 83.1678 19.59 83.5038 19.398C83.8398 19.206 84.0078 18.936 84.0078 18.588C84.0078 18.252 83.8818 17.988 83.6298 17.796C83.3778 17.604 83.0118 17.448 82.5318 17.328L81.6858 17.112C80.8458 16.884 80.1918 16.542 79.7238 16.086C79.2678 15.63 79.0398 15.114 79.0398 14.538C79.0398 13.662 79.3218 12.984 79.8858 12.504C80.4498 12.024 81.2838 11.784 82.3878 11.784C82.9278 11.784 83.4198 11.862 83.8638 12.018C84.3198 12.174 84.7038 12.396 85.0158 12.684C85.3398 12.972 85.5678 13.314 85.6998 13.71L84.2598 14.358C84.1158 13.998 83.8698 13.734 83.5218 13.566C83.1738 13.386 82.7658 13.296 82.2978 13.296C81.8178 13.296 81.4398 13.404 81.1638 13.62C80.8878 13.824 80.7498 14.112 80.7498 14.484C80.7498 14.688 80.8638 14.886 81.0918 15.078C81.3318 15.258 81.6798 15.408 82.1358 15.528L83.1078 15.762C83.6958 15.906 84.1818 16.128 84.5658 16.428C84.9498 16.716 85.2378 17.046 85.4298 17.418C85.6218 17.778 85.7178 18.156 85.7178 18.552C85.7178 19.092 85.5678 19.566 85.2678 19.974C84.9798 20.37 84.5778 20.676 84.0618 20.892C83.5578 21.108 82.9818 21.216 82.3338 21.216Z" fill="white"/>
<defs>
<linearGradient id="paint0_linear_9_31" x1="15" y1="1.17182" x2="15" y2="16.6992" gradientUnits="userSpaceOnUse">
<stop stop-color="white"/>
<stop offset="1" stop-color="#818181"/>
</linearGradient>
<linearGradient id="paint1_linear_9_31" x1="15" y1="28.8282" x2="15" y2="13.3008" gradientUnits="userSpaceOnUse">
<stop stop-color="white"/>
<stop offset="1" stop-color="#818181"/>
</linearGradient>
<linearGradient id="paint2_linear_9_31" x1="1.17182" y1="15.0002" x2="16.6992" y2="15.0001" gradientUnits="userSpaceOnUse">
<stop stop-color="white"/>
<stop offset="1" stop-color="#818181"/>
</linearGradient>
<linearGradient id="paint3_linear_9_31" x1="28.8282" y1="15.0002" x2="13.3008" y2="15.0001" gradientUnits="userSpaceOnUse">
<stop stop-color="white"/>
<stop offset="1" stop-color="#818181"/>
</linearGradient>
</defs>
</svg>
