<svg width="32" height="32" viewBox="0 0 32 32" fill="none" xmlns="http://www.w3.org/2000/svg">
<path d="M16 15C16 10.8579 13.4816 7.5 10.375 7.5C13.4816 7.5 16 4.14214 16 0C16 4.14214 18.5184 7.5 21.625 7.5C18.5184 7.5 16 10.8579 16 15Z" fill="white"/>
<path d="M16 17C16 21.1421 13.4816 24.5 10.375 24.5C13.4816 24.5 16 27.8579 16 32C16 27.8579 18.5184 24.5 21.625 24.5C18.5184 24.5 16 21.1421 16 17Z" fill="white"/>
<path d="M15 16.0002C10.8579 16.0002 7.5 18.5186 7.5 21.6252C7.5 18.5186 4.14214 16.0002 0 16.0002C4.14214 16.0002 7.5 13.4818 7.5 10.3752C7.5 13.4818 10.8579 16.0002 15 16.0002Z" fill="white"/>
<path d="M17 16.0002C21.1421 16.0002 24.5 18.5186 24.5 21.6252C24.5 18.5186 27.8579 16.0002 32 16.0002C27.8579 16.0002 24.5 13.4818 24.5 10.3752C24.5 13.4818 21.1421 16.0002 17 16.0002Z" fill="white"/>
</svg>
