<svg width="17" height="17" viewBox="0 0 17 17" fill="none" xmlns="http://www.w3.org/2000/svg">
<path d="M8.49044 16.806C7.37814 16.806 6.33714 16.6135 5.36745 16.2285C4.41201 15.8292 3.57066 15.273 2.84338 14.56C2.13037 13.847 1.57422 12.9985 1.17493 12.0146C0.775648 11.0163 0.576004 9.92543 0.576004 8.74183C0.576004 7.60101 0.768517 6.55288 1.15354 5.59744C1.53857 4.64201 2.08046 3.80065 2.77921 3.07338C3.47797 2.34611 4.29793 1.78996 5.23911 1.40493C6.19454 1.00564 7.23554 0.806 8.3621 0.806C9.65978 0.806 10.822 1.04842 11.8487 1.53327C12.8897 2.00386 13.7596 2.65983 14.4584 3.50119C15.1714 4.34254 15.699 5.3265 16.0412 6.45306H12.2124C12.0555 5.92543 11.7988 5.46197 11.4423 5.06268C11.0858 4.64914 10.6437 4.32115 10.1161 4.07873C9.58848 3.8363 8.97529 3.71509 8.27654 3.71509C7.44944 3.71509 6.70078 3.91473 6.03055 4.31402C5.37458 4.69905 4.85408 5.27659 4.46905 6.04664C4.09829 6.80243 3.9129 7.72935 3.9129 8.82739C3.9129 9.81135 4.09116 10.6955 4.44766 11.4798C4.80417 12.2641 5.3318 12.8916 6.03055 13.3621C6.74356 13.8185 7.61344 14.0466 8.64018 14.0466C9.39597 14.0466 10.0519 13.9112 10.6081 13.6402C11.1785 13.355 11.642 12.97 11.9985 12.4851C12.3692 11.986 12.6259 11.4228 12.7685 10.7953H8.31932V8.20707H16.2338C16.2908 9.46197 16.1482 10.6171 15.806 11.6723C15.4637 12.7133 14.9503 13.6188 14.2658 14.3889C13.5956 15.1589 12.7685 15.7579 11.7846 16.1857C10.8149 16.5992 9.71682 16.806 8.49044 16.806Z" fill="url(#paint0_linear_5_12)"/>
<defs>
<linearGradient id="paint0_linear_5_12" x1="8.20999" y1="0.442363" x2="8.20998" y2="16.4851" gradientUnits="userSpaceOnUse">
<stop stop-color="#C971FF"/>
<stop offset="1" stop-color="#44007A"/>
</linearGradient>
</defs>
</svg>
